<svg viewBox="0 0 99.2021 100" xmlns="http://www.w3.org/2000/svg" xmlns:xlink="http://www.w3.org/1999/xlink" width="99.202148" height="100.000000" fill="none" customFrame="#000000">
	<g id="Group">
		<path id="Vector" d="M93.9038 31.539C92.1906 31.2174 90.4194 31.5637 88.9535 32.5068C87.4876 33.4499 86.4382 34.9182 86.0207 36.6105L82.0841 51.2767C81.0524 50.594 79.8507 50.2127 78.6141 50.1756C77.3776 50.1385 76.1552 50.4471 75.0844 51.0667L63.688 57.7515C61.4347 59.078 59.5657 60.9684 58.2649 63.2367C56.9642 65.505 56.2767 68.073 56.2699 70.6878L56.2699 83.334L52.9367 83.334C52.4947 83.334 52.0708 83.5096 51.7582 83.8222C51.4457 84.1347 51.2701 84.5586 51.2701 85.0007L51.2701 98.3336C51.2701 98.7756 51.4457 99.1995 51.7582 99.512C52.0708 99.8246 52.4947 100 52.9367 100L82.9358 100C83.3778 100 83.8017 99.8246 84.1143 99.512C84.4268 99.1995 84.6024 98.7756 84.6024 98.3336L84.6024 85.0007C84.6024 84.5586 84.4268 84.1347 84.1143 83.8222C83.8017 83.5096 83.3778 83.334 82.9358 83.334L79.6025 83.334L79.6025 81.4008C79.6024 80.6795 79.7582 79.9668 80.0594 79.3115C80.3606 78.6561 80.8 78.0737 81.3475 77.6042L89.1189 70.9378C90.3955 69.8463 91.3112 68.3936 91.7455 66.7712L98.9769 39.7854C99.1288 39.2197 99.2044 38.6362 99.2019 38.0504C99.1937 36.5236 98.6638 35.0455 97.7002 33.8612C96.7365 32.6768 95.397 31.8575 93.9038 31.539ZM81.2692 96.667L54.6033 96.667L54.6033 86.6673L81.2692 86.6673L81.2692 96.667ZM95.7587 38.9204L88.5256 65.9096C88.266 66.8832 87.7168 67.755 86.9507 68.4095L79.1792 75.076C78.2668 75.858 77.5344 76.8282 77.0321 77.9199C76.5298 79.0116 76.2696 80.1991 76.2693 81.4008L76.2693 83.334L59.6032 83.334L59.6032 70.6878C59.6074 68.6544 60.141 66.6572 61.1516 64.8927C62.1621 63.1283 63.6147 61.6573 65.3663 60.6247L76.7493 53.9466C77.2564 53.6553 77.831 53.5019 78.4159 53.5016C79.0345 53.4961 79.6422 53.6652 80.169 53.9895C80.6958 54.3138 81.1205 54.7801 81.3942 55.3349C81.7586 56.1405 81.8047 57.0542 81.523 57.8924C81.2414 58.7306 80.6529 59.4311 79.8759 59.8531L70.5428 65.2313C70.3531 65.3407 70.1867 65.4864 70.0533 65.6602C69.9199 65.8339 69.822 66.0322 69.7652 66.2437C69.7084 66.4553 69.6938 66.676 69.7223 66.8931C69.7508 67.1103 69.8217 67.3198 69.9312 67.5095C70.0406 67.6993 70.1863 67.8656 70.3601 67.9991C70.5338 68.1325 70.7321 68.2304 70.9436 68.2872C71.1552 68.344 71.3759 68.3586 71.593 68.3301C71.8102 68.3016 72.0197 68.2306 72.2094 68.1212L81.5425 62.743C82.9406 61.9638 84.0192 60.7168 84.5889 59.2211C85.1586 57.7254 85.1829 56.0767 84.6574 54.5649L89.2422 37.4821C89.4501 36.6197 89.9744 35.8669 90.7113 35.373C91.4482 34.879 92.3438 34.6801 93.2205 34.8155C93.964 34.9738 94.6314 35.3806 95.1127 35.9689C95.5941 36.5573 95.8607 37.292 95.8687 38.0521C95.8709 38.3452 95.8339 38.6372 95.7587 38.9204ZM46.2703 83.334L42.937 83.334L42.937 70.6878C42.9314 68.0735 42.2453 65.5058 40.946 63.2372C39.6468 60.9687 37.7793 59.0775 35.5273 57.7498L24.1176 51.0567C23.046 50.4388 21.8233 50.1318 20.5869 50.1701C19.3505 50.2084 18.1492 50.5904 17.1178 51.2734L13.1829 36.6072C12.7632 34.9154 11.7129 33.4481 10.2468 32.5053C8.7808 31.5626 7.00991 31.2157 5.29653 31.5356C4.41054 31.7228 3.57189 32.0882 2.83158 32.6097C2.09128 33.1312 1.46479 33.7979 0.99024 34.5691C0.515684 35.3403 0.202977 36.2 0.0711387 37.0959C-0.0606994 37.9918 -0.00891235 38.9051 0.22335 39.7804L7.45646 66.7696C7.88939 68.3921 8.80472 69.845 10.0814 70.9361L17.8528 77.6026C18.4017 78.0716 18.8425 78.654 19.1449 79.3097C19.4472 79.9654 19.604 80.6787 19.6044 81.4008L19.6044 83.334L16.2712 83.334C15.8292 83.334 15.4053 83.5096 15.0927 83.8222C14.7802 84.1347 14.6046 84.5586 14.6046 85.0007L14.6046 98.3336C14.6046 98.7756 14.7802 99.1995 15.0927 99.512C15.4053 99.8246 15.8292 100 16.2712 100L46.2703 100C46.7123 100 47.1362 99.8246 47.4487 99.512C47.7613 99.1995 47.9369 98.7756 47.9369 98.3336L47.9369 85.0007C47.9369 84.5586 47.7613 84.1347 47.4487 83.8222C47.1362 83.5096 46.7123 83.334 46.2703 83.334ZM20.0277 75.0726L12.2563 68.4062C11.4896 67.7521 10.9403 66.8802 10.6814 65.9062L3.44825 38.9188C3.37314 38.6361 3.33615 38.3446 3.33825 38.0521C3.34298 37.2889 3.60853 36.5504 4.09085 35.9589C4.57316 35.3675 5.24323 34.9587 5.98984 34.8005C6.86638 34.6663 7.76141 34.8657 8.49801 35.3594C9.23461 35.8532 9.75919 36.6053 9.96805 37.4671L14.5529 54.5483C14.027 56.0603 14.051 57.7093 14.6207 59.2054C15.1904 60.7015 16.2694 61.9488 17.6678 62.728L27.0009 68.1062C27.3841 68.3272 27.8394 68.3869 28.2667 68.2722C28.6939 68.1575 29.0581 67.8778 29.2791 67.4945C29.5001 67.1113 29.5598 66.656 29.4451 66.2287C29.3304 65.8015 29.0507 65.4373 28.6675 65.2163L19.3344 59.8381C18.5571 59.4164 17.9683 58.716 17.6863 57.8778C17.4043 57.0396 17.4501 56.1257 17.8145 55.3199C18.0904 54.7691 18.5153 54.3067 19.0409 53.9852C19.5664 53.6638 20.1717 53.4963 20.7877 53.5016C21.3685 53.5004 21.9396 53.6509 22.4443 53.9383L33.8406 60.6264C35.5924 61.6585 37.0451 63.1291 38.0556 64.8933C39.0662 66.6575 39.5998 68.6546 39.6038 70.6878L39.6038 83.334L22.9376 83.334L22.9376 81.4008C22.9378 80.1985 22.6778 79.0104 22.1756 77.9181C21.6733 76.8258 20.9406 75.8551 20.0277 75.0726ZM44.6036 96.667L17.9378 96.667L17.9378 86.6673L44.6036 86.6673L44.6036 96.667ZM76.2693 22.6693L76.2693 1.66991C76.2699 1.37708 76.1933 1.08926 76.0473 0.835446C75.9012 0.58163 75.6909 0.370773 75.4374 0.224107C75.184 0.0774414 74.8964 0.000144346 74.6035 2.0197e-07C74.3107 -0.000143942 74.023 0.0768697 73.7694 0.223286L71.3945 1.57991C68.7756 3.08013 65.8263 3.90919 62.8094 3.99323C59.7925 4.07727 56.8016 3.41367 54.1033 2.06156L50.3351 0.178287C50.1038 0.0626935 49.8487 0.00251623 49.5901 0.00251623C49.3316 0.00251623 49.0765 0.0626935 48.8452 0.178287L45.1036 2.0549C42.405 3.40935 39.4131 4.07468 36.3948 3.99151C33.3765 3.90834 30.4257 3.07925 27.8058 1.57824L25.4376 0.223286C25.184 0.0768697 24.8963 -0.000143942 24.6034 2.0197e-07C24.3106 0.000144346 24.023 0.0774414 23.7695 0.224107C23.5161 0.370773 23.3057 0.58163 23.1597 0.835446C23.0137 1.08926 22.9371 1.37708 22.9376 1.66991L22.9376 22.6693C22.9296 30.2225 24.9785 37.6354 28.8645 44.1123C32.7505 50.5892 38.327 55.8856 44.9953 59.4331L48.8185 61.4714C49.0601 61.6004 49.3297 61.6678 49.6035 61.6678C49.8773 61.6678 50.1469 61.6004 50.3885 61.4714L54.2117 59.4331C60.8802 55.8859 66.4569 50.5895 70.3429 44.1126C74.229 37.6356 76.2778 30.2226 76.2693 22.6693ZM49.6035 58.1132L46.5652 56.4915C40.4301 53.2281 35.2995 48.3556 31.7241 42.3969C28.1488 36.4382 26.2635 29.6183 26.2709 22.6693L26.2709 4.54149C29.3573 6.28407 32.8248 7.24109 36.3681 7.32828C39.9114 7.41546 43.4218 6.63014 46.5902 5.04147L49.5901 3.54152L52.6134 5.05147C55.783 6.63935 59.2944 7.42335 62.8384 7.33442C66.3824 7.24549 69.8501 6.28634 72.9361 4.54149L72.9361 22.6693C72.9438 29.6184 71.0587 36.4384 67.4833 42.3972C63.9079 48.3559 58.7771 53.2284 52.6417 56.4915L49.6035 58.1132Z" fill="rgb(255,255,255)" fill-rule="nonzero" />
		<path id="Vector" d="M69.6023 11.7266C69.6024 11.4778 69.5468 11.2321 69.4397 11.0076C69.3325 10.7831 69.1764 10.5854 68.9828 10.4291C68.7892 10.2728 68.5632 10.1618 68.3211 10.1043C68.0791 10.0467 67.8272 10.0441 67.584 10.0966C62.0225 11.2822 56.2236 10.5521 51.1295 8.02501L50.3429 7.63336C50.1103 7.51614 49.8534 7.45508 49.5929 7.45508C49.3324 7.45508 49.0756 7.51614 48.8429 7.63336L48.073 8.01835C42.9782 10.5489 37.1771 11.2808 31.6135 10.0949C31.3709 10.0439 31.1199 10.0476 30.8789 10.1058C30.6379 10.164 30.413 10.2752 30.2204 10.4314C30.0278 10.5875 29.8726 10.7847 29.7658 11.0084C29.6591 11.2322 29.6037 11.477 29.6035 11.7249L29.6035 22.6696C29.5965 29.0143 31.3175 35.2412 34.582 40.6818C37.8465 46.1223 42.5311 50.571 48.133 53.5503L48.8179 53.9169C49.0593 54.0456 49.3286 54.1129 49.6021 54.1129C49.8756 54.1129 50.1449 54.0456 50.3862 53.9169L51.0729 53.5503C56.6747 50.571 61.3593 46.1223 64.6238 40.6818C67.8883 35.2412 69.6094 29.0143 69.6023 22.6696L69.6023 11.7266ZM66.2691 22.6696C66.2753 28.3911 64.7284 34.0071 61.7932 38.9185C58.8581 43.8298 54.6449 47.8524 49.6029 50.557C44.561 47.8524 40.3477 43.8298 37.4126 38.9185C34.4775 34.0071 32.9305 28.3911 32.9368 22.6696L32.9368 13.7148C38.6287 14.5048 44.4265 13.5598 49.5729 11.0033L49.6029 10.9866L49.6429 11.0083C54.7861 13.5637 60.5807 14.5076 66.2691 13.7165L66.2691 22.6696Z" fill="rgb(255,255,255)" fill-rule="nonzero" />
		<path id="Vector" d="M59.0311 19.8848L46.2698 32.646L41.0666 27.4429C40.7523 27.1393 40.3313 26.9713 39.8943 26.9751C39.4573 26.9789 39.0393 27.1542 38.7303 27.4632C38.4213 27.7722 38.246 28.1902 38.2423 28.6272C38.2385 29.0641 38.4064 29.4851 38.71 29.7995L45.0915 36.1809C45.404 36.4934 45.8279 36.6689 46.2698 36.6689C46.7117 36.6689 47.1356 36.4934 47.4481 36.1809L61.3876 22.2414C61.5468 22.0876 61.6738 21.9037 61.7611 21.7004C61.8485 21.4971 61.8945 21.2784 61.8964 21.0571C61.8983 20.8358 61.8561 20.6163 61.7723 20.4115C61.6885 20.2067 61.5648 20.0206 61.4083 19.8641C61.2518 19.7076 61.0658 19.5839 60.8609 19.5001C60.6561 19.4163 60.4366 19.3741 60.2154 19.376C59.9941 19.378 59.7754 19.4239 59.572 19.5113C59.3687 19.5986 59.1848 19.7256 59.0311 19.8848Z" fill="rgb(255,255,255)" fill-rule="nonzero" />
	</g>
</svg>
