<svg viewBox="0 0 20.166 29.7446" xmlns="http://www.w3.org/2000/svg" xmlns:xlink="http://www.w3.org/1999/xlink" width="20.166016" height="29.744629" fill="none" customFrame="#000000">
	<path id="Vector" d="M18.7244 0L1.44211 0C0.646065 0 0 0.645308 0 1.44042L0 6.21397C0 7.00908 0.646065 7.65439 1.44211 7.65439L18.7244 7.65439C19.5204 7.65439 20.1665 7.00908 20.1665 6.21397L20.1665 1.44042C20.1665 0.645308 19.5175 0 18.7244 0ZM19.0128 6.21397C19.0128 6.37242 18.883 6.50206 18.7244 6.50206L1.44211 6.50206C1.28348 6.50206 1.15369 6.37242 1.15369 6.21397L1.15369 1.44042C1.15369 1.28197 1.28348 1.15234 1.44211 1.15234L18.7244 1.15234C18.883 1.15234 19.0128 1.28197 19.0128 1.44042L19.0128 6.21397ZM4.27441 9.30799L1.44211 9.30799C0.646065 9.30799 0 9.9533 0 10.7484L0 13.5774C0 14.3725 0.646065 15.0178 1.44211 15.0178L4.27441 15.0178C5.07046 15.0178 5.71652 14.3725 5.71652 13.5774L5.71652 10.7484C5.71652 9.9533 5.07046 9.30799 4.27441 9.30799ZM4.56283 13.5774C4.56283 13.7358 4.43305 13.8655 4.27441 13.8655L1.44211 13.8655C1.28348 13.8655 1.15369 13.7358 1.15369 13.5774L1.15369 10.7484C1.15369 10.59 1.28348 10.4603 1.44211 10.4603L4.27441 10.4603C4.43305 10.4603 4.56283 10.59 4.56283 10.7484L4.56283 13.5774ZM11.4994 9.30799L8.66708 9.30799C7.87103 9.30799 7.22497 9.9533 7.22497 10.7484L7.22497 13.5774C7.22497 14.3725 7.87103 15.0178 8.66708 15.0178L11.4994 15.0178C12.2954 15.0178 12.9415 14.3725 12.9415 13.5774L12.9415 10.7484C12.9415 9.9533 12.2954 9.30799 11.4994 9.30799ZM11.7878 13.5774C11.7878 13.7358 11.658 13.8655 11.4994 13.8655L8.66708 13.8655C8.50845 13.8655 8.37866 13.7358 8.37866 13.5774L8.37866 10.7484C8.37866 10.59 8.50845 10.4603 8.66708 10.4603L11.4994 10.4603C11.658 10.4603 11.7878 10.59 11.7878 10.7484L11.7878 13.5774ZM18.7244 9.30799L15.892 9.30799C15.096 9.30799 14.4499 9.9533 14.4499 10.7484L14.4499 13.5774C14.4499 14.3725 15.096 15.0178 15.892 15.0178L18.7244 15.0178C19.5204 15.0178 20.1665 14.3725 20.1665 13.5774L20.1665 10.7484C20.1665 9.9533 19.5175 9.30799 18.7244 9.30799ZM19.0128 13.5774C19.0128 13.7358 18.883 13.8655 18.7244 13.8655L15.892 13.8655C15.7334 13.8655 15.6036 13.7358 15.6036 13.5774L15.6036 10.7484C15.6036 10.59 15.7334 10.4603 15.892 10.4603L18.7244 10.4603C18.883 10.4603 19.0128 10.59 19.0128 10.7484L19.0128 13.5774ZM4.27441 16.6714L1.44211 16.6714C0.646065 16.6714 0 17.3167 0 18.1118L0 20.9408C0 21.7359 0.646065 22.3812 1.44211 22.3812L4.27441 22.3812C5.07046 22.3812 5.71652 21.7359 5.71652 20.9408L5.71652 18.1118C5.71652 17.3167 5.07046 16.6714 4.27441 16.6714ZM4.56283 20.9408C4.56283 21.0993 4.43305 21.2289 4.27441 21.2289L1.44211 21.2289C1.28348 21.2289 1.15369 21.0993 1.15369 20.9408L1.15369 18.1118C1.15369 17.9534 1.28348 17.8238 1.44211 17.8238L4.27441 17.8238C4.43305 17.8238 4.56283 17.9534 4.56283 18.1118L4.56283 20.9408ZM11.4994 16.6714L8.66708 16.6714C7.87103 16.6714 7.22497 17.3167 7.22497 18.1118L7.22497 20.9408C7.22497 21.7359 7.87103 22.3812 8.66708 22.3812L11.4994 22.3812C12.2954 22.3812 12.9415 21.7359 12.9415 20.9408L12.9415 18.1118C12.9415 17.3167 12.2954 16.6714 11.4994 16.6714ZM11.7878 20.9408C11.7878 21.0993 11.658 21.2289 11.4994 21.2289L8.66708 21.2289C8.50845 21.2289 8.37866 21.0993 8.37866 20.9408L8.37866 18.1118C8.37866 17.9534 8.50845 17.8238 8.66708 17.8238L11.4994 17.8238C11.658 17.8238 11.7878 17.9534 11.7878 18.1118L11.7878 20.9408ZM4.27441 24.0348L1.44211 24.0348C0.646065 24.0348 0 24.6802 0 25.4753L0 28.3043C0 29.0994 0.646065 29.7447 1.44211 29.7447L4.27441 29.7447C5.07046 29.7447 5.71652 29.0994 5.71652 28.3043L5.71652 25.4753C5.71652 24.6802 5.07046 24.0348 4.27441 24.0348ZM4.56283 28.3043C4.56283 28.4627 4.43305 28.5923 4.27441 28.5923L1.44211 28.5923C1.28348 28.5923 1.15369 28.4627 1.15369 28.3043L1.15369 25.4753C1.15369 25.3168 1.28348 25.1872 1.44211 25.1872L4.27441 25.1872C4.43305 25.1872 4.56283 25.3168 4.56283 25.4753L4.56283 28.3043ZM11.4994 24.0348L8.66708 24.0348C7.87103 24.0348 7.22497 24.6802 7.22497 25.4753L7.22497 28.3043C7.22497 29.0994 7.87103 29.7447 8.66708 29.7447L11.4994 29.7447C12.2954 29.7447 12.9415 29.0994 12.9415 28.3043L12.9415 25.4753C12.9415 24.6802 12.2954 24.0348 11.4994 24.0348ZM11.7878 28.3043C11.7878 28.4627 11.658 28.5923 11.4994 28.5923L8.66708 28.5923C8.50845 28.5923 8.37866 28.4627 8.37866 28.3043L8.37866 25.4753C8.37866 25.3168 8.50845 25.1872 8.66708 25.1872L11.4994 25.1872C11.658 25.1872 11.7878 25.3168 11.7878 25.4753L11.7878 28.3043ZM18.7244 16.6714L15.892 16.6714C15.096 16.6714 14.4499 17.3167 14.4499 18.1118L14.4499 28.3043C14.4499 29.0994 15.096 29.7447 15.892 29.7447L18.7244 29.7447C19.5204 29.7447 20.1665 29.0994 20.1665 28.3043L20.1665 18.1118C20.1665 17.3167 19.5175 16.6714 18.7244 16.6714ZM19.0128 28.3043C19.0128 28.4627 18.883 28.5923 18.7244 28.5923L15.892 28.5923C15.7334 28.5923 15.6036 28.4627 15.6036 28.3043L15.6036 18.1118C15.6036 17.9534 15.7334 17.8238 15.892 17.8238L18.7244 17.8238C18.883 17.8238 19.0128 17.9534 19.0128 18.1118L19.0128 28.3043Z" fill="rgb(255,255,255)" fill-rule="evenodd" />
</svg>
