<svg viewBox="0 0 60.4443 60" xmlns="http://www.w3.org/2000/svg" xmlns:xlink="http://www.w3.org/1999/xlink" width="60.444336" height="60.000000" fill="none" customFrame="#000000">
	<rect id="icon/автомобили" width="60.000000" height="60.000000" x="0.222656" y="0.000000" />
	<g id="Group">
		<g id="Layer 3">
			<path id="Vector" d="M53.3425 27.0723L50.0908 26.5311C49.676 26.4626 49.2817 26.3023 48.9368 26.0619C48.5919 25.8216 48.305 25.5072 48.097 25.1418L46.8693 22.9942C45.1315 19.9612 42.6246 17.4401 39.6014 15.6854C36.5781 13.9307 33.1456 13.0044 29.65 13L27.0169 13C23.5215 13.0043 20.089 13.9305 17.0658 15.685C14.0426 17.4395 11.5356 19.9604 9.79772 22.9932L8.47549 25.2986C8.2855 25.6296 8.03092 25.9191 7.72688 26.1498C7.42284 26.3805 7.07553 26.5478 6.70559 26.6416L3.57569 27.4236C2.7964 27.6187 2.07999 28.0099 1.49461 28.5601C0.909236 29.1103 0.474371 29.8011 0.23139 30.5668C0.221001 30.5913 0.220057 30.6206 0.211557 30.6461C0.0748212 31.0863 0.00354026 31.5442 0 32.0052L6.02916e-16 38.5001C0.00149965 39.7521 0.499502 40.9523 1.38477 41.8376C2.27004 42.7229 3.47029 43.2209 4.72225 43.2224L8.20254 43.2224C8.7367 44.3524 9.58088 45.3074 10.6368 45.9762C11.6927 46.645 12.9169 47.0001 14.1667 47.0001C15.4166 47.0001 16.6408 46.645 17.6967 45.9762C18.7526 45.3074 19.5968 44.3524 20.1309 43.2224L40.3138 43.2224C40.848 44.3524 41.6922 45.3074 42.7481 45.9762C43.804 46.645 45.0281 47.0001 46.278 47.0001C47.5279 47.0001 48.7521 46.645 49.808 45.9762C50.8639 45.3074 51.7081 44.3524 52.2422 43.2224L55.7225 43.2224C56.9745 43.2209 58.1747 42.7229 59.06 41.8376C59.9453 40.9523 60.4433 39.7521 60.4448 38.5001L60.4448 35.4562C60.4498 33.4428 59.7379 31.4935 58.4365 29.9572C57.1351 28.421 55.3293 27.3983 53.3425 27.0723ZM57.5113 31.889C57.8849 32.4712 58.1644 33.1087 58.3396 33.7779L57.6114 33.7779C56.8622 33.7777 56.1433 33.4817 55.6111 32.9543C55.3119 32.6529 55.083 32.2891 54.9405 31.889L57.5113 31.889ZM1.89834 31.889L3.51241 31.889L3.04018 33.7779L1.8889 33.7779L1.8889 32.0052C1.8889 31.9655 1.8974 31.9277 1.89834 31.889ZM14.1667 45.1113C13.2328 45.1113 12.3198 44.8343 11.5432 44.3154C10.7666 43.7966 10.1614 43.059 9.80396 42.1962C9.44654 41.3333 9.35302 40.3838 9.53523 39.4678C9.71744 38.5517 10.1672 37.7103 10.8276 37.0499C11.488 36.3895 12.3295 35.9397 13.2455 35.7575C14.1615 35.5753 15.111 35.6688 15.9739 36.0263C16.8367 36.3837 17.5743 36.9889 18.0931 37.7655C18.612 38.5421 18.889 39.4551 18.889 40.389C18.8875 41.641 18.3895 42.8412 17.5042 43.7265C16.619 44.6118 15.4187 45.1098 14.1667 45.1113ZM46.278 45.1113C45.3441 45.1113 44.4311 44.8343 43.6545 44.3154C42.8779 43.7966 42.2727 43.059 41.9152 42.1962C41.5578 41.3333 41.4643 40.3838 41.6465 39.4678C41.8287 38.5517 42.2785 37.7103 42.9389 37.0499C43.5993 36.3895 44.4407 35.9397 45.3568 35.7575C46.2728 35.5753 47.2223 35.6688 48.0852 36.0263C48.948 36.3837 49.6855 36.9889 50.2044 37.7655C50.7233 38.5421 51.0003 39.4551 51.0003 40.389C50.9988 41.641 50.5008 42.8412 49.6155 43.7265C48.7302 44.6118 47.53 45.1098 46.278 45.1113ZM55.7225 41.3335L52.8136 41.3335C52.9572 40.3919 52.8956 39.4305 52.6332 38.5149C52.3707 37.5993 51.9135 36.7513 51.2928 36.0288C50.6722 35.3063 49.9027 34.7265 49.0372 34.329C48.1717 33.9315 47.2305 33.7257 46.278 33.7257C45.3256 33.7257 44.3844 33.9315 43.5188 34.329C42.6533 34.7265 41.8839 35.3063 41.2632 36.0288C40.6426 36.7513 40.1854 37.5993 39.9229 38.5149C39.6604 39.4305 39.5989 40.3919 39.7424 41.3335L20.7023 41.3335C20.8459 40.3919 20.7844 39.4305 20.5219 38.5149C20.2594 37.5993 19.8022 36.7513 19.1815 36.0288C18.5609 35.3063 17.7915 34.7265 16.9259 34.329C16.0604 33.9315 15.1192 33.7257 14.1667 33.7257C13.2143 33.7257 12.2731 33.9315 11.4076 34.329C10.542 34.7265 9.7726 35.3063 9.15195 36.0288C8.53131 36.7513 8.07409 37.5993 7.81161 38.5149C7.54912 39.4305 7.48757 40.3919 7.63115 41.3335L4.72225 41.3335C3.9708 41.3335 3.25012 41.035 2.71877 40.5036C2.18741 39.9723 1.8889 39.2516 1.8889 38.5001L1.8889 35.6668L3.7778 35.6668C3.98834 35.6668 4.19285 35.5964 4.35883 35.4669C4.52481 35.3374 4.64275 35.1561 4.69391 34.9518L5.63836 31.174C5.67325 31.0348 5.67593 30.8894 5.6462 30.749C5.61647 30.6085 5.55511 30.4767 5.46679 30.3635C5.37847 30.2503 5.26551 30.1588 5.1365 30.0958C5.00748 30.0328 4.86581 30.0001 4.72225 30.0001L2.72851 30.0001C3.08857 29.6386 3.54003 29.3817 4.03469 29.2568L7.16554 28.4739C7.78292 28.318 8.36263 28.0395 8.87016 27.6549C9.37768 27.2704 9.80266 26.7877 10.1198 26.2355L11.4373 23.9301C13.0098 21.1862 15.2781 18.9055 18.0134 17.3181C20.7488 15.7307 23.8544 14.8928 27.0169 14.8889L29.65 14.8889C32.8133 14.8922 35.9196 15.7298 38.6557 17.3172C41.3918 18.9046 43.6607 21.1856 45.2335 23.9301L46.4613 26.0778C46.8071 26.6866 47.2845 27.2106 47.8587 27.6114C48.4329 28.0122 49.0893 28.2798 49.78 28.3945L53.0318 28.9366C53.9826 29.094 54.8877 29.4569 55.6838 30.0001L53.8336 30.0001C53.5831 30.0001 53.3429 30.0996 53.1658 30.2767C52.9887 30.4538 52.8892 30.6941 52.8892 30.9445C52.8886 31.5649 53.0103 32.1792 53.2474 32.7524C53.4845 33.3256 53.8323 33.8464 54.2709 34.2851C54.7095 34.7237 55.2304 35.0715 55.8036 35.3086C56.3768 35.5457 56.9911 35.6674 57.6114 35.6668L58.5559 35.6668L58.5559 38.5001C58.5559 39.2516 58.2574 39.9723 57.726 40.5036C57.1946 41.035 56.474 41.3335 55.7225 41.3335Z" fill="rgb(0,0,0)" fill-rule="nonzero" />
			<path id="Vector" d="M32.1119 28.1109L30.223 28.1109C29.9725 28.1109 29.7323 28.2104 29.5551 28.3875C29.378 28.5646 29.2785 28.8049 29.2785 29.0554C29.2785 29.3058 29.378 29.5461 29.5551 29.7232C29.7323 29.9003 29.9725 29.9998 30.223 29.9998L32.1119 29.9998C32.3624 29.9998 32.6026 29.9003 32.7797 29.7232C32.9568 29.5461 33.0563 29.3058 33.0563 29.0554C33.0563 28.8049 32.9568 28.5646 32.7797 28.3875C32.6026 28.2104 32.3624 28.1109 32.1119 28.1109ZM14.1673 28.1109L12.2784 28.1109C12.028 28.1109 11.7877 28.2104 11.6106 28.3875C11.4335 28.5646 11.334 28.8049 11.334 29.0554C11.334 29.3058 11.4335 29.5461 11.6106 29.7232C11.7877 29.9003 12.028 29.9998 12.2784 29.9998L14.1673 29.9998C14.4178 29.9998 14.658 29.9003 14.8352 29.7232C15.0123 29.5461 15.1118 29.3058 15.1118 29.0554C15.1118 28.8049 15.0123 28.5646 14.8352 28.3875C14.658 28.2104 14.4178 28.1109 14.1673 28.1109ZM46.2786 37.5554C45.7182 37.5554 45.1704 37.7216 44.7045 38.0329C44.2386 38.3442 43.8754 38.7867 43.6609 39.3045C43.4465 39.8222 43.3904 40.3919 43.4997 40.9415C43.609 41.4911 43.8789 41.996 44.2751 42.3922C44.6714 42.7885 45.1762 43.0583 45.7259 43.1677C46.2755 43.277 46.8452 43.2209 47.3629 43.0064C47.8806 42.792 48.3231 42.4288 48.6345 41.9629C48.9458 41.4969 49.112 40.9491 49.112 40.3887C49.112 39.6373 48.8135 38.9166 48.2821 38.3853C47.7507 37.8539 47.0301 37.5554 46.2786 37.5554ZM46.2786 41.3332C46.0918 41.3332 45.9092 41.2778 45.7539 41.174C45.5986 41.0703 45.4775 40.9227 45.4061 40.7502C45.3346 40.5776 45.3159 40.3877 45.3523 40.2045C45.3888 40.0213 45.4787 39.853 45.6108 39.7209C45.7429 39.5888 45.9112 39.4989 46.0944 39.4624C46.2776 39.426 46.4675 39.4447 46.64 39.5162C46.8126 39.5877 46.9601 39.7087 47.0639 39.864C47.1677 40.0194 47.2231 40.202 47.2231 40.3887C47.2231 40.6392 47.1236 40.8795 46.9464 41.0566C46.7693 41.2337 46.5291 41.3332 46.2786 41.3332ZM14.1673 37.5554C13.607 37.5554 13.0592 37.7216 12.5932 38.0329C12.1273 38.3442 11.7641 38.7867 11.5497 39.3045C11.3352 39.8222 11.2791 40.3919 11.3884 40.9415C11.4978 41.4911 11.7676 41.996 12.1639 42.3922C12.5601 42.7885 13.065 43.0583 13.6146 43.1677C14.1642 43.277 14.7339 43.2209 15.2516 43.0064C15.7693 42.792 16.2118 42.4288 16.5232 41.9629C16.8345 41.4969 17.0007 40.9491 17.0007 40.3887C17.0007 39.6373 16.7022 38.9166 16.1708 38.3853C15.6395 37.8539 14.9188 37.5554 14.1673 37.5554ZM14.1673 41.3332C13.9805 41.3332 13.7979 41.2778 13.6426 41.174C13.4873 41.0703 13.3663 40.9227 13.2948 40.7502C13.2233 40.5776 13.2046 40.3877 13.241 40.2045C13.2775 40.0213 13.3674 39.853 13.4995 39.7209C13.6316 39.5888 13.7999 39.4989 13.9831 39.4624C14.1663 39.426 14.3562 39.4447 14.5288 39.5162C14.7013 39.5877 14.8488 39.7087 14.9526 39.864C15.0564 40.0194 15.1118 40.202 15.1118 40.3887C15.1118 40.6392 15.0123 40.8795 14.8352 41.0566C14.658 41.2337 14.4178 41.3332 14.1673 41.3332ZM26.4452 15.8331L25.9541 15.8331C23.1208 15.8254 20.3508 16.6707 18.0045 18.2589C15.6582 19.8472 13.8443 22.1049 12.7988 24.7383L12.3455 25.8716C12.2882 26.0149 12.267 26.1701 12.2836 26.3236C12.3002 26.477 12.3541 26.624 12.4407 26.7518C12.5273 26.8796 12.6438 26.9842 12.7802 27.0565C12.9165 27.1287 13.0685 27.1665 13.2229 27.1665L26.4452 27.1665C26.6957 27.1665 26.9359 27.067 27.113 26.8898C27.2901 26.7127 27.3896 26.4725 27.3896 26.222L27.3896 16.7775C27.3896 16.527 27.2901 16.2868 27.113 16.1097C26.9359 15.9326 26.6957 15.8331 26.4452 15.8331ZM25.5007 25.2776L14.6197 25.2776C15.5169 23.1073 17.0201 21.2414 18.9498 19.903C20.8794 18.5646 23.1537 17.8104 25.5007 17.7305L25.5007 25.2776ZM43.8684 24.7373C43.084 22.7712 41.8667 21.007 40.3069 19.5759C40.1225 19.4063 39.8783 19.3169 39.6281 19.3274C39.3778 19.3378 39.1419 19.4473 38.9724 19.6316C38.8028 19.816 38.7134 20.0602 38.7238 20.3104C38.7343 20.5607 38.8437 20.7966 39.0281 20.9661C40.337 22.166 41.3679 23.6375 42.0484 25.2776L31.1674 25.2776L31.1674 17.7305C32.9918 17.7989 34.7782 18.2725 36.3968 19.1169C36.5068 19.1743 36.627 19.2095 36.7505 19.2205C36.8741 19.2315 36.9986 19.218 37.117 19.1809C37.2353 19.1437 37.3452 19.0837 37.4403 19.0041C37.5354 18.9244 37.614 18.8269 37.6714 18.7169C37.7288 18.607 37.764 18.4868 37.775 18.3632C37.786 18.2397 37.7725 18.1152 37.7354 17.9968C37.6982 17.8785 37.6381 17.7686 37.5585 17.6735C37.4789 17.5783 37.3814 17.4998 37.2714 17.4424C35.2467 16.3867 32.9974 15.8347 30.7141 15.8331L30.223 15.8331C29.9725 15.8331 29.7323 15.9326 29.5551 16.1097C29.378 16.2868 29.2785 16.527 29.2785 16.7775L29.2785 26.222C29.2785 26.4725 29.378 26.7127 29.5551 26.8898C29.7323 27.067 29.9725 27.1665 30.223 27.1665L43.4453 27.1665C43.5996 27.1665 43.7516 27.1287 43.888 27.0565C44.0243 26.9842 44.1409 26.8796 44.2275 26.7518C44.314 26.624 44.368 26.477 44.3846 26.3236C44.4012 26.1701 44.3799 26.0149 44.3227 25.8716L43.8684 24.7373Z" fill="rgb(0,0,0)" fill-rule="nonzero" />
		</g>
	</g>
</svg>
