<svg viewBox="0 0 100 100" xmlns="http://www.w3.org/2000/svg" xmlns:xlink="http://www.w3.org/1999/xlink" width="100.000000" height="100.000000" fill="none" customFrame="#000000">
	<rect id="icon/низкие цены" width="100.000000" height="100.000000" x="0.000000" y="0.000000" />
	<g id="Group 10">
		<g id="Group">
			<path id="Vector" d="M99.8535 59.5703C99.7281 59.3003 99.5282 59.0718 99.2774 58.9116C99.0265 58.7514 98.7351 58.6662 98.4375 58.666L88.916 58.666L88.916 25.3555C88.916 24.4922 88.2168 23.793 87.3535 23.793L65.7871 23.793C58.6054 16.1973 48.5586 11.8535 38.1035 11.8535C17.0918 11.8535 0 28.9668 0 50.0019C0 71.0351 17.0918 88.1465 38.1015 88.1465C48.5078 88.1465 58.4277 83.8847 65.5996 76.3984L75.0351 87.5918C75.332 87.9433 75.7695 88.1465 76.2304 88.1465C76.6914 88.1465 77.1289 87.9433 77.4258 87.5898L99.6328 61.2344C100.023 60.7715 100.111 60.1211 99.8535 59.5703ZM52.8301 61.2363L58.5879 68.0722C53.3965 73.9765 46.0039 77.3398 38.1035 77.3398C23.0488 77.3398 10.7988 65.0761 10.7988 50.0039C10.7988 34.9316 23.0469 22.666 38.1015 22.666C49.2929 22.666 59.4804 29.6484 63.5449 40.0664L63.5449 58.666L54.0234 58.666C53.416 58.666 52.8633 59.0176 52.6074 59.5703C52.3515 60.123 52.4375 60.7715 52.8301 61.2363ZM38.1015 85.0215C18.8164 85.0215 3.125 69.3125 3.125 50.0019C3.125 30.6894 18.8164 14.9766 38.1015 14.9766C47.7129 14.9766 56.9512 18.9766 63.5449 25.9707L63.5449 33.2793C61.4492 30.0859 58.7636 27.3027 55.584 25.0664C50.4472 21.4512 44.4023 19.541 38.1015 19.541C21.3223 19.541 7.67187 33.207 7.67187 50.0019C7.67187 66.7969 21.3223 80.4629 38.1015 80.4629C46.75 80.4629 54.8535 76.8476 60.6211 70.4844L63.5742 73.9902C56.9726 81.0175 47.7656 85.0215 38.1015 85.0215ZM76.2304 84.1601L66.3203 72.4043L57.3828 61.7929L65.1074 61.7929C65.9707 61.7929 66.6699 61.0937 66.6699 60.2304L66.6699 26.918L85.789 26.918L85.789 60.2304C85.789 61.0937 86.4882 61.7929 87.3515 61.7929L95.0761 61.7929L76.2304 84.1601Z" fill="rgb(255,255,255)" fill-rule="nonzero" />
		</g>
		<g id="Group">
			<path id="Vector" d="M41.862 54.7521C48.5133 54.7521 53.9062 49.3598 53.9062 42.7078C53.9062 36.0559 48.5133 30.6636 41.862 30.6636L29.0144 30.6636C28.5709 30.6636 28.2122 31.0229 28.2122 31.4663L28.2122 53.1454L25.8034 53.1454C25.3599 53.1454 25 53.5053 25 53.95C25 54.3922 25.3599 54.7521 25.8034 54.7521L28.2122 54.7521L28.2122 57.9631L25.8034 57.9631C25.3599 57.9631 25 58.323 25 58.7677C25 59.2099 25.3599 59.5698 25.8034 59.5698L28.2122 59.5698L28.2122 68.4031C28.2122 68.8453 28.571 69.2052 29.0144 69.2052C29.4577 69.2052 29.8177 68.8453 29.8177 68.4031L29.8177 59.5698L43.4675 59.5698C43.9109 59.5698 44.2708 59.2099 44.2708 58.7677C44.2708 58.3231 43.9109 57.9631 43.4675 57.9631L29.8177 57.9631L29.8177 54.7521L41.862 54.7521ZM29.8177 32.2697L41.862 32.2697C43.2722 32.2697 44.639 32.5455 45.9246 33.0889C47.1678 33.6146 48.284 34.3674 49.2426 35.3267C50.2024 36.2858 50.9552 37.4026 51.4809 38.6453C52.0243 39.9308 52.3007 41.2981 52.3007 42.7078C52.3007 44.1175 52.0243 45.4849 51.4809 46.7704C50.9552 48.0131 50.2024 49.1299 49.2426 50.0891C48.284 51.0483 47.1678 51.801 45.9246 52.3268C44.639 52.8702 43.2722 53.1454 41.862 53.1454L29.8177 53.1454L29.8177 32.2697Z" fill="rgb(255,255,255)" fill-rule="nonzero" />
			<path id="Vector" d="M54.1064 45.4549C54.3063 44.5615 54.4062 43.6459 54.4062 42.7078C54.4062 41.7697 54.3063 40.854 54.1064 39.9606C53.9438 39.2339 53.715 38.522 53.4202 37.8248C53.1216 37.1191 52.7653 36.4513 52.3512 35.8215C51.8848 35.112 51.345 34.4507 50.7319 33.8377C50.1189 33.2246 49.4577 32.6849 48.7482 32.2185C48.1184 31.8044 47.4505 31.4481 46.7447 31.1496C46.0472 30.8545 45.3349 30.6257 44.6078 30.4631C43.7149 30.2634 42.7996 30.1636 41.862 30.1636L29.0144 30.1636C28.8341 30.1636 28.6672 30.1955 28.5134 30.2593C28.3602 30.3229 28.2201 30.4183 28.0932 30.5453C27.9666 30.6721 27.8715 30.812 27.808 30.965C27.7441 31.1188 27.7122 31.2859 27.7122 31.4663L27.7122 52.6454L25.8034 52.6454C25.6236 52.6454 25.4571 52.6772 25.3036 52.7407C25.1497 52.8044 25.0091 52.9 24.8816 53.0276C24.7547 53.1546 24.6594 53.2948 24.5958 53.4482C24.5319 53.6022 24.5 53.7694 24.5 53.95C24.5 54.1286 24.5315 54.2943 24.5944 54.447C24.6581 54.6014 24.7539 54.7427 24.882 54.8706C25.0096 54.998 25.1503 55.0936 25.3043 55.1571C25.4576 55.2205 25.6239 55.2521 25.8034 55.2521L27.7122 55.2521L27.7122 57.4631L25.8034 57.4631C25.6236 57.4631 25.4571 57.4949 25.3036 57.5584C25.1498 57.6221 25.0091 57.7177 24.8816 57.8453C24.7547 57.9723 24.6594 58.1125 24.5958 58.2659C24.5319 58.4199 24.5 58.5871 24.5 58.7677C24.5 58.9463 24.5315 59.112 24.5944 59.2647C24.6581 59.4192 24.7539 59.5604 24.882 59.6883C25.0096 59.8158 25.1503 59.9113 25.3043 59.9748C25.4576 60.0382 25.6239 60.0698 25.8034 60.0698L27.7122 60.0698L27.7122 68.4031C27.7122 68.5823 27.7438 68.7485 27.8071 68.9016C27.8706 69.0553 27.966 69.196 28.0933 69.3234C28.2206 69.4508 28.3611 69.5463 28.5148 69.61C28.6681 69.6735 28.8347 69.7052 29.0144 69.7052C29.1937 69.7052 29.36 69.6736 29.5132 69.6103C29.6672 69.5467 29.808 69.4512 29.9357 69.3237C30.0638 69.1957 30.1597 69.0545 30.2234 68.8999C30.2863 68.7473 30.3177 68.5816 30.3177 68.4031L30.3177 60.0698L43.4675 60.0698C43.6469 60.0698 43.8133 60.0382 43.9666 59.9748C44.1205 59.9113 44.2612 59.8158 44.3888 59.6883C44.5169 59.5604 44.6128 59.4192 44.6764 59.2647C44.7394 59.112 44.7708 58.9463 44.7708 58.7677C44.7708 58.5872 44.7389 58.42 44.6751 58.2661C44.6115 58.1127 44.5162 57.9724 44.3892 57.8453C44.2617 57.7177 44.121 57.622 43.9671 57.5583C43.8137 57.4948 43.6471 57.4631 43.4675 57.4631L30.3177 57.4631L30.3177 55.2521L41.862 55.2521C42.7996 55.2521 43.7148 55.1523 44.6077 54.9526C45.3349 54.79 46.0472 54.5611 46.7447 54.2661C47.4507 53.9675 48.1186 53.6111 48.7485 53.197C49.4578 52.7306 50.119 52.1909 50.7319 51.578C51.3451 50.9649 51.8849 50.3035 52.3514 49.5939C52.7654 48.9642 53.1217 48.2965 53.4202 47.5908C53.7151 46.8936 53.9438 46.1816 54.1064 45.4549ZM29.8177 55.2521L29.8177 54.7521L41.862 54.7521C48.5133 54.7521 53.9062 49.3598 53.9062 42.7078C53.9062 36.0559 48.5133 30.6636 41.862 30.6636L29.0144 30.6636C28.5709 30.6636 28.2122 31.0229 28.2122 31.4663L28.2122 53.1454L25.8034 53.1454C25.3599 53.1454 25 53.5053 25 53.95C25 54.3922 25.3599 54.7521 25.8034 54.7521L28.2122 54.7521L28.2122 57.9631L25.8034 57.9631C25.3599 57.9631 25 58.323 25 58.7677C25 59.2099 25.3599 59.5698 25.8034 59.5698L28.2122 59.5698L28.2122 68.4031C28.2122 68.8453 28.571 69.2052 29.0144 69.2052C29.4577 69.2052 29.8177 68.8453 29.8177 68.4031L29.8177 59.5698L43.4675 59.5698C43.9109 59.5698 44.2708 59.2099 44.2708 58.7677C44.2708 58.3231 43.9109 57.9631 43.4675 57.9631L29.8177 57.9631L29.8177 55.2521ZM30.3177 32.7697L41.862 32.7697C42.6231 32.7697 43.3652 32.8524 44.0885 33.018C44.6469 33.1458 45.194 33.3229 45.7299 33.5495C46.2855 33.7844 46.8113 34.0646 47.3075 34.3901C47.8733 34.7612 48.4004 35.1912 48.8889 35.6801C49.3759 36.1668 49.8046 36.6918 50.1749 37.2552C50.5024 37.7535 50.7842 38.2818 51.0204 38.8401C51.2515 39.3867 51.4312 39.9449 51.5597 40.5147C51.7204 41.2276 51.8007 41.9587 51.8007 42.7078C51.8007 43.4558 51.7206 44.1857 51.5604 44.8976C51.4319 45.4686 51.2519 46.028 51.0204 46.5758C50.7839 47.1347 50.5016 47.6636 50.1737 48.1624C49.8037 48.725 49.3755 49.2494 48.8892 49.7354C48.4001 50.2248 47.8723 50.6553 47.3058 51.0267C46.8101 51.3518 46.2848 51.6316 45.7298 51.8663C45.2058 52.0878 44.6707 52.2621 44.1247 52.3891C43.3903 52.56 42.6361 52.6454 41.862 52.6454L30.3177 52.6454L30.3177 32.7697ZM29.8177 32.7697L29.8177 32.2697L41.862 32.2697C43.2722 32.2697 44.639 32.5455 45.9246 33.0889C47.1678 33.6146 48.284 34.3674 49.2426 35.3267C50.2024 36.2858 50.9552 37.4026 51.4809 38.6453C52.0243 39.9308 52.3007 41.2981 52.3007 42.7078C52.3007 44.1175 52.0243 45.4849 51.4809 46.7704C50.9552 48.0131 50.2024 49.1299 49.2426 50.0891C48.284 51.0483 47.1678 51.801 45.9246 52.3268C44.639 52.8702 43.2722 53.1454 41.862 53.1454L29.8177 53.1454L29.8177 32.7697Z" fill="rgb(255,255,255)" fill-rule="evenodd" />
		</g>
	</g>
</svg>
