<svg width="20" height="20" viewBox="0 0 20 20" fill="none" xmlns="http://www.w3.org/2000/svg">
<path d="M6 8.73829H14M6 12.1074H10.8M6 5.36915H12.4M18 13.792C18 14.2388 17.8314 14.6673 17.5314 14.9832C17.2313 15.2991 16.8243 15.4766 16.4 15.4766H5.8624C5.43809 15.4767 5.03119 15.6542 4.7312 15.9702L2.9696 17.8249C2.89016 17.9085 2.78896 17.9654 2.67879 17.9885C2.56862 18.0116 2.45443 17.9997 2.35065 17.9545C2.24687 17.9092 2.15816 17.8326 2.09575 17.7343C2.03333 17.6359 2.00001 17.5203 2 17.4021V3.68457C2 3.2378 2.16857 2.80932 2.46863 2.4934C2.76869 2.17748 3.17565 2 3.6 2H16.4C16.8243 2 17.2313 2.17748 17.5314 2.4934C17.8314 2.80932 18 3.2378 18 3.68457V13.792Z" stroke="white" stroke-width="0.5" stroke-linecap="round" stroke-linejoin="round"/>
</svg>
