<svg viewBox="0 0 60 60" xmlns="http://www.w3.org/2000/svg" xmlns:xlink="http://www.w3.org/1999/xlink" width="60.000000" height="60.000000" fill="none" customFrame="#000000">
	<rect id="icon/опасные грузы" width="60.000000" height="60.000000" x="0.000000" y="0.000000" />
	<g id="Group">
		<path id="Vector" d="M59.6113 9.68235C59.6113 9.54118 59.5524 9.4 59.4583 9.28235L51.976 0.247059C51.8466 0.0941176 51.6583 0 51.4583 0L8.51715 0C8.31715 0 8.12892 0.0941176 7.99951 0.247059L0.528918 9.28235C0.423035 9.4 0.387741 9.56471 0.375977 9.71765L0.375977 59.3294C0.375977 59.7059 0.681859 60 1.04656 60L58.9407 60C59.3172 60 59.6113 59.6941 59.6113 59.3294C59.6348 59.3176 59.623 9.69412 59.6113 9.68235ZM8.84657 1.35294L51.1524 1.35294L53.4113 4.07059L6.58774 4.07059L8.84657 1.35294ZM5.47009 5.42353L54.5172 5.42353L57.5054 9.04706L2.48186 9.04706L5.47009 5.42353ZM58.2701 58.6471L1.71715 58.6471L1.71715 10.3882L58.2701 10.3882L58.2701 58.6471ZM6.62304 21.4588L19.8819 21.4588C20.6701 21.4588 21.3054 20.8235 21.3054 20.0353L21.3054 16.6824C21.3054 15.8941 20.6701 15.2588 19.8819 15.2588L6.62304 15.2588C5.8348 15.2588 5.19951 15.8941 5.19951 16.6824L5.19951 20.0353C5.19951 20.8235 5.84656 21.4588 6.62304 21.4588ZM6.55245 16.6824C6.54068 16.4706 19.8113 16.6824 19.8819 16.6118C19.9172 16.6118 19.9524 16.6471 19.9524 16.6824L19.9524 20.0353C19.9524 20.0706 19.9172 20.1059 19.8819 20.1059L6.62304 20.1059C6.58774 20.1059 6.55245 20.0706 6.55245 20.0353L6.55245 16.6824ZM6.62304 28.9294L12.5054 28.9294C13.2936 28.9294 13.9289 28.2941 13.9289 27.5059L13.9289 24.9412C13.9289 24.1529 13.2936 23.5176 12.5054 23.5176L6.62304 23.5176C5.8348 23.5176 5.19951 24.1529 5.19951 24.9412L5.19951 27.5059C5.19951 28.2941 5.84656 28.9294 6.62304 28.9294ZM6.55245 24.9412C6.55245 24.9059 6.58774 24.8706 6.62304 24.8706L12.5054 24.8706C12.5407 24.8706 12.576 24.9059 12.576 24.9412L12.576 27.5059C12.576 27.5412 12.5407 27.5765 12.5054 27.5765L6.62304 27.5765C6.58774 27.5765 6.55245 27.5412 6.55245 27.5059L6.55245 24.9412ZM37.7289 17.0118C37.7289 16.6353 38.0348 16.3412 38.3995 16.3412L54.2113 16.3412C54.5877 16.3412 54.8819 16.6471 54.8819 17.0118C54.8819 17.3765 54.576 17.6824 54.2113 17.6824L38.3995 17.6824C38.023 17.6941 37.7289 17.3882 37.7289 17.0118ZM54.8819 21.2471C54.8819 21.6235 54.576 21.9176 54.2113 21.9176L42.7524 21.9176C42.376 21.9176 42.0819 21.6118 42.0819 21.2471C42.0819 20.8824 42.3877 20.5765 42.7524 20.5765L54.2113 20.5765C54.5877 20.5647 54.8819 20.8706 54.8819 21.2471ZM11.5642 53.5765C12.5995 55.3765 14.4701 56.4588 16.5524 56.4588L43.4583 56.4588C45.5407 56.4588 47.3995 55.3765 48.4466 53.5765C49.4819 51.7765 49.4819 49.6235 48.4466 47.8235L34.9995 24.5294C33.9642 22.7294 32.0936 21.6471 30.0113 21.6471C27.9289 21.6471 26.0701 22.7176 25.023 24.5294L11.576 47.8235C10.5172 49.6235 10.5172 51.7765 11.5642 53.5765ZM12.7289 48.4941L26.176 25.2C27.7289 22.2941 32.2701 22.2941 33.8113 25.2L47.2583 48.4941C48.0583 49.8706 48.0583 51.5176 47.2583 52.9059C46.4583 54.2824 45.0348 55.1176 43.4348 55.1176L16.5407 55.1176C13.2583 55.2235 10.976 51.2941 12.7289 48.4941ZM16.5407 53.5176L43.4466 53.5176C45.5524 53.5882 46.9995 51.0824 45.8819 49.2941L32.4348 26C31.4466 24.1412 28.5407 24.1412 27.5524 26L14.1054 49.2941C12.9995 51.0706 14.4466 53.5882 16.5407 53.5176ZM15.2701 49.9647L28.7172 26.6706C29.2348 25.7059 30.7407 25.7059 31.2583 26.6706L44.7054 49.9647C44.976 50.4235 44.976 50.9765 44.7054 51.4353C44.4348 51.8941 43.9642 52.1647 43.4348 52.1647L16.5407 52.1647C15.4466 52.2 14.6936 50.8941 15.2701 49.9647ZM28.2701 43.7294C28.576 45.6706 31.4113 45.6706 31.7172 43.7294L33.1172 34.8706C33.6348 31.7647 29.5995 29.9059 27.576 32.3176C26.976 33.0235 26.7054 33.9529 26.8583 34.8706L28.2701 43.7294ZM28.6113 33.1882C29.7524 31.8588 32.1172 32.8824 31.7877 34.6588L30.3877 43.5176C30.3289 43.9529 29.6583 43.9529 29.5995 43.5176L28.1995 34.6588C28.1172 34.1294 28.2701 33.5882 28.6113 33.1882ZM29.9995 45.5176C26.7289 45.6 26.7289 50.3882 29.9995 50.4706C33.2583 50.3882 33.2583 45.6 29.9995 45.5176ZM29.9995 49.1176C28.5172 49.0941 28.5172 46.8824 29.9995 46.8588C31.4819 46.8941 31.4819 49.0941 29.9995 49.1176Z" fill="rgb(0,0,0)" fill-rule="nonzero" />
	</g>
</svg>
