<svg viewBox="0 0 50 60.0005" xmlns="http://www.w3.org/2000/svg" xmlns:xlink="http://www.w3.org/1999/xlink" width="50.000000" height="60.000488" fill="none" customFrame="#000000">
	<g id="Group 8">
		<path id="Vector" d="M15 43.0004L13 43.0004C12.7348 43.0004 12.4804 43.1057 12.2929 43.2933C12.1054 43.4808 12 43.7352 12 44.0004C12 44.2656 12.1054 44.52 12.2929 44.7075C12.4804 44.895 12.7348 45.0004 13 45.0004L15 45.0004C15.2652 45.0004 15.5196 44.895 15.7071 44.7075C15.8947 44.52 16 44.2656 16 44.0004C16 43.7352 15.8947 43.4808 15.7071 43.2933C15.5196 43.1057 15.2652 43.0004 15 43.0004ZM43.0002 43.0004L19 43.0004C18.7348 43.0004 18.4805 43.1057 18.2929 43.2933C18.1054 43.4808 18 43.7352 18 44.0004C18 44.2656 18.1054 44.52 18.2929 44.7075C18.4805 44.895 18.7348 45.0004 19 45.0004L43.0002 45.0004C43.2654 45.0004 43.5197 44.895 43.7073 44.7075C43.8948 44.52 44.0002 44.2656 44.0002 44.0004C44.0002 43.7352 43.8948 43.4808 43.7073 43.2933C43.5197 43.1057 43.2654 43.0004 43.0002 43.0004ZM15 37.0003L13 37.0003C12.7348 37.0003 12.4804 37.1057 12.2929 37.2932C12.1054 37.4808 12 37.7351 12 38.0004C12 38.2656 12.1054 38.5199 12.2929 38.7075C12.4804 38.895 12.7348 39.0004 13 39.0004L15 39.0004C15.2652 39.0004 15.5196 38.895 15.7071 38.7075C15.8947 38.5199 16 38.2656 16 38.0004C16 37.7351 15.8947 37.4808 15.7071 37.2932C15.5196 37.1057 15.2652 37.0003 15 37.0003ZM43.0002 37.0003L19 37.0003C18.7348 37.0003 18.4805 37.1057 18.2929 37.2932C18.1054 37.4808 18 37.7351 18 38.0004C18 38.2656 18.1054 38.5199 18.2929 38.7075C18.4805 38.895 18.7348 39.0004 19 39.0004L43.0002 39.0004C43.2654 39.0004 43.5197 38.895 43.7073 38.7075C43.8948 38.5199 44.0002 38.2656 44.0002 38.0004C44.0002 37.7351 43.8948 37.4808 43.7073 37.2932C43.5197 37.1057 43.2654 37.0003 43.0002 37.0003ZM15 31.0003L13 31.0003C12.7348 31.0003 12.4804 31.1057 12.2929 31.2932C12.1054 31.4807 12 31.7351 12 32.0003C12 32.2655 12.1054 32.5199 12.2929 32.7074C12.4804 32.895 12.7348 33.0003 13 33.0003L15 33.0003C15.2652 33.0003 15.5196 32.895 15.7071 32.7074C15.8947 32.5199 16 32.2655 16 32.0003C16 31.7351 15.8947 31.4807 15.7071 31.2932C15.5196 31.1057 15.2652 31.0003 15 31.0003ZM43.0002 31.0003L19 31.0003C18.7348 31.0003 18.4805 31.1057 18.2929 31.2932C18.1054 31.4807 18 31.7351 18 32.0003C18 32.2655 18.1054 32.5199 18.2929 32.7074C18.4805 32.895 18.7348 33.0003 19 33.0003L43.0002 33.0003C43.2654 33.0003 43.5197 32.895 43.7073 32.7074C43.8948 32.5199 44.0002 32.2655 44.0002 32.0003C44.0002 31.7351 43.8948 31.4807 43.7073 31.2932C43.5197 31.1057 43.2654 31.0003 43.0002 31.0003ZM15 25.0003L13 25.0003C12.7348 25.0003 12.4804 25.1056 12.2929 25.2932C12.1054 25.4807 12 25.7351 12 26.0003C12 26.2655 12.1054 26.5199 12.2929 26.7074C12.4804 26.8949 12.7348 27.0003 13 27.0003L15 27.0003C15.2652 27.0003 15.5196 26.8949 15.7071 26.7074C15.8947 26.5199 16 26.2655 16 26.0003C16 25.7351 15.8947 25.4807 15.7071 25.2932C15.5196 25.1056 15.2652 25.0003 15 25.0003ZM43.0002 25.0003L19 25.0003C18.7348 25.0003 18.4805 25.1056 18.2929 25.2932C18.1054 25.4807 18 25.7351 18 26.0003C18 26.2655 18.1054 26.5199 18.2929 26.7074C18.4805 26.8949 18.7348 27.0003 19 27.0003L43.0002 27.0003C43.2654 27.0003 43.5197 26.8949 43.7073 26.7074C43.8948 26.5199 44.0002 26.2655 44.0002 26.0003C44.0002 25.7351 43.8948 25.4807 43.7073 25.2932C43.5197 25.1056 43.2654 25.0003 43.0002 25.0003ZM15 19.0002L13 19.0002C12.7348 19.0002 12.4804 19.1056 12.2929 19.2931C12.1054 19.4807 12 19.735 12 20.0002C12 20.2655 12.1054 20.5198 12.2929 20.7074C12.4804 20.8949 12.7348 21.0003 13 21.0003L15 21.0003C15.2652 21.0003 15.5196 20.8949 15.7071 20.7074C15.8947 20.5198 16 20.2655 16 20.0002C16 19.735 15.8947 19.4807 15.7071 19.2931C15.5196 19.1056 15.2652 19.0002 15 19.0002ZM43.0002 19.0002L19 19.0002C18.7348 19.0002 18.4805 19.1056 18.2929 19.2931C18.1054 19.4807 18 19.735 18 20.0002C18 20.2655 18.1054 20.5198 18.2929 20.7074C18.4805 20.8949 18.7348 21.0003 19 21.0003L43.0002 21.0003C43.2654 21.0003 43.5197 20.8949 43.7073 20.7074C43.8948 20.5198 44.0002 20.2655 44.0002 20.0002C44.0002 19.735 43.8948 19.4807 43.7073 19.2931C43.5197 19.1056 43.2654 19.0002 43.0002 19.0002Z" fill="rgb(0,0,0)" fill-rule="nonzero" />
		<path id="Vector" d="M49.9873 14.9373C49.9823 14.8497 49.9651 14.7632 49.9363 14.6803C49.9253 14.6483 49.9173 14.6173 49.9033 14.5863C49.8546 14.4775 49.7869 14.3783 49.7033 14.2933L35.7032 0.293246C35.6182 0.209645 35.519 0.141912 35.4102 0.0932447C35.3792 0.0792446 35.3482 0.0712445 35.3172 0.0602445C35.2336 0.0314866 35.1465 0.0139993 35.0582 0.00824419C35.0412 0.0112442 35.0222 0.000244141 35.0002 0.000244141L7.00004 0.000244141C6.73482 0.000244141 6.48047 0.105602 6.29293 0.293139C6.10539 0.480676 6.00003 0.735032 6.00003 1.00025L6.00003 4.00027L1.00001 4.00027C0.734788 4.00027 0.480432 4.10562 0.292895 4.29316C0.105358 4.4807 0 4.73505 0 5.00027L0 59.0006C0 59.2658 0.105358 59.5201 0.292895 59.7077C0.480432 59.8952 0.734788 60.0006 1.00001 60.0006L43.0002 60.0006C43.2655 60.0006 43.5198 59.8952 43.7074 59.7077C43.8949 59.5201 44.0002 59.2658 44.0002 59.0006L44.0002 54.0005L49.0003 54.0005C49.2655 54.0005 49.5198 53.8952 49.7074 53.7077C49.8949 53.5201 50.0003 53.2658 50.0003 53.0005L50.0003 15.0003C50.0003 14.9783 49.9893 14.9593 49.9873 14.9373ZM36.0002 3.41426L46.5863 14.0003L36.0002 14.0003L36.0002 3.41426ZM42.0002 58.0006L2.00001 58.0006L2.00001 6.00028L6.00003 6.00028L6.00003 53.0005C6.00003 53.2658 6.10539 53.5201 6.29293 53.7077C6.48047 53.8952 6.73482 54.0005 7.00004 54.0005L42.0002 54.0005L42.0002 58.0006ZM48.0003 52.0005L8.00004 52.0005L8.00004 2.00026L34.0002 2.00026L34.0002 15.0003C34.0002 15.2655 34.1055 15.5199 34.2931 15.7074C34.4806 15.895 34.735 16.0003 35.0002 16.0003L48.0003 16.0003L48.0003 52.0005Z" fill="rgb(0,0,0)" fill-rule="nonzero" />
		<path id="Vector" d="M19 9.00024L13 9.00024C12.7348 9.00024 12.4804 9.1056 12.2929 9.29314C12.1054 9.48068 12 9.73503 12 10.0002L12 16.0003C12 16.2655 12.1054 16.5199 12.2929 16.7074C12.4804 16.8949 12.7348 17.0003 13 17.0003L19 17.0003C19.2653 17.0003 19.5196 16.8949 19.7072 16.7074C19.8947 16.5199 20 16.2655 20 16.0003L20 10.0002C20 9.73503 19.8947 9.48068 19.7072 9.29314C19.5196 9.1056 19.2653 9.00024 19 9.00024ZM18 15.0003L14 15.0003L14 11.0003L18 11.0003L18 15.0003Z" fill="rgb(0,0,0)" fill-rule="nonzero" />
		<path id="Union" />
	</g>
</svg>
