<svg viewBox="0 0 58 59.9497" xmlns="http://www.w3.org/2000/svg" xmlns:xlink="http://www.w3.org/1999/xlink" width="58.000000" height="59.949707" fill="none" customFrame="#000000">
	<g id="Group">
		<path id="Vector" d="M57.923 14.0516L54.1009 6.40729L54.1009 1.70588C54.1009 0.76521 53.3357 0 52.395 0L30.9496 0C30.0089 0 29.2437 0.76521 29.2437 1.70588L29.2437 6.40729L25.4216 14.0516C25.371 14.153 25.3446 14.2648 25.3446 14.3781L25.3446 38.9916L19.0084 38.9916L19.0084 30.4349C19.0133 29.0661 18.655 27.7205 17.97 26.5355C17.285 25.3504 16.2978 24.3683 15.1093 23.6893L15.1093 20.958L15.8404 20.958C16.0343 20.958 16.2202 20.881 16.3573 20.7438C16.4944 20.6067 16.5715 20.4208 16.5715 20.2269L16.5715 18.2773C16.571 17.5665 16.2884 16.885 15.7858 16.3824C15.2831 15.8797 14.6016 15.5971 13.8908 15.5966L5.11769 15.5966C4.40689 15.5971 3.72536 15.8797 3.22274 16.3824C2.72013 16.885 2.43754 17.5665 2.43702 18.2773L2.43702 20.2269C2.43702 20.6304 2.76455 20.958 3.16812 20.958L3.89921 20.958L3.89921 23.6893C2.71067 24.3683 1.72354 25.3504 1.03853 26.5355C0.35353 27.7205 -0.00482072 29.0661 4.89769e-05 30.4349L4.89769e-05 56.2941C0.00133852 57.2632 0.38688 58.1922 1.07213 58.8775C1.75739 59.5627 2.68642 59.9483 3.65551 59.9496L15.353 59.9496C15.7877 59.9496 16.2127 59.8433 16.629 59.6825C17.053 59.8531 17.5151 59.9496 17.9995 59.9496L26.3535 59.9496C26.6674 59.9496 26.9666 59.8979 27.2581 59.8238C27.5067 59.8989 27.7611 59.9496 28.0252 59.9496L55.3194 59.9496C56.0302 59.949 56.7117 59.6665 57.2143 59.1638C57.7169 58.6612 57.9995 57.9797 58 57.2689L58 14.3781C58 14.2648 57.9737 14.153 57.923 14.0516ZM50.2017 1.46218L52.395 1.46218C52.4596 1.46218 52.5216 1.48786 52.5673 1.53356C52.613 1.57926 52.6387 1.64125 52.6387 1.70588L52.6387 5.84874L50.2017 5.84874L50.2017 1.46218ZM46.3026 1.46218L48.7395 1.46218L48.7395 5.84874L46.3026 5.84874L46.3026 1.46218ZM42.4034 1.46218L44.8404 1.46218L44.8404 3.62622C44.1259 3.35328 43.2456 3.18464 42.4034 3.08228L42.4034 1.46218ZM44.6415 5.11765C44.0108 5.43153 42.3118 5.84874 39.7227 5.84874C37.1337 5.84874 35.4356 5.43153 34.8039 5.11765C35.4346 4.80376 37.1337 4.38655 39.7227 4.38655C42.3118 4.38655 44.0098 4.80376 44.6415 5.11765ZM38.5042 1.46218L40.9412 1.46218L40.9412 2.95849C40.4012 2.93022 39.9576 2.92437 39.7227 2.92437C39.4878 2.92437 39.0443 2.93022 38.5042 2.95849L38.5042 1.46218ZM34.6051 1.46218L37.0421 1.46218L37.0421 3.08326C36.1998 3.18464 35.3196 3.35425 34.6051 3.62719L34.6051 1.46218ZM34.6051 6.60907C36.31 7.26121 38.9897 7.31092 39.7227 7.31092C40.4558 7.31092 43.1364 7.26023 44.8413 6.6081L44.8413 8.51576C44.7409 8.85499 43.0126 9.7479 39.7227 9.7479C36.4328 9.7479 34.7055 8.85499 34.6051 8.52941L34.6051 6.60907ZM30.7059 1.70588C30.7059 1.64125 30.7316 1.57926 30.7773 1.53356C30.823 1.48786 30.885 1.46218 30.9496 1.46218L33.1429 1.46218L33.1429 5.84874L30.7059 5.84874L30.7059 1.70588ZM30.4262 7.31092L33.1429 7.31092L33.1429 8.52941C33.1429 10.3718 36.5537 11.2101 39.7227 11.2101C42.8918 11.2101 46.3026 10.3718 46.3026 8.52941L46.3026 7.31092L52.1874 7.31092L49.0193 13.6471L27.2581 13.6471L30.4262 7.31092ZM30.1415 40.4538L29.7029 44.8403L14.6502 44.8403L14.2115 40.4538L30.1415 40.4538ZM3.89921 18.2773C3.89921 17.6057 4.44606 17.0588 5.11769 17.0588L13.8908 17.0588C14.5624 17.0588 15.1093 17.6057 15.1093 18.2773L15.1093 19.4958L3.89921 19.4958L3.89921 18.2773ZM13.6471 20.958L13.6471 23.395L5.36139 23.395L5.36139 20.958L13.6471 20.958ZM1.46223 30.4349C1.45941 29.2865 1.77153 28.1592 2.36463 27.1758C2.95774 26.1924 3.80914 25.3904 4.82623 24.8571L14.1823 24.8571C15.1994 25.3904 16.0508 26.1924 16.6439 27.1758C17.237 28.1592 17.5491 29.2865 17.5463 30.4349L17.5463 33.1428L1.46223 33.1428L1.46223 30.4349ZM1.46223 34.605L17.5463 34.605L17.5463 38.9916L13.4034 38.9916C13.3013 38.9916 13.2002 39.0131 13.1069 39.0545C13.0135 39.096 12.9299 39.1566 12.8614 39.2323C12.7929 39.3081 12.741 39.3974 12.7091 39.4944C12.6772 39.5915 12.666 39.6941 12.6762 39.7958L13.5711 48.7395L1.46223 48.7395L1.46223 34.605ZM3.65551 58.4874C2.44677 58.4874 1.46223 57.5028 1.46223 56.2941L1.46223 50.2017L13.7163 50.2017L14.3616 56.6577C14.4278 57.3212 14.6742 57.9539 15.0742 58.4874L3.65551 58.4874ZM26.3535 58.4874L17.9995 58.4874C17.4553 58.489 16.9301 58.2876 16.5265 57.9225C16.1229 57.5575 15.8699 57.0551 15.817 56.5134L14.7964 46.3025L29.5566 46.3025L28.536 56.5134C28.4831 57.0551 28.2302 57.5575 27.8266 57.9225C27.4229 58.2876 26.8977 58.489 26.3535 58.4874ZM29.2779 58.4874C29.6648 57.9707 29.9222 57.3459 29.9904 56.6577L31.6768 39.7958C31.687 39.6941 31.6758 39.5915 31.6439 39.4944C31.612 39.3974 31.5602 39.3081 31.4917 39.2323C31.4231 39.1566 31.3395 39.096 31.2461 39.0545C31.1528 39.0131 31.0518 38.9916 30.9496 38.9916L26.8068 38.9916L26.8068 15.1092L48.7395 15.1092L48.7395 57.2689C48.7395 57.7095 48.8565 58.1199 49.0466 58.4874L29.2779 58.4874ZM56.5378 57.2689C56.5378 57.9405 55.991 58.4874 55.3194 58.4874L51.4202 58.4874C50.7486 58.4874 50.2017 57.9405 50.2017 57.2689L50.2017 14.5507L53.3698 8.21455L56.5378 14.5507L56.5378 57.2689Z" fill="rgb(0,0,0)" fill-rule="nonzero" />
		<path id="Vector" d="M42.1786 28.3661C42.0356 28.2038 41.8847 28.0486 41.7263 27.9011L42.3824 25.278C42.4081 25.184 42.4149 25.0858 42.4022 24.9892C42.3894 24.8926 42.3575 24.7995 42.3083 24.7154C42.2591 24.6313 42.1936 24.5579 42.1157 24.4995C42.0377 24.4411 41.9488 24.3988 41.8543 24.3753C41.7598 24.3517 41.6615 24.3472 41.5652 24.3622C41.4689 24.3771 41.3766 24.4112 41.2936 24.4623C41.2107 24.5134 41.1388 24.5806 41.0822 24.6599C41.0256 24.7392 40.9854 24.8291 40.9641 24.9241L40.4464 26.9955C39.6383 26.5676 38.7337 26.32 37.7745 26.32C36.8153 26.32 35.9107 26.5676 35.1026 26.9955L34.585 24.9241C34.5636 24.8291 34.5235 24.7392 34.4669 24.6599C34.4103 24.5806 34.3384 24.5134 34.2555 24.4623C34.1725 24.4112 34.0802 24.3771 33.9839 24.3622C33.8876 24.3472 33.7893 24.3517 33.6948 24.3753C33.6003 24.3988 33.5114 24.4411 33.4334 24.4995C33.3554 24.5579 33.2899 24.6313 33.2407 24.7154C33.1915 24.7995 33.1596 24.8926 33.1469 24.9892C33.1342 25.0858 33.1409 25.184 33.1667 25.278L33.8227 27.9011C33.6648 28.0473 33.5137 28.2033 33.3704 28.3661C31.4365 29.0221 28.4712 30.3235 28.7802 32.0752C28.9449 33.0119 29.9509 33.6095 31.7572 33.862C31.8196 34.3143 31.9258 34.7588 32.0769 35.1925C31.5183 35.8037 31.1957 36.5163 31.1957 37.2854C31.1957 39.6083 34.0859 41.4283 37.7755 41.4283C41.4651 41.4283 44.3553 39.6083 44.3553 37.2854C44.3553 36.5153 44.0327 35.8037 43.4741 35.1925C43.6252 34.7588 43.7315 34.3143 43.7939 33.862C45.6002 33.6095 46.6061 33.0119 46.7709 32.0761C47.0809 30.3244 44.1155 29.0221 42.1806 28.3671L42.1786 28.3661ZM31.7055 32.3754C30.6176 32.1892 30.2521 31.9007 30.2189 31.8276C30.2258 31.693 30.6264 31.1267 32.1325 30.4239C31.897 31.0504 31.7532 31.7077 31.7055 32.3754ZM37.7736 27.7812C40.3265 27.7812 42.4038 30.0768 42.4038 32.8989C42.4038 33.3492 42.3434 33.7908 42.2371 34.2226C41.0723 33.551 39.5145 33.1426 37.7736 33.1426C36.0326 33.1426 34.4759 33.551 33.31 34.2226C33.2012 33.7897 33.1452 33.3452 33.1433 32.8989C33.1433 30.0768 35.2206 27.7812 37.7736 27.7812ZM37.7736 39.9661C34.7576 39.9661 32.6559 38.5536 32.6559 37.2854C32.6559 36.0172 34.7576 34.6047 37.7736 34.6047C40.7896 34.6047 42.8912 36.0172 42.8912 37.2854C42.8912 38.5536 40.7896 39.9661 37.7736 39.9661ZM43.8416 32.3744C43.7939 31.7068 43.6501 31.0495 43.4147 30.4229C44.9217 31.1257 45.3214 31.6891 45.3301 31.8149C45.296 31.8978 44.9295 32.1873 43.8416 32.3744Z" fill="rgb(0,0,0)" fill-rule="nonzero" />
	</g>
</svg>
