<svg viewBox="0 0 60 60" xmlns="http://www.w3.org/2000/svg" xmlns:xlink="http://www.w3.org/1999/xlink" width="60.000000" height="60.000000" fill="none" customFrame="#000000">
	<rect id="icon/безнал" width="60.000000" height="60.000000" x="0.000000" y="0.000000" />
	<g id="Group">
		<path id="Vector" d="M58.9335 11.3472C58.1561 10.4282 57.0674 9.86687 55.8678 9.76667L13.6153 6.23865C12.4156 6.13846 11.2491 6.51146 10.33 7.28876C9.41466 8.06301 8.85415 9.14617 8.7508 10.3399L7.90072 18.3152L4.50641 18.3152C2.02159 18.3152 0 20.3368 0 22.8216L0 49.2709C0 51.7557 2.02159 53.7773 4.50641 53.7773L46.9061 53.7773C49.391 53.7773 51.4126 51.7557 51.4126 49.2709L51.4126 44.9803L52.9172 45.1059C53.0441 45.1165 53.1703 45.1218 53.2954 45.1218C55.612 45.1218 57.5868 43.3395 57.783 40.9901L59.9839 14.6326C60.0839 13.433 59.7109 12.2663 58.9335 11.3472ZM4.50641 20.6589L46.9061 20.6589C48.0986 20.6589 49.0689 21.6291 49.0689 22.8216L49.0689 25.2317L2.34373 25.2317L2.34373 22.8216C2.34373 21.6291 3.31392 20.6589 4.50641 20.6589ZM2.34373 27.5754L49.0689 27.5754L49.0689 32.4374L2.34373 32.4374L2.34373 27.5754ZM46.9061 51.4336L4.50641 51.4336C3.31392 51.4336 2.34373 50.4634 2.34373 49.2709L2.34373 34.7811L49.0689 34.7811L49.0689 49.2709C49.0689 50.4634 48.0986 51.4336 46.9061 51.4336ZM57.6482 14.4375L55.4473 40.795C55.3481 41.9834 54.3003 42.8699 53.1121 42.7703L51.4126 42.6284L51.4126 22.8216C51.4126 20.3368 49.391 18.3152 46.9061 18.3152L10.2578 18.3152L11.0827 10.5762C11.0836 10.5673 11.0845 10.5585 11.0852 10.5495C11.1844 9.36109 12.2316 8.47469 13.4203 8.5743L55.6729 12.1023C56.2486 12.1504 56.7712 12.4198 57.1442 12.8609C57.5172 13.302 57.6963 13.8618 57.6482 14.4375Z" fill="rgb(27,29,31)" fill-rule="evenodd" />
		<path id="Vector" d="M44.165 38.2656L32.8867 38.2656C32.2395 38.2656 31.7148 38.7903 31.7148 39.4375L31.7148 46.7956C31.7148 47.4428 32.2395 47.9674 32.8867 47.9674L44.165 47.9674C44.8123 47.9674 45.3369 47.4428 45.3369 46.7956L45.3369 39.4375C45.3369 38.7903 44.8123 38.2656 44.165 38.2656ZM42.9932 45.6237L34.0586 45.6237L34.0586 40.6094L42.9932 40.6094L42.9932 45.6237Z" fill="rgb(27,29,31)" fill-rule="evenodd" />
	</g>
</svg>
