<svg viewBox="0 0 60 60" xmlns="http://www.w3.org/2000/svg" xmlns:xlink="http://www.w3.org/1999/xlink" width="60.000000" height="60.000000" fill="none" customFrame="#000000">
	<rect id="icon/наличка" width="60.000000" height="60.000000" x="0.000000" y="0.000000" />
	<g id="Group 16">
		<path id="Vector" d="M55.9997 27.001L54 27.001L54 11.0013C54 10.4486 53.5521 10.0014 52.9999 10.0014L46.9428 10.0014L44.9543 3.70135C44.9131 3.57148 44.8459 3.45134 44.7568 3.34826C44.6677 3.24517 44.5586 3.1613 44.4361 3.10173C44.3133 3.04235 44.1797 3.00869 44.0434 3.00283C43.9072 2.99697 43.7711 3.01903 43.6437 3.06766L35.5 6.17117L31.8422 0.462435C31.771 0.351001 31.6783 0.254833 31.5696 0.179525C31.4609 0.104216 31.3383 0.0512681 31.209 0.0237602C31.0799 -0.00522333 30.9464 -0.00771804 30.8163 0.0164272C30.6863 0.0405724 30.5625 0.0908552 30.4525 0.164231L15.4383 10.0014L6.99983 10.0014C3.13599 10.0057 0.00474878 13.1373 0 17.0011L0 53.0001C0.00474878 56.8638 3.13593 59.9955 6.99983 60L52.9999 60C53.5521 60 54 59.5521 54 58.9998L54 47.0001L55.9997 47.0001C58.2091 47.0001 60 45.2093 60 43.0007L60 31.0009C60 28.7913 58.2091 27.001 55.9997 27.001ZM55.9997 29.0008C57.1044 29.0008 57.9999 29.8957 57.9999 31.0009C57.9999 32.1053 57.1044 33.0005 55.9997 33.0005L54.0001 33.0005L54.0001 29.0008L55.9997 29.0008ZM51.9998 12.0014L51.9998 22.0009L50.733 22.0009L47.5751 12.0014L51.9998 12.0014ZM48.6365 22.0009L45.7214 22.0009L42.9489 13.685C42.8826 13.4858 42.7553 13.3125 42.585 13.1897C42.4147 13.0669 42.21 13.0008 42.0001 13.0009C41.4972 13.0025 40.9989 12.9043 40.5343 12.712C40.0696 12.5196 39.6477 12.237 39.2931 11.8804L38.7067 11.2941C38.5715 11.1588 38.4004 11.0652 38.2136 11.0242C38.0268 10.9832 37.8322 10.9967 37.6528 11.0629L8.06619 22.0009L6.99983 22.0009C6.33976 22.0009 5.68626 21.8698 5.07728 21.6151C4.46829 21.3605 3.91595 20.9875 3.4523 20.5177L43.3664 5.31846L48.6365 22.0009ZM43.6134 22.0009L13.8322 22.0009L37.7463 13.1608L37.8787 13.2942C38.7898 14.2105 39.9817 14.7951 41.2641 14.9546L43.6134 22.0009ZM30.7001 2.39225L33.5869 6.90105L10.2633 15.783L30.7001 2.39225ZM6.99983 12.0014L12.3853 12.0014L2.29141 18.6146C2.105 18.0968 2.00655 17.5514 2.00013 17.0011C2.00366 14.2412 4.24015 12.0042 6.99983 12.0015L6.99983 12.0014ZM51.9997 57.9996L6.99983 57.9996C4.24015 57.9964 2.00366 55.7597 2.00013 53L2.00013 21.9009C2.00963 21.9097 2.01996 21.9179 2.02901 21.928C2.10717 22.0059 2.18989 22.0776 2.27139 22.1518C2.35206 22.2258 2.43908 22.3105 2.52808 22.3847C2.61728 22.4588 2.70328 22.5185 2.791 22.5847C2.87898 22.6509 2.97325 22.7266 3.069 22.7932C3.165 22.8587 3.25805 22.9096 3.35225 22.968C3.44652 23.0261 3.54683 23.0918 3.65207 23.148C3.75731 23.2036 3.8571 23.2477 3.9601 23.2988C4.06316 23.3495 4.16044 23.3989 4.2662 23.4468C4.37228 23.4946 4.49357 23.5317 4.60715 23.5725C4.72119 23.6137 4.80718 23.6527 4.91248 23.6844C5.03807 23.7247 5.16763 23.753 5.29675 23.7847C5.39705 23.8084 5.48824 23.839 5.58604 23.8589C5.73319 23.8897 5.88611 23.9075 6.03525 23.9288C6.119 23.94 6.20043 23.9576 6.2854 23.9667C6.52258 23.9902 6.76117 24.0015 6.99983 24.0013L8.30061 24.0013L8.31486 24.0393L8.4219 24.0013L51.9997 24.0013L51.9997 33.0005L40.9998 33.0005C37.1344 33.0005 34 36.1344 34 40.0004C34 43.8662 37.1344 47.0001 40.9998 47.0001L51.9997 47.0001L51.9997 57.9996ZM57.9998 43.0006C57.9998 44.105 57.1044 45.0002 55.9997 45.0002L40.9998 45.0002C38.2387 45.0002 36.0001 42.7617 36.0001 40.0004C36.0001 37.2388 38.2387 35.0008 40.9998 35.0008L55.9997 35.0008C56.2413 34.9982 56.481 34.9737 56.7181 34.9276C56.7748 34.918 56.8312 34.9064 56.8871 34.893C57.1132 34.8439 57.3346 34.7751 57.5489 34.6876L57.583 34.6714C57.7259 34.6104 57.8651 34.541 57.9999 34.4636L57.9998 43.0006Z" fill="rgb(27,29,31)" fill-rule="nonzero" />
		<path id="Vector" d="M21.5717 27.001L25.572 27.001L25.572 29.0008L21.5717 29.0008L21.5717 27.001ZM13.5722 27.001L17.572 27.001L17.572 29.0008L13.5722 29.0008L13.5722 27.001ZM45.5718 27.001L48.9993 27.001L48.9993 29.0008L45.5718 29.0008L45.5718 27.001ZM37.572 27.001L41.5718 27.001L41.5718 29.0008L37.572 29.0008L37.572 27.001ZM5.81957 26.8608L5.35156 28.8007C5.8912 28.9315 6.44428 28.9986 6.99952 29.0008L9.57169 29.0008L9.57169 27.001L6.99952 27.001C6.60211 27 6.20615 26.953 5.81957 26.8608ZM29.5718 27.001L33.5718 27.001L33.5718 29.0008L29.5718 29.0008L29.5718 27.001ZM5.81957 52.8599L5.35156 54.7996C5.89116 54.9306 6.44425 54.9979 6.99952 55.0002L9.57169 55.0002L9.57169 53.0001L6.99952 53.0001C6.6021 52.9992 6.20613 52.9522 5.81957 52.8599ZM45.5718 53.0001L48.9993 53.0001L48.9993 55.0002L45.5718 55.0002L45.5718 53.0001ZM21.5717 53.0001L25.572 53.0001L25.572 55.0002L21.5717 55.0002L21.5717 53.0001ZM37.572 53.0001L41.5718 53.0001L41.5718 55.0002L37.572 55.0002L37.572 53.0001ZM13.5722 53.0001L17.572 53.0001L17.572 55.0002L13.5722 55.0002L13.5722 53.0001ZM29.5718 53.0001L33.5718 53.0001L33.5718 55.0002L29.5718 55.0002L29.5718 53.0001ZM40.9995 37.0007C39.3428 37.0007 37.9994 38.3435 37.9994 40.0004C37.9994 41.6568 39.3428 43.0007 40.9995 43.0007C42.6562 43.0007 43.9994 41.6568 43.9994 40.0004C43.9994 38.3435 42.6562 37.0007 40.9995 37.0007ZM40.9995 41.0006C40.4476 41.0006 39.9996 40.5527 39.9996 40.0004C39.9996 39.4479 40.4475 39.0005 40.9995 39.0005C41.5518 39.0005 41.9997 39.4479 41.9997 40.0004C41.9997 40.5526 41.5518 41.0006 40.9995 41.0006Z" fill="rgb(27,29,31)" fill-rule="nonzero" />
		<line id="Line 5" x1="4" x2="50" y1="28" y2="28" stroke="rgb(27,29,31)" stroke-width="2.000000" />
		<line id="Line 6" x1="4" x2="50" y1="54" y2="54" stroke="rgb(27,29,31)" stroke-width="2.000000" />
	</g>
</svg>
