<svg viewBox="0 0 161 161" xmlns="http://www.w3.org/2000/svg" xmlns:xlink="http://www.w3.org/1999/xlink" width="161.000000" height="161.000000" opacity="0.25" fill="none">
	<defs>
		<linearGradient id="paint_linear_0" x1="13.2307758" x2="162.114273" y1="99.1003723" y2="124.09581" gradientUnits="userSpaceOnUse">
			<stop stop-color="rgb(154,193,117)" offset="0" stop-opacity="1" />
			<stop stop-color="rgb(42,98,43)" offset="1" stop-opacity="1" />
		</linearGradient>
	</defs>
	<rect id="icon/route" width="161.000000" height="161.000000" x="0.000000" y="0.000000" />
	<g id="Group">
		<path id="Vector" d="M108.532 78.1838L108.532 82.8162C108.532 84.1397 107.477 85.1763 106.175 85.1763L99.1916 85.1763C91.4475 85.1763 85.1558 91.4711 85.1558 99.2056C85.1558 106.955 91.4314 113.235 99.1739 113.235L136.632 113.235C149.532 113.235 160 123.719 160 136.617C160 149.526 149.517 159.999 136.613 159.999L59.4405 159.999C58.1679 159.999 57.1039 158.943 57.1039 157.639L57.1039 153.006C57.1039 151.683 58.1499 150.646 59.4405 150.646L136.613 150.646C144.355 150.646 150.649 144.358 150.649 136.617C150.649 128.881 144.365 122.588 136.631 122.588L99.1736 122.588C86.2661 122.588 75.8051 112.119 75.8051 99.2056C75.8051 86.3058 86.2825 75.8233 99.1916 75.8233L106.175 75.8233C107.497 75.8236 108.532 76.8801 108.532 78.1838ZM36.6051 159.009C35.7831 159.651 34.7701 160 33.7272 160C32.6842 160 31.6712 159.651 30.8493 159.009C30.3998 158.653 29.956 158.291 29.518 157.921C28.3872 156.971 27.2771 155.996 26.1882 154.998C22.7621 151.863 19.3379 148.364 16.1314 144.572C6.71825 133.441 1 122.09 1 110.897C1 92.8179 15.6523 78.1617 33.7273 78.1617C51.8023 78.1617 66.4546 92.8176 66.4546 110.897C66.4546 122.09 60.7364 133.441 51.3229 144.572C48.1164 148.364 44.6922 151.863 41.2662 154.998C40.1773 155.996 39.0671 156.971 37.9364 157.921C37.4984 158.291 37.0546 158.654 36.6051 159.009ZM33.7273 127.265C42.7648 127.265 50.091 119.937 50.091 110.897C50.091 101.857 42.7648 94.5294 33.7273 94.5294C24.6898 94.5294 17.3637 101.857 17.3637 110.897C17.3637 119.937 24.6898 127.265 33.7273 127.265ZM33.7273 117.912C29.8542 117.912 26.7144 114.771 26.7144 110.897C26.7144 107.023 29.8542 103.882 33.7273 103.882C37.6004 103.882 40.7402 107.023 40.7402 110.897C40.7402 114.771 37.6004 117.912 33.7273 117.912ZM130.112 81.8473C129.29 82.4895 128.277 82.8383 127.234 82.8383C126.191 82.8383 125.178 82.4895 124.356 81.8473C123.906 81.4918 123.463 81.1292 123.025 80.7597C121.894 79.8092 120.784 78.8345 119.695 77.8363C116.269 74.7016 112.845 71.2021 109.638 67.4103C100.225 56.2791 94.5063 44.9286 94.5063 33.7353C94.5063 15.6562 109.159 1 127.234 1C145.309 1 159.961 15.6562 159.961 33.7353C159.961 44.9286 154.243 56.2791 144.829 67.4103C141.623 71.2021 138.198 74.7016 134.772 77.8363C133.684 78.8345 132.573 79.8092 131.443 80.7597C131.005 81.1293 130.561 81.4919 130.112 81.8473ZM127.234 50.1029C136.271 50.1029 143.597 42.775 143.597 33.7353C143.597 24.6956 136.271 17.3676 127.234 17.3676C118.196 17.3676 110.87 24.6956 110.87 33.7353C110.87 42.775 118.196 50.1029 127.234 50.1029ZM127.234 40.7502C123.36 40.7502 120.221 37.6097 120.221 33.7356C120.221 29.8615 123.36 26.721 127.234 26.721C131.107 26.721 134.246 29.8615 134.246 33.7356C134.246 37.6097 131.107 40.7502 127.234 40.7502Z" fill="url(#paint_linear_0)" fill-rule="evenodd" />
	</g>
</svg>
