<svg viewBox="0 0 91 38" xmlns="http://www.w3.org/2000/svg" xmlns:xlink="http://www.w3.org/1999/xlink" width="91.000000" height="38.000000" fill="none">
	<rect id="Logo" width="91.000000" height="38.000000" x="0.000000" y="0.000000" fill="rgb(255,255,255)" fill-opacity="0" />
	<path id="Vector" d="M51.5547 27.6972L51.5547 26.1176L56.468 26.1176L56.468 27.6972L51.5547 27.6972ZM86.6641 25.095C86.4624 25.0811 86.2601 25.1113 86.0714 25.1834C85.8827 25.2555 85.7121 25.3678 85.5718 25.5124C85.3076 25.8209 85.1294 26.1929 85.0551 26.5912L88.2543 26.5912C88.2036 26.1999 88.0293 25.8346 87.7564 25.5479C87.6149 25.4026 87.445 25.2876 87.2572 25.2097C87.0694 25.1319 86.8676 25.0928 86.6641 25.095ZM91.0018 28.1459L84.9647 28.1459C84.9816 28.6258 85.1385 29.0906 85.4164 29.4835C85.6831 29.8362 86.1096 30.0261 86.6998 30.049L86.7544 30.049C86.7544 30.0615 86.7544 30.0678 86.7544 30.0678L86.7818 30.0678C87.1245 30.0715 87.4629 29.9912 87.7669 29.8341C88.0737 29.6679 88.3271 29.4191 88.4979 29.1162L90.6132 29.9509C90.3119 30.587 89.7899 31.0937 89.1428 31.3783C88.4762 31.6825 87.7527 31.8446 87.0191 31.8541L86.8091 31.8541C86.1337 31.8414 85.4663 31.7078 84.8387 31.4597C84.2425 31.2373 83.7137 30.8665 83.3032 30.3829C83.0107 30.0424 82.7758 29.6569 82.6079 29.2414C82.4353 28.8279 82.3344 28.3884 82.3096 27.9414L82.3096 27.7431C82.3068 27.7015 82.3068 27.6596 82.3096 27.6179C82.3156 27.5694 82.3247 27.5213 82.3369 27.474C82.3342 27.4323 82.3342 27.3904 82.3369 27.3487C82.3396 27.3064 82.3396 27.2638 82.3369 27.2215C82.3792 26.6792 82.5324 26.1512 82.787 25.6697C83.0416 25.1882 83.3924 24.7634 83.8178 24.421C84.6368 23.7517 85.6666 23.3898 86.7271 23.3985C86.954 23.3984 87.1807 23.413 87.4056 23.4423C87.6336 23.4741 87.8595 23.5194 88.082 23.578C89.215 23.9007 89.974 24.4843 90.3591 25.3288C90.7647 26.2144 90.9834 27.1731 91.0018 28.1459ZM72.1532 31.5578L72.1532 23.676L74.7012 23.676L74.7012 25.2745C75.0317 24.7354 75.4648 24.2654 75.9763 23.891C76.4922 23.5524 77.1019 23.3831 77.7198 23.4068L78.0622 23.4068C78.0957 23.4036 78.1295 23.4036 78.163 23.4068C78.1958 23.4102 78.2289 23.4102 78.2617 23.4068C78.6617 23.4557 79.0483 23.5811 79.4003 23.7762C79.7564 23.9679 80.0556 24.2493 80.2678 24.5921C80.4337 24.8861 80.5407 25.2093 80.5829 25.5437C80.6249 25.8797 80.6522 26.2198 80.6648 26.5683L80.6648 31.5411L77.8647 31.5411L77.8647 27.3383C77.8647 27.2423 77.8647 27.1463 77.8647 27.0503C77.8647 26.9543 77.8647 26.8542 77.8647 26.7457C77.8285 26.5309 77.7679 26.3209 77.6841 26.1196C77.6032 25.9199 77.4546 25.7545 77.2639 25.6522C77.2059 25.6256 77.1454 25.6046 77.0833 25.5896C77.0145 25.5728 76.944 25.5637 76.8732 25.5625C76.8258 25.5508 76.7771 25.5451 76.7283 25.5458L76.4762 25.5458C76.433 25.5458 76.3899 25.5514 76.3481 25.5625C76.2968 25.5631 76.2456 25.5666 76.1947 25.5729C76.1492 25.5767 76.1041 25.5851 76.0603 25.5979C75.8675 25.6502 75.6891 25.7454 75.5388 25.8763C75.3885 26.0072 75.2702 26.1703 75.1928 26.3534C75.0478 26.7145 74.9619 27.0963 74.9386 27.4844C74.9281 27.6159 74.9218 27.7452 74.9218 27.8704L74.9218 31.5598L72.1532 31.5578ZM67.2021 21.2345C67.2247 20.8293 67.3887 20.4446 67.6658 20.1464C67.943 19.8482 68.316 19.6552 68.7208 19.6006L68.7754 19.6006C68.9789 19.6036 69.1793 19.6501 69.363 19.7368C69.5468 19.8236 69.7096 19.9487 69.8404 20.1035C70.1371 20.4062 70.3029 20.8121 70.3026 21.2345C70.3135 21.4334 70.2784 21.6321 70.2001 21.8155C70.1219 21.9989 70.0024 22.162 69.8509 22.2925C69.5689 22.5386 69.213 22.6854 68.8384 22.7099L68.6578 22.7099C68.2832 22.6854 67.9273 22.5386 67.6453 22.2925C67.4953 22.1612 67.3775 21.9977 67.3007 21.8144C67.2239 21.6311 67.1901 21.4327 67.2021 21.2345ZM67.3659 31.5578L67.3659 23.676L70.1849 23.676L70.1849 31.5578L67.3659 31.5578ZM58.5287 31.5578L58.5287 20.1202L61.6796 20.1202L61.6796 28.8846L65.5636 28.8846L65.5636 31.5598L58.5287 31.5578ZM43.9106 27.3383L43.9106 24.949L50.0549 24.949L50.0549 25.8275C50.043 26.3388 50.0002 26.8488 49.9268 27.355C49.8522 27.8597 49.7065 28.3514 49.494 28.8157C49.0189 29.7658 48.2535 30.5422 47.3073 31.034C46.3898 31.5223 45.3673 31.7836 44.3266 31.7956L44.0556 31.7956C42.8664 31.7621 41.7057 31.4266 40.6841 30.8211C39.6374 30.2168 38.833 29.2717 38.4071 28.1459C38.3357 27.9539 38.2684 27.764 38.2075 27.572C38.1478 27.3775 38.1001 27.1796 38.0647 26.9794C38.0269 26.7874 37.9975 26.5954 37.9744 26.4055C37.9492 26.2146 37.9366 26.0222 37.9366 25.8296C37.9324 24.4535 38.4016 23.1172 39.2662 22.0421C40.1404 20.9106 41.4292 20.168 42.8519 19.9762C42.8974 19.9795 42.943 19.9795 42.9885 19.9762C43.0338 19.9696 43.0786 19.9605 43.1229 19.9491C43.1564 19.9524 43.1902 19.9524 43.2238 19.9491C43.2503 19.9463 43.277 19.9463 43.3036 19.9491C43.4611 19.924 43.6145 19.9073 43.7657 19.8948C43.917 19.8823 44.064 19.876 44.2068 19.876C45.1963 19.8708 46.1725 20.102 47.0531 20.5501C47.9527 21.0086 48.7236 21.6819 49.2966 22.5095L46.5658 23.7825C46.3118 23.4519 46.0002 23.1692 45.6457 22.9478C45.3268 22.751 44.9788 22.6052 44.6143 22.5158L44.3161 22.4803C44.2178 22.468 44.1189 22.4618 44.0199 22.4615C43.6309 22.4643 43.2465 22.5463 42.8907 22.7025C42.5348 22.8586 42.2149 23.0855 41.9508 23.3693C41.3416 23.9744 41.037 24.7911 41.037 25.8192L41.037 25.8379C41.0394 25.8571 41.0459 25.8756 41.0559 25.8922L41.0559 25.9631C41.0336 26.8371 41.2927 27.6954 41.7953 28.413C42.2883 29.1086 43.0473 29.4564 44.0724 29.4564L44.1459 29.4919C44.8082 29.4961 45.4566 29.3027 46.007 28.9368C46.2834 28.7586 46.5182 28.5238 46.6957 28.2481C46.8733 27.9725 46.9894 27.6622 47.0363 27.3383L43.9106 27.3383Z" fill="rgb(0,100,34)" fill-rule="nonzero" />
	<path id="Vector" d="M43.468 17.5727L40.7708 18.1007C40.0398 17.6833 38.7479 17.7417 37.5884 17.6624C36.4289 17.5831 36.0487 17.5331 35.2777 16.7422L35.1748 16.6378C38.29 14.1734 41.9828 12.1012 45.9068 11.2832C44.3397 13.4993 43.699 14.7431 43.4659 17.5727" fill="rgb(255,255,255)" fill-rule="evenodd" />
	<path id="Vector" d="M18.4306 25.2833C18.7121 24.8451 19.9515 23.4866 20.8757 22.2471L0 26.7545L13.6938 26.2119C15.3239 32.6433 23.8397 34.6153 23.8397 34.6153L23.6044 31.0324L25.495 30.5524C24.5541 30.3819 23.6429 30.0776 22.7894 29.6488C21.3736 28.9289 19.1322 26.5187 18.4285 25.2833" fill="rgb(142,195,107)" fill-rule="evenodd" />
	<path id="Vector" d="M20.7541 14.5428C22.4156 14.0003 23.5436 15.3441 24.9826 15.5716C24.6003 14.4907 21.8128 8.63102 21.1868 7.94238L21.4746 11.8697C17.559 12.5604 14.53 14.7619 13.2822 18.3616L16.6432 19.4279C17.2734 17.5102 18.7186 15.2085 20.7604 14.5428" fill="rgb(0,100,34)" fill-rule="evenodd" />
	<path id="Vector" d="M24.34 11.7794L25.1676 13.5364C28.2744 13.2297 31.5829 15.4729 32.9167 16.6666C33.8914 17.5451 33.1268 18.361 32.8327 19.6423L40.7709 18.0918C40.0399 17.6745 38.748 17.7329 37.5885 17.6536C36.4289 17.5743 36.0487 17.5242 35.2778 16.7333C34.9501 16.3974 34.5594 15.9842 34.4082 15.8381C32.5176 13.9976 28.1169 11.4121 24.3379 11.771" fill="rgb(142,195,107)" fill-rule="evenodd" />
	<path id="Vector" d="M27.6375 21.7065C27.4439 21.7129 27.2526 21.664 27.0861 21.5656C26.9197 21.4672 26.7852 21.3235 26.6985 21.1514L22.2872 22.1301L22.2158 21.8109L26.6271 20.8301C26.633 20.6894 26.6746 20.5525 26.748 20.4321C26.8215 20.3117 26.9244 20.2117 27.0472 20.1414L25.4318 16.8569L25.728 16.7129L27.3539 20.0162C27.4439 19.9942 27.5363 19.983 27.6291 19.9829C27.7981 19.9797 27.9655 20.0171 28.1169 20.0919C28.2683 20.1668 28.3993 20.2768 28.4987 20.4127L32.0697 19.6177L32.1411 19.939L28.6205 20.7216C28.6283 20.7621 28.6318 20.8034 28.631 20.8447C28.6258 21.0036 28.5758 21.1579 28.4867 21.29C28.3976 21.422 28.2729 21.5266 28.1269 21.5917L30.0174 25.4272L29.7213 25.5712L27.8118 21.6919C27.752 21.701 27.6917 21.7059 27.6312 21.7065" fill="rgb(255,255,255)" fill-rule="evenodd" />
	<path id="Vector" d="M23.2217 6.9385C23.2049 8.53696 23.2616 7.96101 22.4508 8.5453C22.2197 8.04865 21.7261 5.04789 21.5769 4.39473C21.3795 4.51785 20.8396 4.7307 20.5749 4.8559C18.7642 5.70939 19.1045 5.16683 18.7579 6.3709C18.6772 6.78067 18.5634 7.18332 18.4176 7.57496C18.3084 7.8045 18.2433 7.94849 18.1088 7.62713C18.0451 7.4038 18.0057 7.17434 17.9912 6.94267C17.903 6.40011 17.9387 6.4022 17.861 6.25404C17.7573 6.04324 17.6431 5.83778 17.5186 5.63844C17.2392 5.25239 16.7371 5.04163 16.3548 4.62427C16.1784 4.43229 16.2561 4.34882 16.4977 4.38012C16.5586 4.38012 16.6405 4.41142 16.8065 4.45107C17.0606 4.51159 17.2917 4.58254 17.548 4.64931C18.8987 5.00198 18.4785 5.06667 19.8145 4.04832C20.1779 3.77496 20.5392 3.57045 20.8648 3.28874C20.5707 2.84009 18.2664 0.928611 17.6782 0.532126L18.4617 0C18.9428 0.258759 19.4259 0.52169 19.8775 0.784623L20.5077 1.14772C20.5552 1.0579 20.6316 0.986416 20.7246 0.944649C20.8177 0.902882 20.9222 0.893225 21.0214 0.917211C21.1206 0.941197 21.209 0.997452 21.2723 1.07703C21.3357 1.15661 21.3704 1.25494 21.3711 1.3564C21.3711 1.43714 21.3494 1.51641 21.3081 1.58594C21.7282 1.80922 22.1273 2.02625 22.5054 2.21197C22.9287 2.04242 23.3346 1.83278 23.7174 1.58594C24.3777 1.17942 25.0663 0.820283 25.7781 0.511257C26.5322 0.173201 27.4754 0.275451 26.8431 1.01208C26.5301 1.37309 25.6857 1.86557 25.2572 2.15563C24.8287 2.44569 23.6754 3.16145 23.2385 3.61637C23.2385 4.03372 23.2049 4.45107 23.207 4.86842C23.3184 4.88147 23.4211 4.93468 23.4956 5.01796C23.5701 5.10123 23.6113 5.20878 23.6113 5.32021C23.6113 5.43163 23.5701 5.53918 23.4956 5.62246C23.4211 5.70574 23.3184 5.75895 23.207 5.77199C23.207 6.20187 23.207 6.63174 23.207 6.94684" fill="rgb(255,255,255)" fill-rule="evenodd" />
	<path id="Vector" d="M7.93164 11.2598C9.40206 7.45566 16.2941 3.04841 18.7938 1.75879L19.3778 2.31804L16.3172 3.93529C13.536 5.4941 10.4776 7.74155 8.54502 10.3667C8.33496 10.6609 8.12489 11.0324 7.94634 11.2598" fill="rgb(255,255,255)" fill-rule="evenodd" />
	<path id="Vector" d="M11.7314 14.8724C13.0149 12.3933 19.6822 7.18262 21.6694 5.99316L21.8395 6.8383C20.722 7.14089 15.3592 11.281 14.1219 12.4058C13.2103 13.2405 12.1117 14.4926 11.7314 14.8724Z" fill="rgb(255,255,255)" fill-rule="evenodd" />
	<path id="Vector" d="M43.0689 11.7092C40.8801 12.1495 37.4372 14.3594 35.5361 15.7075L35.7126 14.8728C35.7315 14.7851 35.7651 14.7726 35.8407 14.7142C36.3554 14.3093 38.3993 13.0447 38.645 12.9049C39.187 12.594 41.0334 11.4692 41.5859 11.5339L43.0689 11.7092Z" fill="rgb(255,255,255)" fill-rule="evenodd" />
	<path id="Vector" d="M46.3249 13.2116C45.8939 13.5498 45.5177 13.9516 45.2094 14.4031C44.7085 15.1674 44.2863 15.9797 43.9491 16.828C43.842 16.1143 44.1948 15.1105 44.6087 14.2237C44.8796 13.6436 45.659 12.2183 46.1568 11.707L46.3249 13.2116Z" fill="rgb(255,255,255)" fill-rule="evenodd" />
	<path id="Vector" d="M40.5056 11.4816C38.891 12.3511 37.3295 13.2707 35.8213 14.2403C35.8339 14.0755 35.8444 13.9524 35.8591 13.8564C35.8927 13.6331 35.8717 13.5893 36.0208 13.487C36.6615 13.0363 38.5815 11.7216 39.2201 11.5129C39.573 11.3961 40.1338 11.4649 40.5056 11.4816Z" fill="rgb(255,255,255)" fill-rule="evenodd" />
	<path id="Vector" d="M36.6006 12.8462L36.6426 11.7444C36.6573 11.5357 36.6426 11.5023 36.8359 11.3855C37.1222 11.2168 37.4248 11.077 37.7391 10.9681C37.8757 10.9243 37.9366 10.8805 37.966 11.0766C38.0003 11.3052 38.0122 11.5365 38.0017 11.7673C37.987 12.0365 37.9345 12.0303 37.6887 12.2035C37.3547 12.4393 36.9199 12.6647 36.6006 12.8483" fill="rgb(255,255,255)" fill-rule="evenodd" />
	<path id="Vector" d="M8.66325 18.0629L9.51399 22.3449L6.91345 22.6538C6.99538 22.8624 7.21804 22.9146 7.47011 22.8875C8.22003 22.8124 8.98254 22.7184 9.66104 22.6391C9.72615 23.0189 9.63163 23.14 9.27873 23.2318C8.92583 23.3236 8.57713 23.3716 8.22843 23.4509L9.69885 23.4008L7.54153 23.8015C7.43568 23.6286 7.30945 23.4689 7.16552 23.3257L7.37558 24.0477L10.0286 23.5511C10.0433 23.2798 10.0286 22.6809 10.4614 22.5077C10.3451 22.6857 10.2693 22.8868 10.2391 23.0969C10.209 23.307 10.2254 23.5211 10.287 23.7243L7.0878 24.3232C7.03449 23.9457 6.90134 23.5837 6.69709 23.261C6.54585 23.0523 6.27697 22.7831 5.93458 22.8875C5.38212 23.0607 5.51446 24.0748 5.44514 24.6049C4.81496 24.7447 1.68296 25.4625 1.31746 25.3916C1.8195 25.2518 4.6322 24.6237 4.87587 24.3086L3.85498 24.5318L3.71004 24.1145L1.26915 24.7113C1.56113 24.5402 2.83199 24.1792 3.31933 24.0289C3.5609 23.9517 3.52939 23.789 3.35294 23.8077C3.05886 23.839 2.37406 24.0164 2.05687 24.0915C2.46659 23.9493 2.88383 23.8295 3.30673 23.7326C3.44747 23.6888 3.49578 23.5239 3.38235 23.4843C3.2722 23.4729 3.16088 23.4865 3.05676 23.5239L1.97705 23.7639C2.36208 23.6356 2.75412 23.529 3.15128 23.4446C3.20694 23.4341 3.26121 23.4173 3.31303 23.3946C3.39705 23.3486 3.44747 23.1859 3.24161 23.1859C2.87611 23.2151 2.11569 23.4613 1.89723 23.501C2.31735 23.3153 2.78578 23.2464 3.2122 23.0836C3.34034 23.0356 3.42226 22.8603 3.17649 22.875C2.73654 22.957 2.30114 23.0614 1.87202 23.188C2.42868 22.9209 2.90551 22.8833 3.13238 22.7059C3.16377 22.6805 3.18937 22.6488 3.20748 22.6128C3.22558 22.5768 3.23579 22.5374 3.23741 22.4972C3.25001 22.3804 3.23741 22.3846 3.14708 22.4159L1.56533 22.9104C1.61995 22.7936 1.56533 22.8603 1.68717 22.7706C2.12619 22.4597 2.75217 22.3533 3.2143 22.0966L4.81286 21.168C4.43895 21.2243 3.60501 21.5853 3.34244 21.5457C3.84028 21.241 4.54608 21.0699 5.15315 20.8717C5.64049 20.7131 5.65099 20.7715 5.75182 20.3333C5.82905 20.0403 5.86857 19.7388 5.86946 19.436C5.17626 19.6259 3.07146 20.2289 2.75007 20.8717C2.61983 21.1325 2.62193 21.6438 2.42238 21.8462C2.37933 21.7783 2.35061 21.7024 2.33797 21.6231C2.32533 21.5438 2.32904 21.4628 2.34886 21.385C2.01696 21.529 2.11779 21.6772 2.1661 22.011C1.90143 22.3491 1.30486 22.5223 1.13051 22.8729C1.0556 23.0831 1.00761 23.3018 0.987668 23.5239C0.933053 23.8161 0.760802 23.7952 0.693583 24.1103C0.626364 24.4254 0.71459 25.402 0.96036 25.6295C1.20613 25.8569 1.64515 25.4208 2.11779 25.8528C2.19372 25.9162 2.264 25.986 2.32785 26.0614L0.479324 26.5184C0.233554 26.5769 0.0592034 26.6437 0.00878906 26.7271L20.8845 22.2197L16.6497 22.9939L16.6791 22.3679C16.822 22.3407 16.9102 22.3553 16.9228 22.2009C16.9375 22.0089 16.8304 22.0507 16.6833 22.0611L16.7001 21.8107L10.9529 22.2781L10.8836 21.9756L16.0048 21.5582L10.8185 21.6959L10.6672 21.0449L14.6941 21.0657L10.6252 20.8571L10.4761 20.2206L15.2675 20.6066L10.4173 20.0119L10.2576 19.3212L14.1038 19.8721L10.2156 19.1438L10.1757 18.9727L12.9569 19.4047L10.1106 18.7223L10.0454 18.4406L14.6941 19.5591L9.99713 18.234L9.8732 17.706L16.0637 19.5486C14.5701 18.9122 11.6377 18.0524 10.6168 17.7165C9.66944 17.4035 9.5329 17.5307 8.66325 18.0608M5.70561 24.0143C5.35481 22.7205 6.7286 22.9459 6.75591 23.8849C6.361 23.2151 5.94088 23.4801 5.82744 23.9559C5.78195 23.8145 5.76973 23.6645 5.79173 23.5177C5.72211 23.6736 5.69251 23.8442 5.70561 24.0143ZM12.8119 23.43L14.6395 23.1045L14.881 23.4133L12.7468 23.862L12.8119 23.43Z" fill="rgb(255,255,255)" fill-rule="evenodd" />
	<path id="Vector" d="M5.39403 18.0943C5.34782 18.1736 5.36253 18.1903 5.31211 18.2258C5.1749 18.3089 5.03 18.3788 4.87939 18.4345C4.83948 18.447 4.84788 18.4094 4.81427 18.376C4.67983 18.641 4.2282 18.7934 3.76397 19.2316C3.4972 19.4883 3.06867 19.9202 3.02246 20.2458C3.32285 20.204 4.02235 19.7971 4.35844 19.6573C4.75756 19.4945 5.46336 19.3088 5.70702 19.0417C5.978 18.7412 6.10404 18.4157 6.53046 18.086C6.99679 17.7354 7.52194 17.9733 8.00088 17.8335C7.56395 17.6415 6.63969 17.7124 6.05572 17.9274C5.95909 17.9608 5.86247 18.0004 5.76164 18.038C5.34152 18.1966 5.44235 18.1256 5.39824 18.0901" fill="rgb(255,255,255)" fill-rule="evenodd" />
	<path id="Vector" d="M3.85011 23.2533C4.11088 23.0508 4.41364 22.9082 4.73656 22.836C4.70506 23.318 4.56852 23.4411 4.25343 23.5684C4.07488 23.6394 4.05597 23.6414 3.98455 23.7666L4.82479 23.606C4.85003 23.2803 4.94836 22.9645 5.11257 22.6815C5.34154 22.331 5.51378 22.2809 6.03263 22.1682C5.71544 21.8865 4.94032 22.139 4.62313 22.2913C4.23452 22.4791 3.8081 22.8547 3.84171 23.2596" fill="rgb(255,255,255)" fill-rule="evenodd" />
	<path id="Vector" d="M5.94253 20.6378C6.15259 20.7505 6.537 20.7672 6.57271 20.6962C6.65043 20.4145 6.47608 20.1433 7.13777 20.0577L7.07475 19.6946C6.86469 19.6278 6.28703 19.4525 6.11268 19.6737C6.00815 19.985 5.95012 20.3098 5.94043 20.6378" fill="rgb(255,255,255)" fill-rule="evenodd" />
	<path id="Vector" d="M6.96602 21.3333C6.81923 21.3723 6.67805 21.4298 6.5459 21.5044C6.59001 21.6129 6.87779 21.5044 7.08785 21.4355C7.18238 21.3604 7.18658 21.3166 7.28111 21.2456C7.37563 21.1747 7.47857 21.1496 7.51848 21.0745C7.56007 20.8531 7.52451 20.6242 7.41765 20.4255C7.30842 20.2586 7.08155 20.292 6.8946 20.3567C6.79797 20.388 6.79587 20.4172 6.78537 20.5236C6.77667 20.6451 6.78875 20.7671 6.82108 20.8846C6.8883 21.1601 6.99963 21.2289 6.96392 21.3333" fill="rgb(255,255,255)" fill-rule="evenodd" />
	<path id="Vector" d="M33.5425 35.0782L26.6462 34.3728L26.3038 30.0825C27.2722 29.8738 28.1482 29.6651 29.0787 29.4564C31.2339 28.9431 32.3599 30.0449 33.135 31.9355C33.6097 33.0957 33.5299 33.9993 33.5425 35.0865M38.5629 34.9551L33.6833 35.0823C33.6664 34.135 33.6937 33.1876 33.4228 32.1776L34.0046 32.1463C34.0361 32.284 34.2147 33.2314 34.2273 33.2773L38.084 33.2627C38.0294 32.8996 37.897 32.4447 37.813 32.0899L38.0987 32.0899C38.3966 33.0138 38.5545 33.9766 38.5671 34.9467L38.5629 34.9551ZM35.8217 35.8002L34.2084 35.5769L34.2483 36.3615L35.8364 36.1737L35.8217 35.8002ZM38.3424 35.3828L36.7774 35.8002L36.7879 36.1403L38.3277 36.1779L38.3424 35.3828ZM37.9538 33.1417L34.3596 33.1417L34.1076 31.9793L37.624 31.9397C37.7787 32.3269 37.8893 32.73 37.9538 33.1417ZM38.0861 31.9668L37.8004 31.9668C37.6734 31.6247 37.5018 31.3006 37.29 31.0027C36.6052 29.9468 36.0086 29.4001 34.6957 29.3333C33.8555 29.2874 32.9753 29.3333 32.1309 29.3604C33.219 30.2348 33.6895 31.0173 33.9815 32.0169L33.406 32.044C33.1476 31.1864 32.2842 29.4627 30.5155 29.2478C30.9945 29.1267 32.4607 29.0662 32.9417 29.062C35.16 29.062 35.9792 28.9681 37.082 30.2765C37.4974 30.7868 37.8324 31.3567 38.0756 31.9668L38.0861 31.9668ZM26.5328 34.4855L26.558 35.1554L23.8419 34.6149L23.8125 34.1767L26.5328 34.4855ZM38.4495 37.9976L36.3888 37.9579L30.7424 36.7058L31.36 36.5765L38.4495 37.9976ZM42.6234 37.8327L40.7224 37.7764L34.7882 36.8164L36.2355 36.8457L42.6234 37.8327ZM24.1192 33.2126L25.7997 33.2126L25.5896 30.7085L23.9344 31.0862L24.1192 33.2126ZM28.8036 36.2426L23.3252 34.9404L23.8125 34.8758L28.4339 35.9191L28.8036 36.2426ZM23.5794 30.7064L26.1358 30.1221L26.5076 34.3582L23.802 34.0828L23.5794 30.7064ZM29.6564 33.2105L32.2296 33.2105C32.2674 31.2657 31.7654 29.3646 29.2636 29.8717L29.6564 33.2105ZM31.2508 36.276C30.9399 36.6933 30.1164 36.4659 30.0093 36.0402L31.2508 36.276ZM33.5803 36.5493L26.703 35.1804L26.6652 34.496L33.6853 35.2702C33.6853 35.2702 38.4663 35.0469 38.6154 35.0448L38.5797 36.4534L36.2313 36.781L33.5803 36.5493ZM30.2194 36.5493L29.0913 36.324C29.4169 36.1153 29.9022 36.0527 30.2131 36.5577L30.2194 36.5493ZM29.5073 35.9233C29.1901 36.2781 28.5851 36.0089 28.5095 35.7042L29.5073 35.9233ZM28.02 33.2648L27.1567 33.2251C27.0783 32.3195 26.9998 31.4152 26.9214 30.5123L28.457 30.1597L28.6082 31.9522L28.4948 30.0449L26.8416 30.4226L27.1021 33.2961L28.583 33.319L28.02 33.2648ZM27.3247 33.0561L28.5242 33.1104L28.291 30.3913L27.1168 30.6605L27.3247 33.0561Z" fill="rgb(255,255,255)" fill-rule="evenodd" />
	<path id="Vector" d="M29.1143 30.0412L29.3096 30.0078C29.6277 29.9347 29.9563 29.9184 30.2801 29.9598C30.565 30.0032 30.8345 30.1163 31.0645 30.289C31.2944 30.4617 31.4775 30.6885 31.5972 30.9489C31.9165 31.5624 32.0278 32.393 32.0173 33.2652L31.8366 33.2652C31.8366 32.418 31.7337 31.6167 31.4312 31.0324C31.3242 30.7977 31.16 30.5932 30.9536 30.4373C30.7471 30.2814 30.5048 30.179 30.2486 30.1393C29.9442 30.1013 29.6355 30.1176 29.3369 30.1873L29.1374 30.2207L29.1143 30.0412Z" fill="rgb(255,255,255)" fill-rule="nonzero" />
</svg>
