<svg viewBox="0 0 158 66" xmlns="http://www.w3.org/2000/svg" xmlns:xlink="http://www.w3.org/1999/xlink" width="158.000000" height="66.000000" fill="none">
	<rect id="Слой_1" width="158.000000" height="66.000000" x="0.000000" y="0.000000" fill="rgb(255,255,255)" fill-opacity="0" />
	<path id="Vector" d="M89.513 48.1064L89.513 45.3628L98.0437 45.3628L98.0437 48.1064L89.513 48.1064ZM150.472 43.5868C150.122 43.5627 149.771 43.6151 149.443 43.7403C149.115 43.8655 148.819 44.0606 148.576 44.3117C148.117 44.8476 147.807 45.4937 147.678 46.1855L153.233 46.1855C153.145 45.5058 152.842 44.8713 152.369 44.3733C152.123 44.1211 151.828 43.9212 151.502 43.786C151.176 43.6508 150.825 43.583 150.472 43.5868ZM158.004 48.8857L147.522 48.8857C147.551 49.7192 147.823 50.5264 148.306 51.2089C148.769 51.8214 149.509 52.1512 150.534 52.1911L150.629 52.1911C150.629 52.2129 150.629 52.2237 150.629 52.2237L150.676 52.2237C151.271 52.2301 151.859 52.0907 152.387 51.8178C152.92 51.5292 153.36 51.097 153.656 50.571L157.329 52.0208C156.806 53.1254 155.899 54.0056 154.776 54.4998C153.618 55.0282 152.362 55.3097 151.089 55.3262L150.724 55.3262C149.551 55.3042 148.392 55.0722 147.303 54.6412C146.268 54.255 145.349 53.611 144.637 52.771C144.129 52.1796 143.721 51.51 143.429 50.7885C143.13 50.0703 142.955 49.3068 142.911 48.5305L142.911 48.1862C142.907 48.1138 142.907 48.0411 142.911 47.9687C142.922 47.8844 142.938 47.8009 142.959 47.7186C142.954 47.6462 142.954 47.5736 142.959 47.5012C142.964 47.4275 142.964 47.3537 142.959 47.2801C143.032 46.3383 143.298 45.4212 143.74 44.585C144.183 43.7487 144.792 43.0107 145.53 42.4161C146.952 41.2537 148.74 40.625 150.582 40.6402C150.975 40.64 151.369 40.6655 151.76 40.7163C152.155 40.7714 152.548 40.8501 152.934 40.9519C154.901 41.5125 156.219 42.5261 156.888 43.9928C157.592 45.5309 157.972 47.1961 158.004 48.8857ZM125.277 54.8115L125.277 41.1222L129.701 41.1222L129.701 43.8985C130.275 42.9622 131.027 42.1459 131.915 41.4956C132.811 40.9075 133.87 40.6134 134.942 40.6547L135.537 40.6547C135.595 40.649 135.654 40.649 135.712 40.6547C135.769 40.6605 135.826 40.6605 135.883 40.6547C136.578 40.7395 137.249 40.9574 137.86 41.2962C138.479 41.6292 138.998 42.1179 139.366 42.7133C139.654 43.224 139.84 43.7852 139.913 44.3661C139.986 44.9496 140.034 45.5404 140.056 46.1456L140.056 54.7825L135.194 54.7825L135.194 47.483C135.194 47.3163 135.194 47.1496 135.194 46.9829C135.194 46.8162 135.194 46.6422 135.194 46.4537C135.131 46.0806 135.026 45.7159 134.88 45.3664C134.74 45.0195 134.482 44.7323 134.151 44.5545C134.05 44.5083 133.945 44.4719 133.837 44.4458C133.718 44.4167 133.596 44.4009 133.473 44.3987C133.39 44.3783 133.306 44.3686 133.221 44.3697L132.783 44.3697C132.708 44.3697 132.633 44.3795 132.561 44.3987C132.472 44.3998 132.383 44.4058 132.295 44.4168C132.215 44.4233 132.137 44.4379 132.061 44.4603C131.726 44.5511 131.417 44.7164 131.156 44.9437C130.895 45.171 130.689 45.4544 130.555 45.7723C130.303 46.3995 130.154 47.0627 130.113 47.7367C130.095 47.9651 130.084 48.1898 130.084 48.4072L130.084 54.8152L125.277 54.8115ZM116.681 36.8817C116.72 36.1779 117.005 35.5097 117.486 34.9918C117.967 34.4739 118.615 34.1387 119.318 34.0438L119.413 34.0438C119.766 34.049 120.114 34.1298 120.433 34.2805C120.752 34.4312 121.035 34.6484 121.262 34.9173C121.777 35.443 122.065 36.148 122.064 36.8817C122.083 37.2271 122.022 37.5723 121.886 37.8908C121.75 38.2093 121.543 38.4927 121.28 38.7193C120.79 39.1468 120.172 39.4016 119.522 39.4441L119.208 39.4441C118.558 39.4016 117.94 39.1468 117.45 38.7193C117.19 38.4912 116.985 38.2072 116.852 37.8888C116.719 37.5704 116.66 37.226 116.681 36.8817ZM116.965 54.8115L116.965 41.1222L121.86 41.1222L121.86 54.8115L116.965 54.8115ZM101.622 54.8115L101.622 34.9463L107.092 34.9463L107.092 50.1687L113.836 50.1687L113.836 54.8152L101.622 54.8115ZM76.2408 47.483L76.2408 43.3331L86.9089 43.3331L86.9089 44.859C86.8882 45.747 86.8139 46.6329 86.6864 47.512C86.5569 48.3885 86.3039 49.2426 85.9351 50.0491C85.1101 51.6991 83.7811 53.0476 82.1383 53.9018C80.5453 54.7499 78.77 55.2037 76.963 55.2247L76.4925 55.2247C74.4278 55.1665 72.4125 54.5838 70.6387 53.5321C68.8213 52.4825 67.4247 50.8411 66.6852 48.8857C66.5612 48.5522 66.4445 48.2224 66.3387 47.889C66.2351 47.5512 66.1523 47.2074 66.0907 46.8596C66.025 46.5262 65.974 46.1928 65.9339 45.8629C65.8902 45.5313 65.8683 45.1971 65.8682 44.8626C65.8611 42.4725 66.6756 40.1517 68.1769 38.2844C69.6946 36.3191 71.9324 35.0294 74.4026 34.6962C74.4816 34.702 74.5608 34.702 74.6397 34.6962C74.7183 34.6847 74.7962 34.669 74.8731 34.6491C74.9313 34.6549 74.99 34.6549 75.0482 34.6491C75.0943 34.6443 75.1407 34.6443 75.1868 34.6491C75.4603 34.6056 75.7266 34.5766 75.9892 34.5549C76.2518 34.5331 76.5071 34.5222 76.7551 34.5222C78.473 34.5131 80.168 34.9147 81.697 35.6929C83.2589 36.4894 84.5974 37.6588 85.5922 39.0962L80.8509 41.3071C80.4098 40.7329 79.8688 40.2419 79.2534 39.8573C78.6997 39.5156 78.0954 39.2624 77.4626 39.1071L76.9447 39.0455C76.7741 39.0241 76.6024 39.0132 76.4305 39.0128C75.755 39.0177 75.0878 39.1601 74.4699 39.4313C73.852 39.7025 73.2966 40.0966 72.838 40.5895C71.7803 41.6405 71.2515 43.0589 71.2515 44.8445L71.2515 44.8771C71.2556 44.9105 71.2668 44.9426 71.2843 44.9713L71.2843 45.0946C71.2455 46.6125 71.6953 48.1032 72.5681 49.3496C73.424 50.5577 74.7418 51.1618 76.5217 51.1618L76.6493 51.2234C77.7993 51.2307 78.925 50.8949 79.8807 50.2593C80.3605 49.9499 80.7682 49.5421 81.0765 49.0633C81.3847 48.5844 81.5863 48.0457 81.6678 47.483L76.2408 47.483Z" fill="rgb(0,100,34)" fill-rule="nonzero" />
	<path id="Vector" d="M75.4714 30.5209L70.7884 31.4379C69.5192 30.713 67.2761 30.8145 65.2629 30.6768C63.2496 30.5391 62.5895 30.4521 61.251 29.0784L61.0723 28.8972C66.481 24.6168 72.8928 21.0178 79.7058 19.597C76.985 23.4461 75.8726 25.6063 75.4677 30.5209" fill="rgb(27,29,31)" fill-rule="evenodd" />
	<path id="Vector" d="M32.0005 43.913C32.4892 43.1519 34.641 40.7924 36.2458 38.6395L0 46.4682L23.776 45.5259C26.6063 56.6962 41.392 60.1212 41.392 60.1212L40.9835 53.8982L44.266 53.0646C42.6324 52.7685 41.0502 52.2399 39.5684 51.4952C37.1102 50.2448 33.2186 46.0586 31.9968 43.913" fill="rgb(142,195,107)" fill-rule="evenodd" />
	<path id="Vector" d="M36.0346 25.2583C38.9195 24.316 40.8781 26.6501 43.3764 27.0451C42.7126 25.1677 37.8728 14.9904 36.7859 13.7944L37.2856 20.6155C30.4872 21.8152 25.228 25.6389 23.0615 31.8909L28.897 33.743C29.9912 30.4122 32.5005 26.4145 36.0455 25.2583" fill="rgb(0,100,34)" fill-rule="evenodd" />
	<path id="Vector" d="M42.2595 20.4596L43.6965 23.5114C49.0907 22.9786 54.835 26.8748 57.151 28.9479C58.8433 30.4738 57.5157 31.8909 57.0051 34.1163L70.7878 31.4234C69.5186 30.6985 67.2756 30.8 65.2624 30.6623C63.2491 30.5245 62.589 30.4376 61.2504 29.0639C60.6815 28.4804 60.0031 27.7628 59.7405 27.509C56.458 24.3123 48.8172 19.8217 42.2559 20.4451" fill="rgb(142,195,107)" fill-rule="evenodd" />
	<path id="Vector" d="M47.9857 37.7008C47.6496 37.7119 47.3174 37.627 47.0284 37.4561C46.7395 37.2852 46.5059 37.0356 46.3554 36.7367L38.6963 38.4366L38.5723 37.882L46.2314 36.1786C46.2416 35.9343 46.3138 35.6965 46.4414 35.4874C46.5689 35.2783 46.7476 35.1046 46.9608 34.9825L44.1561 29.2778L44.6704 29.0277L47.4933 34.7651C47.6497 34.7269 47.8101 34.7074 47.9711 34.7071C48.2647 34.7015 48.5552 34.7665 48.8181 34.8965C49.081 35.0265 49.3084 35.2176 49.481 35.4537L55.6812 34.0728L55.8052 34.631L49.6926 35.9901C49.706 36.0606 49.7121 36.1322 49.7108 36.204C49.7017 36.48 49.6149 36.7479 49.4601 36.9773C49.3054 37.2067 49.089 37.3883 48.8355 37.5015L52.1179 44.1631L51.6037 44.4132L48.2884 37.6755C48.1846 37.6913 48.0798 37.6997 47.9747 37.7008" fill="rgb(27,29,31)" fill-rule="evenodd" />
	<path id="Vector" d="M40.3199 12.0511C40.2907 14.8273 40.3892 13.827 38.9814 14.8418C38.5802 13.9792 37.7231 8.76738 37.4642 7.63295C37.1213 7.84679 36.184 8.21648 35.7244 8.43394C32.5806 9.91631 33.1714 8.97397 32.5696 11.0652C32.4295 11.777 32.2319 12.4763 31.9788 13.1565C31.7891 13.5552 31.6761 13.8053 31.4426 13.2471C31.3321 12.8592 31.2636 12.4607 31.2384 12.0583C31.0852 11.116 31.1472 11.1196 31.0123 10.8623C30.8324 10.4962 30.6339 10.1393 30.4178 9.79308C29.9327 9.12257 29.061 8.75651 28.3972 8.03163C28.0909 7.69819 28.2258 7.55321 28.6452 7.60757C28.751 7.60757 28.8933 7.66194 29.1814 7.73081C29.6227 7.83592 30.0239 7.95914 30.4688 8.07512C32.814 8.68764 32.0845 8.8 34.4042 7.0313C35.0351 6.55651 35.6624 6.20132 36.2278 5.71202C35.7171 4.93278 31.7162 1.61285 30.695 0.924219L32.0554 0C32.8906 0.449423 33.7294 0.906094 34.5136 1.36277L35.6077 1.99341C35.6902 1.8374 35.8227 1.71325 35.9843 1.64071C36.146 1.56816 36.3273 1.55139 36.4996 1.59305C36.6719 1.63471 36.8253 1.73242 36.9353 1.87063C37.0453 2.00884 37.1056 2.17963 37.1067 2.35585C37.1068 2.49608 37.0691 2.63377 36.9973 2.75453C37.7268 3.14234 38.4197 3.51927 39.0762 3.84184C39.8112 3.54736 40.5159 3.18324 41.1806 2.75453C42.327 2.04847 43.5227 1.4247 44.7585 0.887973C46.0679 0.300823 47.7055 0.478415 46.6077 1.75782C46.0642 2.38484 44.5981 3.2402 43.854 3.74399C43.11 4.24778 41.1077 5.49094 40.3491 6.28106C40.3491 7.00593 40.2907 7.73081 40.2944 8.45568C40.4878 8.47835 40.6661 8.57076 40.7955 8.7154C40.9249 8.86003 40.9964 9.04683 40.9964 9.24036C40.9964 9.43389 40.9249 9.62069 40.7955 9.76533C40.6661 9.90996 40.4878 10.0024 40.2944 10.025C40.2944 10.7717 40.2944 11.5183 40.2944 12.0656" fill="rgb(27,29,31)" fill-rule="evenodd" />
	<path id="Vector" d="M13.7715 19.5572C16.3245 12.9499 28.291 5.29523 32.6311 3.05536L33.645 4.0267L28.3311 6.83559C23.5022 9.543 18.1919 13.4465 14.8365 18.0059C14.4717 18.517 14.107 19.1621 13.797 19.5572" fill="rgb(27,29,31)" fill-rule="evenodd" />
	<path id="Vector" d="M20.3691 25.831C22.5976 21.5252 34.1738 12.4751 37.624 10.4092L37.9194 11.8771C35.9791 12.4027 26.6678 19.5934 24.5196 21.547C22.9368 22.9967 21.0293 25.1713 20.3691 25.831Z" fill="rgb(27,29,31)" fill-rule="evenodd" />
	<path id="Vector" d="M74.7781 20.3364C70.9777 21.1012 64.9999 24.9394 61.6992 27.2807L62.0056 25.831C62.0384 25.6788 62.0968 25.657 62.2281 25.5555C63.1216 24.8524 66.6703 22.656 67.0971 22.4132C68.038 21.8732 71.2439 19.9196 72.2031 20.032L74.7781 20.3364Z" fill="rgb(27,29,31)" fill-rule="evenodd" />
	<path id="Vector" d="M80.4311 22.9459C79.6829 23.5333 79.0297 24.2313 78.4945 25.0155C77.6247 26.3428 76.8916 27.7538 76.3061 29.227C76.1201 27.9875 76.7328 26.2441 77.4513 24.7038C77.9218 23.6962 79.2749 21.2207 80.1393 20.3328L80.4311 22.9459Z" fill="rgb(27,29,31)" fill-rule="evenodd" />
	<path id="Vector" d="M70.3285 19.9413C67.5251 21.4515 64.814 23.0486 62.1953 24.7328C62.2172 24.4464 62.2354 24.2326 62.261 24.0659C62.3193 23.6781 62.2828 23.602 62.5418 23.4244C63.6542 22.6415 66.9877 20.3581 68.0965 19.9957C68.7092 19.7927 69.683 19.9124 70.3285 19.9413Z" fill="rgb(27,29,31)" fill-rule="evenodd" />
	<path id="Vector" d="M63.5488 22.3117L63.6218 20.398C63.6473 20.0356 63.6218 19.9776 63.9573 19.7746C64.4545 19.4818 64.9799 19.2389 65.5256 19.0498C65.7627 18.9736 65.8684 18.8975 65.9195 19.2382C65.979 19.6352 65.9998 20.037 65.9815 20.4379C65.956 20.9054 65.8648 20.8946 65.4381 21.1954C64.8582 21.6049 64.1032 21.9964 63.5488 22.3153" fill="rgb(27,29,31)" fill-rule="evenodd" />
	<path id="Vector" d="M15.0411 31.3727L16.5182 38.8099L12.003 39.3463C12.1452 39.7087 12.5318 39.7993 12.9695 39.7522C14.2715 39.6218 15.5954 39.4587 16.7735 39.3209C16.8866 39.9806 16.7224 40.1908 16.1097 40.3503C15.497 40.5097 14.8915 40.5931 14.2861 40.7308L16.8391 40.6438L13.0935 41.3397C12.9097 41.0395 12.6905 40.762 12.4406 40.5134L12.8053 41.7674L17.4118 40.9048C17.4373 40.4336 17.4118 39.3934 18.1631 39.0926C17.9612 39.4018 17.8295 39.751 17.7772 40.1159C17.725 40.4808 17.7533 40.8527 17.8604 41.2056L12.3057 42.2458C12.2131 41.5902 11.9819 40.9615 11.6273 40.401C11.3647 40.0386 10.8979 39.571 10.3034 39.7522C9.34417 40.0531 9.57394 41.8145 9.45358 42.7351C8.35943 42.9779 2.92146 44.2247 2.28685 44.1015C3.15853 43.8587 8.04212 42.7677 8.46519 42.2204L6.69266 42.6082L6.441 41.8834L2.20296 42.9199C2.70992 42.6227 4.91647 41.9957 5.76262 41.7348C6.18205 41.6007 6.12734 41.318 5.82098 41.3506C5.31037 41.4049 4.12139 41.713 3.57066 41.8435C4.28204 41.5965 5.00648 41.3884 5.74074 41.2201C5.9851 41.144 6.06899 40.8577 5.87204 40.7888C5.68078 40.769 5.48751 40.7926 5.30672 40.8577L3.43207 41.2745C4.10058 41.0515 4.78127 40.8664 5.47085 40.7199C5.56749 40.7017 5.66171 40.6725 5.75168 40.633C5.89757 40.5532 5.9851 40.2705 5.62768 40.2705C4.99306 40.3213 3.67278 40.7489 3.29348 40.8178C4.02291 40.4952 4.83624 40.3756 5.57662 40.0929C5.79909 40.0096 5.94134 39.7051 5.51461 39.7305C4.75075 39.8729 3.99477 40.0544 3.24971 40.2741C4.21621 39.8102 5.04412 39.745 5.43802 39.4369C5.49253 39.3928 5.53697 39.3377 5.56841 39.2752C5.59985 39.2127 5.61757 39.1443 5.62038 39.0745C5.64226 38.8715 5.62038 38.8787 5.46355 38.9331L2.71722 39.7921C2.81205 39.5891 2.71722 39.7051 2.92876 39.5493C3.69102 39.0092 4.77788 38.8244 5.58026 38.3786L8.35577 36.7657C7.70657 36.8636 6.25864 37.4906 5.80274 37.4218C6.66712 36.8926 7.89258 36.5954 8.94662 36.2511C9.79277 35.9756 9.811 36.0771 9.98607 35.316C10.1202 34.8072 10.1888 34.2835 10.1903 33.7575C8.98674 34.0873 5.33226 35.1348 4.77423 36.2511C4.54811 36.7041 4.55176 37.5921 4.20527 37.9437C4.13052 37.8257 4.08066 37.6939 4.05872 37.5562C4.03678 37.4185 4.04321 37.2778 4.07762 37.1427C3.50136 37.3928 3.67643 37.6501 3.76032 38.23C3.30077 38.8171 2.26496 39.118 1.96225 39.7269C1.83218 40.092 1.74886 40.4719 1.71424 40.8577C1.61941 41.3651 1.32034 41.3288 1.20363 41.8761C1.08692 42.4234 1.2401 44.1196 1.66683 44.5147C2.09355 44.9097 2.85581 44.1522 3.67643 44.9025C3.80826 45.0126 3.93029 45.1339 4.04115 45.2649L0.831621 46.0587C0.4049 46.1601 0.102181 46.2761 0.0146484 46.4211L36.2604 38.5924L28.9077 39.9371L28.9588 38.8498C29.2068 38.8026 29.36 38.828 29.3818 38.5598C29.4074 38.2264 29.2214 38.2989 28.9661 38.317L28.9952 37.882L19.0165 38.6939L18.8962 38.1684L27.788 37.4435L18.7831 37.6827L18.5205 36.5519L25.5122 36.5881L18.4476 36.2257L18.1886 35.1203L26.5078 35.7908L18.0865 34.7578L17.8093 33.5582L24.4873 34.515L17.7364 33.2501L17.6671 32.9529L22.4959 33.7031L17.554 32.518L17.4409 32.0287L25.5122 33.9713L17.357 31.6699L17.1419 30.7529L27.8901 33.9532C25.297 32.8478 20.2055 31.3545 18.433 30.771C16.7881 30.2274 16.551 30.4484 15.0411 31.369M9.90583 41.7094C9.29675 39.4623 11.682 39.8537 11.7294 41.4847C11.0438 40.3213 10.3143 40.7816 10.1174 41.6079C10.0384 41.3623 10.0172 41.1019 10.0554 40.8468C9.93447 41.1176 9.88309 41.414 9.90583 41.7094ZM22.2443 40.6946L25.4173 40.1292L25.8368 40.6656L22.1312 41.4448L22.2443 40.6946Z" fill="rgb(27,29,31)" fill-rule="evenodd" />
	<path id="Vector" d="M9.36572 31.427C9.28549 31.5647 9.31102 31.5937 9.22348 31.6554C8.98524 31.7997 8.73366 31.9211 8.47216 32.0178C8.40287 32.0395 8.41746 31.9743 8.3591 31.9163C8.12568 32.3766 7.34153 32.6412 6.53551 33.4023C6.07231 33.8481 5.32829 34.5984 5.24805 35.1638C5.7696 35.0913 6.98411 34.3845 7.56766 34.1417C8.26063 33.859 9.48608 33.5364 9.90916 33.0725C10.3796 32.5506 10.5985 31.9852 11.3389 31.4125C12.1485 30.8036 13.0603 31.2168 13.8919 30.974C13.1333 30.6405 11.5285 30.7638 10.5146 31.1371C10.3468 31.1951 10.179 31.2639 10.004 31.3292C9.27454 31.6046 9.44961 31.4814 9.37302 31.4198" fill="rgb(27,29,31)" fill-rule="evenodd" />
	<path id="Vector" d="M6.6858 40.3865C7.13855 40.0347 7.66423 39.7871 8.22491 39.6616C8.1702 40.4989 7.93314 40.7127 7.38606 40.9338C7.07605 41.057 7.04322 41.0606 6.91922 41.2781L8.37809 40.999C8.42192 40.4335 8.59265 39.8848 8.87776 39.3934C9.27531 38.7845 9.57437 38.6975 10.4752 38.5018C9.9245 38.0125 8.57869 38.4511 8.02797 38.7157C7.35324 39.0419 6.61285 39.6942 6.67121 40.3974" fill="rgb(27,29,31)" fill-rule="evenodd" />
	<path id="Vector" d="M10.3181 35.8451C10.6828 36.0409 11.3503 36.0699 11.4123 35.9466C11.5472 35.4573 11.2445 34.9862 12.3934 34.8376L12.2839 34.2069C11.9192 34.091 10.9162 33.7865 10.6135 34.1707C10.432 34.7113 10.3313 35.2755 10.3145 35.8451" fill="rgb(27,29,31)" fill-rule="evenodd" />
	<path id="Vector" d="M12.0937 37.0521C11.8388 37.1199 11.5937 37.2198 11.3643 37.3493C11.4408 37.5377 11.9405 37.3493 12.3052 37.2297C12.4694 37.0992 12.4767 37.0231 12.6408 36.8998C12.8049 36.7766 12.9836 36.7331 13.0529 36.6026C13.1251 36.2181 13.0634 35.8205 12.8778 35.4755C12.6882 35.1855 12.2943 35.2435 11.9697 35.3559C11.8019 35.4102 11.7983 35.461 11.78 35.6458C11.7649 35.8568 11.7859 36.0688 11.842 36.2728C11.9587 36.7512 12.1521 36.8708 12.0901 37.0521" fill="rgb(27,29,31)" fill-rule="evenodd" />
	<path id="Vector" d="M58.238 60.9258L46.2643 59.7008L45.6698 52.2491C47.3511 51.8866 48.872 51.5242 50.4877 51.1618C54.2297 50.2702 56.1846 52.1838 57.5304 55.4675C58.3547 57.4827 58.2161 59.052 58.238 60.9403M66.9548 60.712L58.4824 60.9331C58.4532 59.2876 58.5006 57.6422 58.0301 55.888L59.0404 55.8336C59.0951 56.0728 59.4051 57.7183 59.427 57.798L66.1232 57.7726C66.0284 57.142 65.7986 56.3519 65.6527 55.7357L66.1488 55.7357C66.666 57.3404 66.9401 59.0127 66.9621 60.6975L66.9548 60.712ZM62.1952 62.1799L59.3942 61.7921L59.4634 63.1548L62.2207 62.8287L62.1952 62.1799ZM66.5718 61.455L63.8547 62.1799L63.8729 62.7707L66.5463 62.8359L66.5718 61.455ZM65.8971 57.5624L59.6568 57.5624L59.2191 55.5436L65.3245 55.4748C65.5931 56.1473 65.7851 56.8475 65.8971 57.5624ZM66.1269 55.5219L65.6309 55.5219C65.4103 54.9277 65.1124 54.3647 64.7446 53.8474C63.5556 52.0135 62.5198 51.0639 60.2403 50.9479C58.7814 50.8682 57.2533 50.9479 55.7871 50.995C57.6763 52.5137 58.4933 53.8728 59.0003 55.6089L58.0009 55.656C57.5523 54.1664 56.0533 51.1726 52.9824 50.7993C53.8139 50.5891 56.3597 50.484 57.1949 50.4768C61.0463 50.4768 62.4687 50.3137 64.3835 52.5861C65.1047 53.4723 65.6864 54.4622 66.1086 55.5219L66.1269 55.5219ZM46.0673 59.8965L46.1111 61.06L41.3953 60.1212L41.3442 59.3601L46.0673 59.8965ZM66.7578 65.9964L63.1799 65.9275L53.3763 63.7529L54.4486 63.5282L66.7578 65.9964ZM74.0048 65.71L70.7041 65.6122L60.4008 63.945L62.9137 63.9957L74.0048 65.71ZM41.8767 57.6857L44.7944 57.6857L44.4297 53.3364L41.5557 53.9924L41.8767 57.6857ZM50.0099 62.9483L40.498 60.6866L41.3442 60.5743L49.368 62.3865L50.0099 62.9483ZM40.9394 53.3328L45.378 52.3179L46.0236 59.6754L41.326 59.197L40.9394 53.3328ZM51.4907 57.682L55.9585 57.682C56.0241 54.3041 55.1525 51.0023 50.8087 51.883L51.4907 57.682ZM54.2589 63.0062C53.7191 63.7311 52.2894 63.3361 52.1034 62.5967L54.2589 63.0062ZM58.3036 63.481L46.3627 61.1034L46.2971 59.9146L58.486 61.2593C58.486 61.2593 66.787 60.8715 67.046 60.8679L66.984 63.3143L62.9064 63.8834L58.3036 63.481ZM52.4681 63.481L50.5096 63.0896C51.0749 62.7272 51.9174 62.6184 52.4572 63.4955L52.4681 63.481ZM51.2317 62.3937C50.681 63.0099 49.6306 62.5423 49.4993 62.0132L51.2317 62.3937ZM48.6495 57.7763L47.1505 57.7074C47.0144 56.1344 46.8782 54.5639 46.7421 52.9957L49.4081 52.3832L49.6707 55.4965L49.4738 52.1838L46.6035 52.8399L47.0557 57.8306L49.627 57.8705L48.6495 57.7763ZM47.4423 57.4138L49.5248 57.508L49.12 52.7855L47.0812 53.253L47.4423 57.4138Z" fill="rgb(27,29,31)" fill-rule="evenodd" />
	<path id="Vector" d="M50.5498 52.1766L50.889 52.1186C51.4412 51.9916 52.0118 51.9634 52.574 52.0353C53.0687 52.1106 53.5367 52.3071 53.9359 52.607C54.3351 52.9069 54.6529 53.3008 54.8608 53.7532C55.4151 54.8188 55.6085 56.2613 55.5902 57.7763L55.2766 57.7763C55.2766 56.3048 55.0979 54.913 54.5727 53.8982C54.3868 53.4906 54.1018 53.1354 53.7433 52.8646C53.3848 52.5938 52.9642 52.4159 52.5193 52.347C51.9909 52.2811 51.4549 52.3093 50.9364 52.4303L50.5899 52.4883L50.5498 52.1766Z" fill="rgb(26,26,24)" fill-rule="nonzero" />
</svg>
