<svg viewBox="0 0 17 20.9998" xmlns="http://www.w3.org/2000/svg" xmlns:xlink="http://www.w3.org/1999/xlink" width="17.000000" height="20.999756" fill="none" customFrame="#000000">
	<path id="Vector" d="M9.101 20.299C8.92772 20.4293 8.7168 20.4998 8.5 20.4998C8.2832 20.4998 8.07228 20.4293 7.899 20.299C6.039 18.693 0.5 13.493 0.5 8.5C0.5 6.37827 1.34285 4.34344 2.84315 2.84315C4.34344 1.34285 6.37827 0.5 8.5 0.5C10.6217 0.5 12.6566 1.34285 14.1569 2.84315C15.6571 4.34344 16.5 6.37827 16.5 8.5C16.5 13.493 10.961 18.693 9.101 20.299ZM8.5 11.5C6.84315 11.5 5.5 10.1569 5.5 8.5C5.5 6.84315 6.84315 5.5 8.5 5.5C10.1569 5.5 11.5 6.84315 11.5 8.5C11.5 10.1569 10.1569 11.5 8.5 11.5Z" fill-rule="evenodd" stroke="rgb(27,29,31)" stroke-linecap="round" stroke-linejoin="round" stroke-width="1.000000" />
</svg>
