<svg viewBox="0 0 60 60" xmlns="http://www.w3.org/2000/svg" xmlns:xlink="http://www.w3.org/1999/xlink" width="60.000000" height="60.000000" fill="none" customFrame="#000000">
	<rect id="icon/медикаменты" width="60.000000" height="60.000000" x="0.000000" y="0.000000" />
	<g id="Group">
		<path id="Vector" d="M55.62 20.61C54.2738 17.3687 52.387 14.3795 50.04 11.77L49 10.62L49 8L50 8C50.2652 8 50.5196 7.89464 50.7071 7.70711C50.8946 7.51957 51 7.26522 51 7L51 3C50.9976 2.20508 50.6808 1.4434 50.1187 0.881302C49.5566 0.319207 48.7949 0.00237409 48 0L38 0C37.2051 0.00237409 36.4434 0.319207 35.8813 0.881302C35.3192 1.4434 35.0024 2.20508 35 3L35 7C35 7.26522 35.1054 7.51957 35.2929 7.70711C35.4804 7.89464 35.7348 8 36 8L37 8L37 10.62L35.96 11.77C30.8328 17.4609 27.9968 24.8501 28 32.51L28 38L26 38L26 27C26.0051 26.0815 25.8264 25.1712 25.4743 24.3228C25.1222 23.4744 24.604 22.705 23.95 22.06C22.6265 20.7572 20.8471 20.0218 18.99 20.01C18.7282 20.0074 18.4779 19.9023 18.2928 19.7172C18.1077 19.5321 18.0026 19.2818 18 19.02L18 18L19 18C19.2652 18 19.5196 17.8946 19.7071 17.7071C19.8946 17.5196 20 17.2652 20 17L20 13C19.9976 12.2051 19.6808 11.4434 19.1187 10.8813C18.5566 10.3192 17.7949 10.0024 17 10L11 10C10.2051 10.0024 9.4434 10.3192 8.8813 10.8813C8.31921 11.4434 8.00237 12.2051 8 13L8 17C8 17.2652 8.10536 17.5196 8.29289 17.7071C8.48043 17.8946 8.73478 18 9 18L10 18L10 19.03C9.9981 19.2818 9.90128 19.5236 9.72888 19.7071C9.55647 19.8907 9.32118 20.0024 9.07 20.02C4.97 20.31 2 23.24 2 27L2 47C2.00237 47.7949 2.31921 48.5566 2.8813 49.1187C3.4434 49.6808 4.20508 49.9976 5 50L9 50L9 55C9 56.3261 9.52678 57.5979 10.4645 58.5355C11.4021 59.4732 12.6739 60 14 60L46 60C47.1518 59.9971 48.2675 59.5979 49.1598 58.8695C50.0521 58.1411 50.6665 57.1279 50.9 56L53 56C54.3261 56 55.5979 55.4732 56.5355 54.5355C57.4732 53.5979 58 52.3261 58 51L58 32.51C58.002 28.4249 57.193 24.3801 55.62 20.61ZM37 3C37 2.73478 37.1054 2.48043 37.2929 2.29289C37.4804 2.10536 37.7348 2 38 2L48 2C48.2652 2 48.5196 2.10536 48.7071 2.29289C48.8946 2.48043 49 2.73478 49 3L49 6L37 6L37 3ZM47 8L47 10L39 10L39 8L47 8ZM37.44 13.11L38.44 12L47.56 12L48.56 13.11C50.4131 15.1763 51.962 17.4963 53.16 20L32.84 20C34.038 17.4963 35.5869 15.1763 37.44 13.11ZM10 13C10 12.7348 10.1054 12.4804 10.2929 12.2929C10.4804 12.1054 10.7348 12 11 12L17 12C17.2652 12 17.5196 12.1054 17.7071 12.2929C17.8946 12.4804 18 12.7348 18 13L18 16L10 16L10 13ZM4 27C4 24.28 6.14 22.23 9.21 22.02C9.96613 21.9646 10.6735 21.6259 11.1907 21.0716C11.708 20.5172 11.997 19.7882 12 19.03L12 18L16 18L16 19.02C16.0048 19.7944 16.3077 20.5372 16.8459 21.094C17.3842 21.6508 18.1162 21.9789 18.89 22.01C20.2508 22.0003 21.5613 22.5245 22.54 23.47C23.0049 23.9324 23.3734 24.4826 23.624 25.0886C23.8746 25.6946 24.0024 26.3443 24 27L24 38L20 38L20 29C20 28.7348 19.8946 28.4804 19.7071 28.2929C19.5196 28.1054 19.2652 28 19 28L4 28L4 27ZM9 48L5 48C4.73478 48 4.48043 47.8946 4.29289 47.7071C4.10536 47.5196 4 47.2652 4 47L4 44L9 44L9 48ZM9.1 42L4 42L4 30L18 30L18 38L14 38C12.8482 38.0029 11.7325 38.4021 10.8402 39.1305C9.94795 39.8589 9.33348 40.8721 9.1 42ZM49 55C48.9976 55.7949 48.6808 56.5566 48.1187 57.1187C47.5566 57.6808 46.7949 57.9976 46 58L14 58C13.2051 57.9976 12.4434 57.6808 11.8813 57.1187C11.3192 56.5566 11.0024 55.7949 11 55L11 43C11.0024 42.2051 11.3192 41.4434 11.8813 40.8813C12.4434 40.3192 13.2051 40.0024 14 40L46 40C46.7949 40.0024 47.5566 40.3192 48.1187 40.8813C48.6808 41.4434 48.9976 42.2051 49 43L49 55ZM56 51C55.9976 51.7949 55.6808 52.5566 55.1187 53.1187C54.5566 53.6808 53.7949 53.9976 53 54L51 54L51 43C50.997 41.9138 50.6348 40.859 49.97 40L56 40L56 51ZM56 38L30 38L30 32.51C29.9998 28.9149 30.6678 25.351 31.97 22L54.03 22C55.3322 25.351 56.0002 28.9149 56 32.51L56 38Z" fill="rgb(0,0,0)" fill-rule="nonzero" />
		<path id="Vector" d="M46 33L48 33C48.2652 33 48.5196 32.8946 48.7071 32.7071C48.8946 32.5196 49 32.2652 49 32L49 28C49 27.7348 48.8946 27.4804 48.7071 27.2929C48.5196 27.1054 48.2652 27 48 27L46 27L46 25C46 24.7348 45.8946 24.4804 45.7071 24.2929C45.5196 24.1054 45.2652 24 45 24L41 24C40.7348 24 40.4804 24.1054 40.2929 24.2929C40.1054 24.4804 40 24.7348 40 25L40 27L38 27C37.7348 27 37.4804 27.1054 37.2929 27.2929C37.1054 27.4804 37 27.7348 37 28L37 32C37 32.2652 37.1054 32.5196 37.2929 32.7071C37.4804 32.8946 37.7348 33 38 33L40 33L40 35C40 35.2652 40.1054 35.5196 40.2929 35.7071C40.4804 35.8946 40.7348 36 41 36L45 36C45.2652 36 45.5196 35.8946 45.7071 35.7071C45.8946 35.5196 46 35.2652 46 35L46 33ZM45 31C44.7348 31 44.4804 31.1054 44.2929 31.2929C44.1054 31.4804 44 31.7348 44 32L44 34L42 34L42 32C42 31.7348 41.8946 31.4804 41.7071 31.2929C41.5196 31.1054 41.2652 31 41 31L39 31L39 29L41 29C41.2652 29 41.5196 28.8946 41.7071 28.7071C41.8946 28.5196 42 28.2652 42 28L42 26L44 26L44 28C44 28.2652 44.1054 28.5196 44.2929 28.7071C44.4804 28.8946 44.7348 29 45 29L47 29L47 31L45 31ZM26 42C25.4067 42 24.8266 42.1759 24.3333 42.5056C23.8399 42.8352 23.4554 43.3038 23.2284 43.852C23.0013 44.4001 22.9419 45.0033 23.0576 45.5853C23.1734 46.1672 23.4591 46.7018 23.8787 47.1213C24.2982 47.5409 24.8328 47.8266 25.4147 47.9424C25.9967 48.0581 26.5999 47.9987 27.1481 47.7716C27.6962 47.5446 28.1648 47.1601 28.4944 46.6667C28.8241 46.1734 29 45.5933 29 45C29 44.2044 28.6839 43.4413 28.1213 42.8787C27.5587 42.3161 26.7956 42 26 42ZM26 46C25.8022 46 25.6089 45.9414 25.4444 45.8315C25.28 45.7216 25.1518 45.5654 25.0761 45.3827C25.0004 45.2 24.9806 44.9989 25.0192 44.8049C25.0578 44.6109 25.153 44.4327 25.2929 44.2929C25.4327 44.153 25.6109 44.0578 25.8049 44.0192C25.9989 43.9806 26.2 44.0004 26.3827 44.0761C26.5654 44.1518 26.7216 44.28 26.8315 44.4444C26.9414 44.6089 27 44.8022 27 45C27 45.2652 26.8946 45.5196 26.7071 45.7071C26.5196 45.8946 26.2652 46 26 46ZM26 50C25.4067 50 24.8266 50.1759 24.3333 50.5056C23.8399 50.8352 23.4554 51.3038 23.2284 51.852C23.0013 52.4001 22.9419 53.0033 23.0576 53.5853C23.1734 54.1672 23.4591 54.7018 23.8787 55.1213C24.2982 55.5409 24.8328 55.8266 25.4147 55.9424C25.9967 56.0581 26.5999 55.9987 27.1481 55.7716C27.6962 55.5446 28.1648 55.1601 28.4944 54.6667C28.8241 54.1734 29 53.5933 29 53C29 52.2044 28.6839 51.4413 28.1213 50.8787C27.5587 50.3161 26.7956 50 26 50ZM26 54C25.8022 54 25.6089 53.9414 25.4444 53.8315C25.28 53.7216 25.1518 53.5654 25.0761 53.3827C25.0004 53.2 24.9806 52.9989 25.0192 52.8049C25.0578 52.6109 25.153 52.4327 25.2929 52.2929C25.4327 52.153 25.6109 52.0578 25.8049 52.0192C25.9989 51.9806 26.2 52.0004 26.3827 52.0761C26.5654 52.1518 26.7216 52.28 26.8315 52.4444C26.9414 52.6089 27 52.8022 27 53C27 53.2652 26.8946 53.5196 26.7071 53.7071C26.5196 53.8946 26.2652 54 26 54ZM34 42C33.4067 42 32.8266 42.1759 32.3333 42.5056C31.8399 42.8352 31.4554 43.3038 31.2284 43.852C31.0013 44.4001 30.9419 45.0033 31.0576 45.5853C31.1734 46.1672 31.4591 46.7018 31.8787 47.1213C32.2982 47.5409 32.8328 47.8266 33.4147 47.9424C33.9967 48.0581 34.5999 47.9987 35.148 47.7716C35.6962 47.5446 36.1648 47.1601 36.4944 46.6667C36.8241 46.1734 37 45.5933 37 45C37 44.2044 36.6839 43.4413 36.1213 42.8787C35.5587 42.3161 34.7956 42 34 42ZM34 46C33.8022 46 33.6089 45.9414 33.4444 45.8315C33.28 45.7216 33.1518 45.5654 33.0761 45.3827C33.0004 45.2 32.9806 44.9989 33.0192 44.8049C33.0578 44.6109 33.153 44.4327 33.2929 44.2929C33.4327 44.153 33.6109 44.0578 33.8049 44.0192C33.9989 43.9806 34.2 44.0004 34.3827 44.0761C34.5654 44.1518 34.7216 44.28 34.8315 44.4444C34.9414 44.6089 35 44.8022 35 45C35 45.2652 34.8946 45.5196 34.7071 45.7071C34.5196 45.8946 34.2652 46 34 46ZM34 50C33.4067 50 32.8266 50.1759 32.3333 50.5056C31.8399 50.8352 31.4554 51.3038 31.2284 51.852C31.0013 52.4001 30.9419 53.0033 31.0576 53.5853C31.1734 54.1672 31.4591 54.7018 31.8787 55.1213C32.2982 55.5409 32.8328 55.8266 33.4147 55.9424C33.9967 56.0581 34.5999 55.9987 35.148 55.7716C35.6962 55.5446 36.1648 55.1601 36.4944 54.6667C36.8241 54.1734 37 53.5933 37 53C37 52.2044 36.6839 51.4413 36.1213 50.8787C35.5587 50.3161 34.7956 50 34 50ZM34 54C33.8022 54 33.6089 53.9414 33.4444 53.8315C33.28 53.7216 33.1518 53.5654 33.0761 53.3827C33.0004 53.2 32.9806 52.9989 33.0192 52.8049C33.0578 52.6109 33.153 52.4327 33.2929 52.2929C33.4327 52.153 33.6109 52.0578 33.8049 52.0192C33.9989 51.9806 34.2 52.0004 34.3827 52.0761C34.5654 52.1518 34.7216 52.28 34.8315 52.4444C34.9414 52.6089 35 52.8022 35 53C35 53.2652 34.8946 53.5196 34.7071 53.7071C34.5196 53.8946 34.2652 54 34 54ZM18 42C17.4067 42 16.8266 42.1759 16.3333 42.5056C15.8399 42.8352 15.4554 43.3038 15.2284 43.852C15.0013 44.4001 14.9419 45.0033 15.0576 45.5853C15.1734 46.1672 15.4591 46.7018 15.8787 47.1213C16.2982 47.5409 16.8328 47.8266 17.4147 47.9424C17.9967 48.0581 18.5999 47.9987 19.1481 47.7716C19.6962 47.5446 20.1648 47.1601 20.4944 46.6667C20.8241 46.1734 21 45.5933 21 45C21 44.2044 20.6839 43.4413 20.1213 42.8787C19.5587 42.3161 18.7957 42 18 42ZM18 46C17.8022 46 17.6089 45.9414 17.4444 45.8315C17.28 45.7216 17.1518 45.5654 17.0761 45.3827C17.0004 45.2 16.9806 44.9989 17.0192 44.8049C17.0578 44.6109 17.153 44.4327 17.2929 44.2929C17.4327 44.153 17.6109 44.0578 17.8049 44.0192C17.9989 43.9806 18.2 44.0004 18.3827 44.0761C18.5654 44.1518 18.7216 44.28 18.8315 44.4444C18.9414 44.6089 19 44.8022 19 45C19 45.2652 18.8946 45.5196 18.7071 45.7071C18.5196 45.8946 18.2652 46 18 46ZM18 50C17.4067 50 16.8266 50.1759 16.3333 50.5056C15.8399 50.8352 15.4554 51.3038 15.2284 51.852C15.0013 52.4001 14.9419 53.0033 15.0576 53.5853C15.1734 54.1672 15.4591 54.7018 15.8787 55.1213C16.2982 55.5409 16.8328 55.8266 17.4147 55.9424C17.9967 56.0581 18.5999 55.9987 19.1481 55.7716C19.6962 55.5446 20.1648 55.1601 20.4944 54.6667C20.8241 54.1734 21 53.5933 21 53C21 52.2044 20.6839 51.4413 20.1213 50.8787C19.5587 50.3161 18.7957 50 18 50ZM18 54C17.8022 54 17.6089 53.9414 17.4444 53.8315C17.28 53.7216 17.1518 53.5654 17.0761 53.3827C17.0004 53.2 16.9806 52.9989 17.0192 52.8049C17.0578 52.6109 17.153 52.4327 17.2929 52.2929C17.4327 52.153 17.6109 52.0578 17.8049 52.0192C17.9989 51.9806 18.2 52.0004 18.3827 52.0761C18.5654 52.1518 18.7216 52.28 18.8315 52.4444C18.9414 52.6089 19 52.8022 19 53C19 53.2652 18.8946 53.5196 18.7071 53.7071C18.5196 53.8946 18.2652 54 18 54ZM42 42C41.4067 42 40.8266 42.1759 40.3333 42.5056C39.8399 42.8352 39.4554 43.3038 39.2284 43.852C39.0013 44.4001 38.9419 45.0033 39.0576 45.5853C39.1734 46.1672 39.4591 46.7018 39.8787 47.1213C40.2982 47.5409 40.8328 47.8266 41.4147 47.9424C41.9967 48.0581 42.5999 47.9987 43.148 47.7716C43.6962 47.5446 44.1648 47.1601 44.4944 46.6667C44.8241 46.1734 45 45.5933 45 45C45 44.2044 44.6839 43.4413 44.1213 42.8787C43.5587 42.3161 42.7957 42 42 42ZM42 46C41.8022 46 41.6089 45.9414 41.4444 45.8315C41.28 45.7216 41.1518 45.5654 41.0761 45.3827C41.0004 45.2 40.9806 44.9989 41.0192 44.8049C41.0578 44.6109 41.153 44.4327 41.2929 44.2929C41.4327 44.153 41.6109 44.0578 41.8049 44.0192C41.9989 43.9806 42.2 44.0004 42.3827 44.0761C42.5654 44.1518 42.7216 44.28 42.8315 44.4444C42.9414 44.6089 43 44.8022 43 45C43 45.2652 42.8946 45.5196 42.7071 45.7071C42.5196 45.8946 42.2652 46 42 46ZM42 50C41.4067 50 40.8266 50.1759 40.3333 50.5056C39.8399 50.8352 39.4554 51.3038 39.2284 51.852C39.0013 52.4001 38.9419 53.0033 39.0576 53.5853C39.1734 54.1672 39.4591 54.7018 39.8787 55.1213C40.2982 55.5409 40.8328 55.8266 41.4147 55.9424C41.9967 56.0581 42.5999 55.9987 43.148 55.7716C43.6962 55.5446 44.1648 55.1601 44.4944 54.6667C44.8241 54.1734 45 53.5933 45 53C45 52.2044 44.6839 51.4413 44.1213 50.8787C43.5587 50.3161 42.7957 50 42 50ZM42 54C41.8022 54 41.6089 53.9414 41.4444 53.8315C41.28 53.7216 41.1518 53.5654 41.0761 53.3827C41.0004 53.2 40.9806 52.9989 41.0192 52.8049C41.0578 52.6109 41.153 52.4327 41.2929 52.2929C41.4327 52.153 41.6109 52.0578 41.8049 52.0192C41.9989 51.9806 42.2 52.0004 42.3827 52.0761C42.5654 52.1518 42.7216 52.28 42.8315 52.4444C42.9414 52.6089 43 52.8022 43 53C43 53.2652 42.8946 53.5196 42.7071 53.7071C42.5196 53.8946 42.2652 54 42 54ZM15 32L6 32C5.73478 32 5.48043 32.1054 5.29289 32.2929C5.10536 32.4804 5 32.7348 5 33C5 33.2652 5.10536 33.5196 5.29289 33.7071C5.48043 33.8946 5.73478 34 6 34L15 34C15.2652 34 15.5196 33.8946 15.7071 33.7071C15.8946 33.5196 16 33.2652 16 33C16 32.7348 15.8946 32.4804 15.7071 32.2929C15.5196 32.1054 15.2652 32 15 32ZM11 36L6 36C5.73478 36 5.48043 36.1054 5.29289 36.2929C5.10536 36.4804 5 36.7348 5 37C5 37.2652 5.10536 37.5196 5.29289 37.7071C5.48043 37.8946 5.73478 38 6 38L11 38C11.2652 38 11.5196 37.8946 11.7071 37.7071C11.8946 37.5196 12 37.2652 12 37C12 36.7348 11.8946 36.4804 11.7071 36.2929C11.5196 36.1054 11.2652 36 11 36Z" fill="rgb(0,0,0)" fill-rule="nonzero" />
	</g>
</svg>
