<svg viewBox="0 0 101.635 101" xmlns="http://www.w3.org/2000/svg" xmlns:xlink="http://www.w3.org/1999/xlink" width="101.634766" height="100.999512" fill="none" customFrame="#000000">
	<g id="Group">
		<g id="Group">
			<path id="Vector" d="M100.135 44.4679L87.4349 42.7746C86.3766 37.9064 84.6833 33.2498 81.9317 29.2283L89.7632 18.6451L81.5084 10.1786L71.3486 18.2218C67.5387 15.4702 63.0937 13.5652 58.4372 12.7186L56.9555 1.50049L44.8908 1.50049L43.4091 12.7186C38.7526 13.7769 34.3077 15.6819 30.4977 18.2218L20.1263 10.3903L11.8715 18.8568L19.703 29.4399C17.163 33.4615 15.2581 37.9064 14.1997 42.7746L1.5 44.4679L1.5 56.5327L14.1997 58.226C15.2581 63.0942 16.9514 67.5391 19.703 71.5607L11.8715 82.1438L20.1263 90.6103L30.2861 82.5672C34.096 85.1071 38.5409 87.2237 43.4091 88.0704L44.8908 99.5002L56.9555 99.5002L58.4372 88.0704C63.0937 87.0121 67.5387 85.1071 71.3486 82.5672L81.5084 90.6103L89.7632 82.1438L81.9317 71.5607C84.4716 67.5391 86.3766 63.0942 87.4349 58.226L100.135 56.5327L100.135 44.4679Z" fill-rule="nonzero" stroke="rgb(255,255,255)" stroke-linecap="round" stroke-linejoin="round" stroke-width="3.000000" />
			<path id="Vector" d="M50.8181 79.6039C34.803 79.6039 21.8203 66.6212 21.8203 50.6061C21.8203 34.5911 34.803 21.6084 50.8181 21.6084C66.8331 21.6084 79.8158 34.5911 79.8158 50.6061C79.8158 66.6212 66.8331 79.6039 50.8181 79.6039Z" stroke="rgb(255,255,255)" stroke-linecap="round" stroke-linejoin="round" stroke-width="3.000000" />
			<path id="Vector" d="M29.8633 30.2866C32.4032 30.9216 35.5782 32.1916 35.7898 34.7315C36.0015 36.4248 34.9432 37.9065 34.5199 39.3881C34.0965 41.5047 35.1548 43.833 37.0598 44.8913C37.6948 45.3146 38.5414 45.5263 38.7531 46.1613C38.9648 46.5846 38.9648 47.2196 38.9648 47.6429C38.9648 50.1829 40.8697 52.0878 42.7747 53.5695C44.6796 55.0511 47.0079 56.1094 48.4896 58.0144C49.9712 59.9193 50.3945 63.0943 48.2779 64.5759C45.738 66.6925 41.293 64.1526 38.7531 66.0576C37.4831 67.1159 37.0598 69.0208 36.2132 70.5025C35.3665 71.9841 33.2499 73.2541 31.9799 72.1958" fill-rule="nonzero" stroke="rgb(255,255,255)" stroke-linecap="round" stroke-linejoin="round" stroke-width="3.000000" />
			<path id="Vector" d="M39.5996 50.3945C41.0812 50.8178 42.5629 51.2411 44.0445 51.0295C45.5262 51.0295 47.0078 50.1828 47.8544 48.9129C48.9128 47.2196 48.0661 44.8913 48.2778 42.9863C48.2778 42.1397 48.7011 41.0814 49.5477 40.658C49.9711 40.4464 50.3944 40.4464 50.8177 40.4464C52.7227 40.2347 54.8393 40.8697 56.7443 41.293C58.6492 41.7163 60.5542 42.3513 62.4591 42.7747C64.3641 43.198 66.4807 43.833 68.3857 43.4096C70.2906 42.9863 72.1956 41.5047 72.1956 39.3881C72.1956 36.6364 68.809 34.9431 68.5974 32.1915C68.3857 30.4982 67.9624 29.4399 69.6557 29.0166M64.1524 75.794C63.0941 74.1007 62.2475 72.1957 62.0358 70.2908C62.0358 69.8674 61.8242 69.6558 62.0358 69.2325C62.2475 69.0208 62.4591 68.8091 62.6708 68.8091C63.5175 68.3858 64.1524 67.9625 64.9991 67.3275C65.4224 67.1158 65.6341 66.6925 65.8457 66.2692C66.4807 64.9992 65.2108 63.7292 64.5758 62.4593C63.3058 60.131 63.9408 56.956 66.2691 55.4744C68.5973 54.2044 71.9839 55.2627 72.6189 57.8027C73.0423 59.0727 72.8306 60.5543 73.4656 61.6126C74.1006 62.8826 75.7939 63.5176 76.0055 64.7875" fill-rule="nonzero" stroke="rgb(255,255,255)" stroke-linecap="round" stroke-linejoin="round" stroke-width="3.000000" />
		</g>
	</g>
</svg>
