<svg viewBox="0 0 100 68" xmlns="http://www.w3.org/2000/svg" xmlns:xlink="http://www.w3.org/1999/xlink" width="100.000000" height="68.000000" fill="none" customFrame="#000000">
	<g id="Group">
		<path id="Vector" d="M99.7076 31.4488L88.7516 2.94271C88.3184 1.81533 87.4539 0.917645 86.3178 0.414256C85.1811 -0.0881878 83.9139 -0.135374 82.7473 0.282512L75.414 2.91421C73 3.78094 71.7652 6.38432 72.6617 8.71723L72.7806 9.02678C71.0457 9.66323 69.1094 8.96808 66.1496 7.7701C61.7302 5.9821 55.7363 3.58124 48.1271 8.18044C41.9513 4.46571 37.1054 5.38208 32.8138 6.20784C30.6339 6.62648 28.5575 7.02059 26.4132 6.80617C26.3529 6.26164 26.1984 5.72503 25.9318 5.22164C25.3616 4.14616 24.3956 3.3504 23.212 2.9814L15.7677 0.66076C14.5835 0.29176 13.3185 0.392173 12.206 0.941804C11.0935 1.49276 10.27 2.4263 9.88858 3.57011L0.22587 32.5103C-0.56456 34.8789 0.786223 37.4273 3.2374 38.1912L10.6815 40.5126C11.1442 40.6576 11.6274 40.7316 12.1138 40.7319C12.8448 40.7319 13.5716 40.5636 14.2429 40.2316C14.6575 40.0262 15.0159 39.7527 15.3423 39.4499C15.3882 39.6689 15.4497 39.8854 15.5052 40.1028L13.6415 43.4699C12.8423 44.9147 12.6874 46.6667 13.2175 48.2759C13.7335 49.8429 14.8218 51.0943 16.2491 51.7834C17.447 52.4042 18.8201 52.6353 20.1646 52.4423C19.7929 53.6335 19.7999 54.9398 20.2028 56.1641C20.7189 57.731 21.8071 58.9828 23.2345 59.6719C24.7275 60.4435 26.446 60.6045 28.0745 60.1285C28.7151 59.9417 29.3215 59.659 29.8714 59.2906C30.3941 60.8333 31.474 62.0645 32.8851 62.7458C34.3777 63.5174 36.0962 63.6785 37.7247 63.2024C38.0824 63.0977 38.43 62.9633 38.7638 62.8008C39.2535 64.7005 40.6513 66.3924 42.3937 67.2931C43.2259 67.7229 44.206 68 45.2234 68C47.0722 68 49.0437 67.0844 50.4699 64.5082L50.748 64.0054L51.0632 64.165L51.807 64.5399C52.7179 64.9931 53.6084 65.1928 54.4455 65.1928C56.5339 65.1928 58.2882 63.9489 59.1851 62.297C59.8027 61.1604 60.0201 59.8089 59.7205 58.4972C60.474 58.5349 61.2359 58.4483 61.9806 58.2303C63.6531 57.7405 65.0256 56.6554 65.8451 55.1746C66.5072 53.9784 66.7468 52.6356 66.5472 51.3114C67.9461 51.8725 69.4931 51.9456 70.9685 51.5137C72.6554 51.0198 74.0398 49.9247 74.8664 48.4313C75.542 47.2099 75.7818 45.8373 75.5672 44.4865C77.8471 45.3647 80.0469 44.9631 81.5742 43.3459C83.1227 41.707 83.6434 39.1961 83.0643 36.9555L83.44 36.825L83.4615 36.8177L83.6178 37.2239C84.3164 39.0404 86.1045 40.1655 88.0012 40.1655C88.5546 40.1654 89.1035 40.0699 89.6221 39.8833L96.9549 37.2516C99.3694 36.3849 100.604 33.7821 99.7076 31.4488ZM13.9888 36.8011C13.8282 37.2814 13.4812 37.6742 13.0108 37.9068C12.5398 38.1393 12.0075 38.1821 11.5112 38.0276L4.0667 35.7056C3.03388 35.3838 2.46455 34.31 2.79755 33.3119L12.4607 4.3719C12.6208 3.89192 12.9679 3.49914 13.438 3.2666C13.7163 3.12783 14.0248 3.0551 14.338 3.05445C14.5416 3.05457 14.7439 3.08552 14.9376 3.14618L22.3821 5.4672C22.8788 5.62197 23.2853 5.95738 23.5259 6.41169C23.7665 6.86619 23.8109 7.38053 23.6509 7.86089L15.9366 30.9669C15.9028 31.0299 15.8702 31.0945 15.847 31.1643C15.7792 31.3663 15.7269 31.5707 15.6673 31.774L13.9888 36.8011ZM17.4907 49.4639C16.6884 49.0766 16.0853 48.3735 15.7929 47.4841C15.4827 46.5425 15.5673 45.5284 16.0247 44.7018L18.1302 40.8976C18.1306 40.8973 18.1312 40.8969 18.1314 40.8963L19.137 39.0791C20.0739 37.3871 22.2448 36.7333 24.0066 37.5925C25.1622 38.3733 26.8956 40.0337 25.5804 42.4097L24.8638 43.7045L22.4655 48.0376C21.514 49.7499 19.2987 50.3993 17.4907 49.4639ZM29.4538 55.9208C28.9964 56.748 28.2279 57.3547 27.29 57.6293C26.3527 57.9039 25.3646 57.8112 24.4761 57.3526C23.6737 56.9653 23.0706 56.2618 22.7782 55.3725C22.4681 54.4314 22.553 53.417 23.0105 52.5907L24.8488 49.2699L27.247 44.9368C27.7044 44.1099 28.473 43.5035 29.4103 43.2289C30.3482 42.9535 31.3353 43.0465 32.1917 43.4889C33.0474 43.931 33.6749 44.6737 33.9591 45.5801C34.2433 46.4859 34.1474 47.4407 33.6894 48.268L33.0159 49.4854C33.0156 49.4868 33.0146 49.4879 33.0138 49.4892L30.2777 54.4327L30.2773 54.4334L29.4538 55.9208ZM36.9406 60.703C36.0027 60.9777 35.0156 60.885 34.1267 60.4263C33.3243 60.039 32.7216 59.3359 32.4288 58.4468C32.1197 57.5064 32.2033 56.4944 32.6589 55.6684L32.6611 55.6646L35.3972 50.7212L35.3978 50.7195L35.3993 50.717C35.8574 49.8918 36.6249 49.2871 37.5609 49.0128C38.4978 48.7369 39.4859 48.8301 40.3417 49.2729C42.1179 50.1912 42.7902 52.3349 41.8404 54.0514L40.4724 56.5234L39.2597 58.7144L39.2583 58.7169L39.1044 58.9949C38.647 59.8214 37.8781 60.4284 36.9406 60.703ZM43.6683 64.99C41.8968 64.0744 40.6292 61.7776 41.6431 59.9458L42.8558 57.7548L42.8572 57.7518C43.33 56.9 44.1707 56.2156 45.1644 55.8745C46.1564 55.5336 47.1523 55.5791 47.9695 56.0015C49.7501 56.9215 50.0375 57.7265 50.098 58.252C50.1904 59.0464 49.8423 60.1028 48.971 61.677L48.9695 61.6807L48.0865 63.2762C46.5908 65.981 44.6769 65.5108 43.6683 64.99ZM56.7921 61.0839C56.1548 62.2593 54.749 63.0662 53.0439 62.2185L52.3199 61.8533C52.2001 61.7921 52.0884 61.7355 51.9847 61.6832C52.532 60.5069 52.9308 59.2287 52.7839 57.9615C52.6183 56.5325 51.7978 55.3407 50.3091 54.3357L55.6312 57.0976C57.4097 58.3044 57.4037 59.9581 56.7921 61.0839ZM79.5781 41.5852C78.708 42.5073 77.5137 42.5854 76.0273 41.8165L72.173 39.8244L72.165 39.8207C72.1256 39.8003 72.0844 39.7886 72.0439 39.7723L59.6156 33.2528C58.9611 32.908 58.1398 33.1435 57.7836 33.7777C57.6989 33.9284 57.6458 34.0938 57.6273 34.2643C57.6088 34.4349 57.6252 34.6073 57.6756 34.7717C57.7261 34.9361 57.8095 35.0893 57.9212 35.2225C58.033 35.3558 58.1707 35.4664 58.3267 35.5482L71.0179 42.2057C71.858 42.6817 72.4818 43.4304 72.7689 44.3447C73.0707 45.3071 72.9691 46.3209 72.4826 47.1997C71.9965 48.0783 71.1801 48.7229 70.1842 49.0145C69.1865 49.3057 68.1383 49.208 67.2299 48.7382L63.3978 46.7575C63.3304 46.7038 63.2577 46.6566 63.1808 46.6165L53.9328 41.838C53.7763 41.757 53.6049 41.7067 53.4283 41.6899C53.2517 41.673 53.0734 41.69 52.9035 41.7397C52.7337 41.7895 52.5757 41.8712 52.4386 41.98C52.3014 42.0888 52.1878 42.2227 52.1043 42.374C52.0205 42.5252 51.9685 42.6909 51.951 42.8615C51.9336 43.0322 51.9512 43.2045 52.0027 43.3686C52.0542 43.5327 52.1387 43.6854 52.2513 43.818C52.3639 43.9505 52.5024 44.0603 52.6589 44.1411L61.6746 48.7995C61.7414 48.8524 61.8138 48.9005 61.8929 48.9413C62.789 49.4043 63.4463 50.1813 63.7435 51.1302C64.0408 52.0786 63.9406 53.0775 63.4615 53.9431C62.9824 54.809 62.1779 55.4436 61.1964 55.7314C60.2156 56.0183 59.1814 55.9219 58.2857 55.4589L56.3295 54.448C56.2331 54.3996 56.1309 54.3626 56.0254 54.3379L48.1296 50.2408C47.472 49.8973 46.6525 50.1376 46.3001 50.7734C46.2161 50.9245 46.1638 51.0901 46.146 51.2607C46.1282 51.4313 46.1454 51.6036 46.1966 51.7678C46.2478 51.932 46.332 52.0848 46.4443 52.2176C46.5567 52.3503 46.695 52.4604 46.8513 52.5414L48.5107 53.4025C47.3841 53.0012 46.1501 52.9253 44.9154 53.2224C45.2642 50.75 44.0224 48.2131 41.6162 46.9692C40.1376 46.205 38.4363 46.0387 36.8214 46.5C36.8093 45.9312 36.7164 45.3666 36.5452 44.8223C36.0517 43.2481 34.9577 41.9567 33.4656 41.1855C31.9656 40.4109 30.2853 40.2774 28.7646 40.6872C28.7386 38.4687 27.2814 36.6236 25.546 35.4462C25.4862 35.4017 25.4226 35.3621 25.356 35.3277C22.7652 33.9891 19.6339 34.5676 17.7148 36.5485C17.6837 35.1905 17.8759 33.8268 18.2663 32.4922L25.979 9.39087C28.5863 9.68248 30.9986 9.22024 33.3402 8.76914C37.2331 8.02095 40.9304 7.30975 45.708 9.82631C44.6671 10.6272 43.6203 11.5411 42.5794 12.5571C41.7556 13.3623 40.9083 14.1662 40.0818 14.9504C37.0685 17.8105 34.4661 20.2806 33.722 22.0337C33.6335 22.242 33.6023 22.4688 33.6314 22.6922C33.6604 22.9156 33.7488 23.1279 33.8878 23.3085C39.2663 30.2987 45.7845 27.9268 51.0199 26.0216C54.9449 24.5927 58.3347 23.3583 61.0351 25.4234C61.0861 25.4625 61.1398 25.4978 61.1961 25.5293C62.4857 26.2514 64.2621 27.0991 66.3189 28.0808C71.2918 30.4545 78.1025 33.7052 79.8625 36.2903C81.0451 38.0262 80.6699 40.4294 79.5781 41.5852ZM81.9103 34.5816C79.5512 31.4897 72.901 28.3094 67.5164 25.7397C65.5467 24.7994 63.8394 23.985 62.6314 23.3145C58.7525 20.4175 54.3382 22.0235 50.0679 23.5777C45.0066 25.4187 40.6056 27.0196 36.5855 22.3976C37.5298 21.0339 39.7847 18.8939 41.9757 16.8145C42.8115 16.0212 43.6675 15.2084 44.5007 14.3947C45.9445 12.9856 47.3892 11.8002 48.7978 10.8635C55.6052 6.33959 60.6517 8.37787 65.1054 10.1791C67.1879 11.0216 69.3135 11.8816 71.416 11.8816C72.1883 11.8816 72.9564 11.7453 73.7193 11.4699L82.5203 34.3694L81.9103 34.5816ZM96.0145 34.8032L88.6816 37.4349C87.6611 37.7988 86.5283 37.2971 86.151 36.3143L75.1953 7.80728C75.0137 7.33466 75.0347 6.81901 75.2547 6.35469C75.475 5.89056 75.8656 5.53817 76.3549 5.36245L83.6877 2.73075C83.9048 2.65252 84.1347 2.61238 84.3664 2.61222C84.6471 2.61222 84.9273 2.67129 85.1916 2.78813C85.6715 3.00066 86.0361 3.37853 86.2178 3.85172L97.1738 32.358C97.5518 33.3413 97.0315 34.438 96.0145 34.8032Z" fill="rgb(255,255,255)" fill-rule="nonzero" />
	</g>
</svg>
