<svg viewBox="0 0 101 100" xmlns="http://www.w3.org/2000/svg" xmlns:xlink="http://www.w3.org/1999/xlink" width="101.000000" height="100.000000" fill="none" customFrame="#000000">
	<g id="Group 19">
		<g id="Group">
			<path id="Vector" d="M14.6618 90.3224L8.14563 90.3224C7.71359 90.3224 7.29924 90.4923 6.99373 90.7948C6.68823 91.0973 6.5166 91.5075 6.5166 91.9353C6.5166 92.363 6.68823 92.7733 6.99373 93.0758C7.29924 93.3783 7.71359 93.5482 8.14563 93.5482L14.6618 93.5482C15.0938 93.5482 15.5082 93.3783 15.8137 93.0758C16.1192 92.7733 16.2908 92.363 16.2908 91.9353C16.2908 91.5075 16.1192 91.0973 15.8137 90.7948C15.5082 90.4923 15.0938 90.3224 14.6618 90.3224ZM19.5489 85.4814L8.14563 85.4814C7.71359 85.4814 7.29924 85.6514 6.99373 85.9538C6.68823 86.2563 6.5166 86.6666 6.5166 87.0943C6.5166 87.5221 6.68823 87.9324 6.99373 88.2348C7.29924 88.5373 7.71359 88.7073 8.14563 88.7073L19.5489 88.7073C19.9809 88.7073 20.3953 88.5373 20.7008 88.2348C21.0063 87.9324 21.1779 87.5221 21.1779 87.0943C21.1779 86.6666 21.0063 86.2563 20.7008 85.9538C20.3953 85.6514 19.9809 85.4814 19.5489 85.4814Z" fill="rgb(255,255,255)" fill-rule="evenodd" />
			<path id="Vector" d="M99.371 48.3871L76.5645 48.3871L76.5645 1.6129C76.5645 1.18513 76.3929 0.774886 76.0874 0.472408C75.7819 0.16993 75.3675 3.58136e-16 74.9355 0L26.0645 0C25.6325 3.58136e-16 25.2181 0.16993 24.9126 0.472408C24.6071 0.774886 24.4355 1.18513 24.4355 1.6129L24.4355 48.3871L1.62903 48.3871C1.19699 48.3871 0.782635 48.557 0.477132 48.8595C0.17163 49.162 3.61718e-16 49.5722 0 50L0 98.3871C3.61718e-16 98.8149 0.17163 99.2251 0.477132 99.5276C0.782635 99.8301 1.19699 100 1.62903 100L99.371 100C99.803 100 100.217 99.8301 100.523 99.5276C100.828 99.2251 101 98.8149 101 98.3871L101 50C101 49.5722 100.828 49.162 100.523 48.8595C100.217 48.557 99.803 48.3871 99.371 48.3871ZM81.4516 51.6129L81.4516 67.7419L68.4194 67.7419L68.4194 51.6129L81.4516 51.6129ZM43.9839 3.22581L57.0161 3.22581L57.0161 19.3548L43.9839 19.3548L43.9839 3.22581ZM19.5484 51.6129L32.5806 51.6129L32.5806 67.7419L19.5484 67.7419L19.5484 51.6129ZM48.871 96.7742L3.25806 96.7742L3.25806 51.6129L16.2903 51.6129L16.2903 69.3548C16.2903 69.7826 16.462 70.1929 16.7675 70.4953C17.073 70.7978 17.4873 70.9677 17.9194 70.9677L34.2097 70.9677C34.6417 70.9677 35.0561 70.7978 35.3616 70.4953C35.6671 70.1929 35.8387 69.7826 35.8387 69.3548L35.8387 51.6129L48.871 51.6129L48.871 96.7742ZM27.6935 48.3871L27.6935 3.22581L40.7258 3.22581L40.7258 20.9677C40.7258 21.3955 40.8974 21.8058 41.2029 22.1082C41.5084 22.4107 41.9228 22.5806 42.3548 22.5806L58.6452 22.5806C59.0772 22.5806 59.4916 22.4107 59.7971 22.1082C60.1026 21.8058 60.2742 21.3955 60.2742 20.9677L60.2742 3.22581L73.3064 3.22581L73.3064 48.3871L27.6935 48.3871ZM97.7419 96.7742L52.129 96.7742L52.129 51.6129L65.1613 51.6129L65.1613 69.3548C65.1613 69.7826 65.3329 70.1929 65.6384 70.4953C65.9439 70.7978 66.3583 70.9677 66.7903 70.9677L83.0806 70.9677C83.5127 70.9677 83.927 70.7978 84.2325 70.4953C84.538 70.1929 84.7097 69.7826 84.7097 69.3548L84.7097 51.6129L97.7419 51.6129L97.7419 96.7742Z" fill="rgb(255,255,255)" fill-rule="evenodd" />
			<path id="Vector" d="M63.5318 90.3223L57.0157 90.3223C56.5836 90.3223 56.1693 90.4922 55.8638 90.7947C55.5583 91.0972 55.3867 91.5074 55.3867 91.9352C55.3867 92.3629 55.5583 92.7732 55.8638 93.0757C56.1693 93.3781 56.5836 93.5481 57.0157 93.5481L63.5318 93.5481C63.9639 93.5481 64.3782 93.3781 64.6837 93.0757C64.9892 92.7732 65.1608 92.3629 65.1608 91.9352C65.1608 91.5074 64.9892 91.0972 64.6837 90.7947C64.3782 90.4922 63.9639 90.3223 63.5318 90.3223ZM68.4189 85.4813L57.0157 85.4813C56.5836 85.4813 56.1693 85.6513 55.8638 85.9538C55.5583 86.2562 55.3867 86.6665 55.3867 87.0942C55.3867 87.522 55.5583 87.9323 55.8638 88.2347C56.1693 88.5372 56.5836 88.7071 57.0157 88.7071L68.4189 88.7071C68.851 88.7071 69.2653 88.5372 69.5708 88.2347C69.8763 87.9323 70.0479 87.522 70.0479 87.0942C70.0479 86.6665 69.8763 86.2562 69.5708 85.9538C69.2653 85.6513 68.851 85.4813 68.4189 85.4813ZM40.7254 43.5481C40.7254 43.1203 40.5537 42.7101 40.2482 42.4076C39.9427 42.1051 39.5284 41.9352 39.0963 41.9352L32.5802 41.9352C32.1482 41.9352 31.7338 42.1051 31.4283 42.4076C31.1228 42.7101 30.9512 43.1203 30.9512 43.5481C30.9512 43.9758 31.1228 44.3861 31.4283 44.6886C31.7338 44.991 32.1482 45.161 32.5802 45.161L39.0963 45.161C39.5284 45.161 39.9427 44.991 40.2482 44.6886C40.5537 44.3861 40.7254 43.9758 40.7254 43.5481ZM32.5802 40.32L43.9834 40.32C44.4155 40.32 44.8298 40.1501 45.1353 39.8476C45.4408 39.5452 45.6125 39.1349 45.6125 38.7071C45.6125 38.2794 45.4408 37.8691 45.1353 37.5667C44.8298 37.2642 44.4155 37.0942 43.9834 37.0942L32.5802 37.0942C32.1482 37.0942 31.7338 37.2642 31.4283 37.5667C31.1228 37.8691 30.9512 38.2794 30.9512 38.7071C30.9512 39.1349 31.1228 39.5452 31.4283 39.8476C31.7338 40.1501 32.1482 40.32 32.5802 40.32Z" fill="rgb(255,255,255)" fill-rule="evenodd" />
		</g>
		<g id="Group" opacity="0">
			<path id="Vector 27" d="M80.0518 39.3032C72.213 45.0744 61.5435 43.5321 57.1886 42.0395L56.1836 43.0346L56.1836 74.3779L58.4448 79.353L70.5045 92.7858L80.8055 99.0047C90.0513 93.6316 100.235 80.348 104.171 74.3779L103.417 42.0395C92.1617 45.4226 83.1504 41.6249 80.0518 39.3032Z" fill="rgb(255,255,255)" fill-rule="evenodd" />
			<path id="Vector" d="M105.039 41.3631C105.04 41.1681 104.992 40.9759 104.899 40.8041C104.806 40.6322 104.671 40.4863 104.506 40.3798C104.341 40.2732 104.152 40.2094 103.955 40.1943C103.759 40.1791 103.562 40.2131 103.382 40.293C95.9831 43.7026 87.2735 42.6803 80.8846 37.6526C80.6702 37.4661 80.3946 37.3633 80.1093 37.3633C79.8239 37.3633 79.5483 37.4661 79.3339 37.6526C72.9181 42.616 64.2463 43.6338 56.8363 40.293C56.6567 40.2131 56.4596 40.1791 56.2633 40.1943C56.0669 40.2094 55.8776 40.2732 55.7127 40.3798C55.5477 40.4863 55.4125 40.6322 55.3194 40.8041C55.2263 40.9759 55.1783 41.1681 55.1799 41.3631C55.1799 41.6074 55.2621 65.5921 55.1799 73.5366C55.1329 77.7822 65.1422 91.5658 79.5101 100.01C79.6887 100.113 79.8913 100.166 80.0975 100.166C80.3037 100.166 80.5063 100.113 80.6849 100.01C95.0763 91.5658 105.086 77.7822 105.039 73.5366C104.956 65.5921 105.039 41.6074 105.039 41.3631ZM102.689 73.5482C102.689 76.1072 94.4654 88.9603 80.1093 97.6492C65.7061 88.9719 57.506 76.1188 57.5295 73.5598C57.6 66.8483 57.553 48.7842 57.5295 43.0846C61.2617 44.4368 65.2719 44.8618 69.2086 44.3224C73.1453 43.7829 76.8883 42.2955 80.1093 39.9906C83.3303 42.2955 87.0732 43.7829 91.0099 44.3224C94.9466 44.8618 98.9568 44.4368 102.689 43.0846C102.689 48.7726 102.63 66.8483 102.689 73.5482Z" fill="rgb(27,29,31)" fill-rule="evenodd" />
			<path id="Vector" d="M98.9044 48.4354C98.906 48.2404 98.858 48.0481 98.7649 47.8763C98.6718 47.7045 98.5365 47.5586 98.3716 47.452C98.2067 47.3454 98.0173 47.2816 97.821 47.2665C97.6246 47.2513 97.4276 47.2853 97.2479 47.3652C91.8774 49.8651 85.5411 49.1445 80.8829 45.5042C80.6685 45.3177 80.3929 45.2148 80.1075 45.2148C79.8221 45.2148 79.5465 45.3177 79.3321 45.5042C74.6728 49.1023 68.3795 49.8374 63.0023 47.4118C62.8227 47.3318 62.6256 47.2979 62.4293 47.313C62.2329 47.3282 62.0436 47.392 61.8786 47.4985C61.7137 47.6051 61.5784 47.751 61.4853 47.9228C61.3922 48.0947 61.3443 48.2869 61.3458 48.4819C61.3458 48.6564 61.4046 66.4181 61.3458 72.3037C61.3106 75.5025 68.7824 85.8547 79.5083 92.1591C79.6869 92.2612 79.8895 92.315 80.0957 92.315C80.302 92.315 80.5046 92.2612 80.6832 92.1591C91.4326 85.8547 98.9044 75.5025 98.9044 72.2572C98.8457 66.3715 98.9044 48.6215 98.9044 48.4354ZM96.5548 72.2572C96.5548 73.8973 90.6808 83.3539 80.1075 89.7048C69.6165 83.319 63.6602 73.8624 63.6602 72.2572C63.7424 67.5114 63.6602 54.8096 63.6602 50.1569C66.3886 51.107 69.3082 51.3916 72.1714 50.9867C75.0346 50.5817 77.7569 49.499 80.1075 47.8305C82.4581 49.499 85.1804 50.5817 88.0436 50.9867C90.9068 51.3916 93.8264 51.107 96.5548 50.1569L96.5548 72.2572Z" fill="rgb(27,29,31)" fill-rule="evenodd" />
		</g>
	</g>
</svg>
