<svg viewBox="0 0 100.748 100" xmlns="http://www.w3.org/2000/svg" xmlns:xlink="http://www.w3.org/1999/xlink" width="100.748047" height="100.000488" fill="none" customFrame="#000000">
	<rect id="icon/инд подход" width="100.000000" height="100.000000" x="0.374023" y="0.000000" />
	<g id="Group">
		<path id="Vector" d="M88.3144 44.5313C88.1325 44.5311 87.9523 44.4964 87.7833 44.4291L76.9313 40.1113C76.6691 40.0073 76.4432 39.8285 76.2818 39.5972C76.1203 39.3659 76.0304 39.0922 76.0232 38.8102C76.016 38.5282 76.0918 38.2504 76.2412 38.0111C76.3907 37.7718 76.6071 37.5818 76.8636 37.4645C77.9305 36.9735 78.7686 36.0921 79.2053 35.0019C79.4269 34.4437 79.5364 33.8473 79.5273 33.2468C79.5183 32.6463 79.3909 32.0535 79.1526 31.5022C78.9143 30.9509 78.5696 30.4521 78.1383 30.0341C77.707 29.6161 77.1976 29.2873 76.6391 29.0664C75.5126 28.6183 74.2543 28.6354 73.1404 29.1141C72.0265 29.5928 71.148 30.4939 70.6978 31.6196C70.4776 32.1563 70.3652 32.7311 70.3672 33.3112C70.3692 33.8913 70.4854 34.4653 70.7093 35.0005C70.821 35.2619 70.8527 35.5504 70.8005 35.8298C70.7483 36.1092 70.6146 36.3669 70.4162 36.5704C70.2178 36.7739 69.9635 36.9141 69.6855 36.9734C69.4076 37.0326 69.1183 37.0081 68.8541 36.9032L57.9603 32.5739C57.7845 32.5041 57.6241 32.4003 57.4883 32.2684C57.3526 32.1366 57.2442 31.9793 57.1693 31.8055C57.0945 31.6317 57.0546 31.4449 57.0521 31.2556C57.0495 31.0664 57.0842 30.8786 57.1544 30.7028L60.5107 22.2615C59.5738 22.2563 58.6462 22.0752 57.7761 21.7276C56.761 21.3199 55.848 20.6938 55.1021 19.8935C54.3562 19.0933 53.7957 18.1386 53.4603 17.0973C53.125 16.0561 53.023 14.9537 53.1617 13.8686C53.3004 12.7835 53.6763 11.7422 54.2627 10.8187C54.8492 9.89524 55.6318 9.11223 56.5549 8.5253C57.4781 7.93837 58.5192 7.56191 59.6042 7.42267C60.6893 7.28343 61.7917 7.38482 62.8332 7.71964C63.8746 8.05446 64.8296 8.6145 65.6302 9.35997L68.9952 0.907177C69.0651 0.731421 69.169 0.571173 69.3009 0.435598C69.4328 0.300023 69.5902 0.191779 69.7639 0.117056C69.9377 0.0423339 70.1245 0.00259907 70.3136 0.000123294C70.5028 -0.00235248 70.6906 0.0324797 70.8662 0.102628L98.0568 10.9101C99.1081 11.3294 99.9502 12.1485 100.399 13.1877C100.847 14.227 100.865 15.4016 100.449 16.4541L89.6544 43.6145C89.5492 43.8844 89.3651 44.1163 89.126 44.2798C88.8869 44.4434 88.6041 44.531 88.3144 44.5313ZM80.3985 38.3971L87.507 41.221L97.7704 15.3977C97.9014 15.0545 97.8933 14.6738 97.7479 14.3364C97.6024 13.9991 97.3312 13.7318 96.9917 13.5914L71.1397 3.30931L67.3573 12.8444C67.253 13.1075 67.0735 13.334 66.8413 13.4956C66.609 13.6572 66.3342 13.7468 66.0513 13.7531C65.7684 13.7594 65.4899 13.6821 65.2507 13.531C65.0114 13.3799 64.822 13.1616 64.7062 12.9034C64.334 12.0881 63.7305 11.4002 62.9706 10.925C62.2107 10.4499 61.3279 10.2086 60.432 10.231C59.536 10.2534 58.6664 10.5387 57.9313 11.0512C57.1961 11.5638 56.6278 12.2811 56.2969 13.1141C55.9661 13.947 55.8873 14.8587 56.0703 15.7361C56.2534 16.6134 56.6902 17.4176 57.3265 18.0487C57.9629 18.6798 58.7706 19.11 59.6494 19.2858C60.5282 19.4616 61.4393 19.3753 62.2695 19.0376C62.5308 18.93 62.8181 18.9017 63.0954 18.9563C63.3727 19.0109 63.6278 19.1459 63.8288 19.3445C64.0299 19.5431 64.1681 19.7966 64.2261 20.0732C64.284 20.3498 64.2593 20.6374 64.1549 20.9L60.361 30.4265L67.4883 33.2604C67.4932 32.0445 67.795 30.8483 68.3675 29.7757C68.9401 28.703 69.766 27.7865 70.7735 27.1058C71.7809 26.4251 72.9394 26.0008 74.1482 25.8698C75.357 25.7388 76.5795 25.9052 77.7094 26.3543C78.8392 26.8034 79.8423 27.5218 80.6313 28.4469C81.4203 29.372 81.9713 30.4758 82.2365 31.6624C82.5017 32.849 82.4731 34.0824 82.153 35.2554C81.8329 36.4284 81.2311 37.5054 80.3999 38.3928L80.3985 38.3971ZM83.3331 59.0261C83.1441 59.027 82.9568 58.9906 82.7819 58.919C82.6069 58.8475 82.4478 58.7422 82.3135 58.6091C82.1793 58.4761 82.0725 58.3179 81.9994 58.1436C81.9263 57.9693 81.8882 57.7823 81.8874 57.5933C81.8865 57.4043 81.9229 57.217 81.9945 57.042C82.066 56.8671 82.1713 56.708 82.3044 56.5737C82.4374 56.4395 82.5956 56.3327 82.7699 56.2596C82.9442 56.1865 83.1312 56.1484 83.3202 56.1476L83.3331 56.1476C83.7148 56.1476 84.0809 56.2992 84.3508 56.5691C84.6208 56.839 84.7724 57.2051 84.7724 57.5868C84.7724 57.9686 84.6208 58.3346 84.3508 58.6046C84.0809 58.8745 83.7148 59.0261 83.3331 59.0261ZM68.4065 59.0261C68.0248 59.028 67.658 58.8782 67.3867 58.6096C67.1154 58.3411 66.962 57.9758 66.9601 57.594C66.9581 57.2123 67.108 56.8455 67.3765 56.5742C67.6451 56.303 68.0104 56.1495 68.3921 56.1476L68.4065 56.1476C68.7882 56.1476 69.1543 56.2992 69.4242 56.5691C69.6942 56.839 69.8458 57.2051 69.8458 57.5868C69.8458 57.9686 69.6942 58.3346 69.4242 58.6046C69.1543 58.8745 68.7882 59.0261 68.4065 59.0261Z" fill="rgb(255,255,255)" fill-rule="nonzero" />
		<path id="Vector" d="M68.3924 59.0326C68.0122 59.0326 67.6474 58.8821 67.3777 58.6141C67.1081 58.346 66.9554 57.9822 66.9532 57.602C66.9515 57.3421 67.0202 57.0866 67.152 56.8626C67.2838 56.6386 67.4738 56.4545 67.7018 56.3298C67.9298 56.2051 68.1873 56.1445 68.447 56.1544C68.7067 56.1642 68.9589 56.2442 69.1768 56.3858C69.3947 56.5275 69.5701 56.7255 69.6846 56.9588C69.799 57.1921 69.8482 57.4521 69.8268 57.7111C69.8054 57.9701 69.7142 58.2184 69.5631 58.4298C69.4119 58.6412 69.2063 58.8077 68.9681 58.9117C68.7868 58.992 68.5907 59.0332 68.3924 59.0326Z" fill="rgb(255,255,255)" fill-rule="nonzero" />
		<path id="Vector" d="M79.6906 100L5.07628 100C3.7321 100.001 2.44266 99.4678 1.49096 98.5185C0.539263 97.5692 0.00304972 96.2812 0 94.937L0 20.3097C0.00533378 18.9675 0.542739 17.6823 1.49436 16.7358C2.44597 15.7893 3.73412 15.2588 5.07628 15.2607L42.3691 15.2607C42.7508 15.2607 43.1169 15.4124 43.3868 15.6823C43.6567 15.9522 43.8083 16.3183 43.8083 16.7L43.8083 31.6223C43.8094 31.9062 43.7265 32.1841 43.5701 32.421C43.4136 32.6579 43.1906 32.8433 42.9291 32.9537C42.6675 33.0642 42.3791 33.0948 42.1002 33.0418C41.8213 32.9888 41.5643 32.8544 41.3616 32.6557C40.204 31.536 38.6543 30.9135 37.0438 30.9214C35.3917 30.9214 33.8073 31.5777 32.6391 32.7458C31.4709 33.914 30.8146 35.4984 30.8146 37.1505C30.8146 38.8026 31.4709 40.387 32.6391 41.5552C33.8073 42.7234 35.3917 43.3797 37.0438 43.3797C38.6533 43.3894 40.2028 42.7696 41.3616 41.6525C41.5643 41.4538 41.8213 41.3195 42.1002 41.2664C42.3791 41.2134 42.6675 41.244 42.9291 41.3545C43.1906 41.465 43.4136 41.6503 43.5701 41.8872C43.7265 42.1241 43.8094 42.402 43.8083 42.6859L43.8083 56.1546L54.5884 56.1546C53.9362 54.7641 53.6455 53.2315 53.7434 51.6988C53.8412 50.1662 54.3244 48.683 55.1481 47.3867C55.9718 46.0905 57.1095 45.0232 58.4555 44.2837C59.8016 43.5443 61.3125 43.1566 62.8483 43.1566C64.3842 43.1566 65.8951 43.5443 67.2412 44.2837C68.5872 45.0232 69.7249 46.0905 70.5486 47.3867C71.3723 48.683 71.8555 50.1662 71.9533 51.6988C72.0511 53.2315 71.7605 54.7641 71.1083 56.1546L83.3003 56.1546C83.682 56.1546 84.0481 56.3062 84.318 56.5761C84.5879 56.846 84.7396 57.2121 84.7396 57.5938L84.7396 94.937C84.7403 96.2776 84.2091 97.5637 83.2625 98.513C82.3159 99.4624 81.0312 99.9972 79.6906 100ZM5.07628 18.1393C4.49731 18.1366 3.94089 18.3635 3.52893 18.7704C3.11698 19.1772 2.88309 19.7307 2.87853 20.3097L2.87853 94.937C2.88119 95.5178 3.11401 96.074 3.52596 96.4835C3.93792 96.893 4.49541 97.1225 5.07628 97.1218L79.6906 97.1218C80.2679 97.1191 80.8206 96.8876 81.2275 96.478C81.6343 96.0685 81.8622 95.5143 81.861 94.937L81.861 59.0259L68.4068 59.0259C68.125 59.0256 67.8495 58.9427 67.6144 58.7873C67.3793 58.6319 67.195 58.4109 67.0844 58.1518C66.9737 57.8926 66.9416 57.6067 66.9919 57.3294C67.0423 57.0522 67.1729 56.7958 67.3676 56.5921C68.0679 55.8544 68.5769 54.9564 68.85 53.9767C69.1232 52.9969 69.1523 51.9651 68.9348 50.9715C68.7173 49.9779 68.2598 49.0527 67.6022 48.2767C66.9447 47.5006 66.1071 46.8975 65.1627 46.5198C64.2183 46.1421 63.1957 46.0015 62.1844 46.1101C61.1731 46.2188 60.2038 46.5734 59.3611 47.1431C58.5185 47.7127 57.8281 48.4801 57.3504 49.378C56.8727 50.276 56.6221 51.2773 56.6207 52.2945C56.6064 53.8937 57.2276 55.4333 58.3478 56.5748C58.5459 56.777 58.68 57.033 58.7334 57.311C58.7868 57.589 58.757 57.8765 58.6477 58.1377C58.5385 58.3988 58.3547 58.6219 58.1194 58.7791C57.884 58.9364 57.6075 59.0207 57.3245 59.0216L42.3691 59.0216C41.9873 59.0216 41.6213 58.8699 41.3513 58.6C41.0814 58.3301 40.9298 57.964 40.9298 57.5823L40.9298 45.3946C39.5418 46.0438 38.0125 46.3323 36.4834 46.2334C34.9543 46.1346 33.4749 45.6515 32.1821 44.8289C30.8893 44.0064 29.8249 42.8709 29.0875 41.5278C28.3501 40.1846 27.9635 38.6771 27.9635 37.1448C27.9635 35.6125 28.3501 34.1049 29.0875 32.7618C29.8249 31.4186 30.8893 30.2831 32.1821 29.4606C33.4749 28.638 34.9543 28.155 36.4834 28.0561C38.0125 27.9572 39.5418 28.2457 40.9298 28.8949L40.9298 18.1393L5.07628 18.1393Z" fill="rgb(255,255,255)" fill-rule="nonzero" />
		<path id="Vector" d="M42.3836 73.9702C42.0019 73.9702 41.6358 73.8186 41.3659 73.5487C41.096 73.2788 40.9444 72.9127 40.9444 72.531L40.9444 57.6015C40.9433 57.4125 40.9795 57.2251 41.0509 57.0501C41.1223 56.8751 41.2274 56.7159 41.3603 56.5815C41.6287 56.3101 41.994 56.1564 42.3757 56.1543C42.7574 56.1522 43.1243 56.3018 43.3957 56.5703C43.6671 56.8387 43.8208 57.2039 43.8229 57.5857L43.8229 72.5238C43.8238 72.7134 43.7873 72.9013 43.7154 73.0768C43.6435 73.2522 43.5376 73.4117 43.4039 73.5462C43.2701 73.6806 43.1112 73.7872 42.9361 73.86C42.761 73.9328 42.5732 73.9703 42.3836 73.9702ZM42.3937 99.9418C42.012 99.9418 41.6459 99.7901 41.376 99.5202C41.1061 99.2503 40.9544 98.8842 40.9544 98.5025L40.9544 83.5572C40.9544 83.1755 41.1061 82.8094 41.376 82.5395C41.6459 82.2696 42.012 82.1179 42.3937 82.1179C42.7754 82.1179 43.1415 82.2696 43.4114 82.5395C43.6813 82.8094 43.833 83.1755 43.833 83.5572L43.833 98.5025C43.833 98.8842 43.6813 99.2503 43.4114 99.5202C43.1415 99.7901 42.7754 99.9418 42.3937 99.9418Z" fill="rgb(255,255,255)" fill-rule="nonzero" />
		<path id="Vector" d="M42.3832 59.025L27.4897 59.025C27.108 59.025 26.7419 58.8734 26.472 58.6035C26.2021 58.3335 26.0504 57.9675 26.0504 57.5857C26.0504 57.204 26.2021 56.8379 26.472 56.568C26.7419 56.2981 27.108 56.1465 27.4897 56.1465L42.3832 56.1465C42.7649 56.1465 43.131 56.2981 43.4009 56.568C43.6708 56.8379 43.8225 57.204 43.8225 57.5857C43.8225 57.9675 43.6708 58.3335 43.4009 58.6035C43.131 58.8734 42.7649 59.025 42.3832 59.025ZM16.4289 59.0336L1.4793 59.0336C1.09759 59.0336 0.731504 58.882 0.46159 58.6121C0.191675 58.3422 0.0400391 57.9761 0.0400391 57.5944C0.0400391 57.2127 0.191675 56.8466 0.46159 56.5767C0.731504 56.3068 1.09759 56.1551 1.4793 56.1551L16.4289 56.1551C16.8107 56.1551 17.1767 56.3068 17.4467 56.5767C17.7166 56.8466 17.8682 57.2127 17.8682 57.5944C17.8682 57.9761 17.7166 58.3422 17.4467 58.6121C17.1767 58.882 16.8107 59.0336 16.4289 59.0336Z" fill="rgb(255,255,255)" fill-rule="nonzero" />
		<path id="Vector" d="M21.9303 72.0328C20.1414 72.0333 18.3919 71.5066 16.9007 70.5184C15.4095 69.5303 14.2425 68.1245 13.5458 66.4768C12.849 64.8291 12.6533 63.0126 12.9832 61.2544C13.313 59.4961 14.1538 57.8741 15.4004 56.591C15.6674 56.3217 16.0299 56.1688 16.4091 56.1653C16.7883 56.1619 17.1535 56.3082 17.4254 56.5725C17.6973 56.8369 17.8539 57.1978 17.8612 57.5769C17.8685 57.9561 17.7258 58.3227 17.4643 58.5973C16.6123 59.4744 16.0377 60.5831 15.8122 61.7849C15.5867 62.9866 15.7203 64.2282 16.1963 65.3545C16.6723 66.4808 17.4696 67.4419 18.4886 68.1177C19.5077 68.7934 20.7032 69.154 21.926 69.1543C23.5791 69.1543 25.1647 68.4984 26.3347 67.3305C27.5047 66.1627 28.1636 64.5783 28.1666 62.9252C28.1781 61.3126 27.5522 59.7607 26.4251 58.6074C26.2838 58.4746 26.1708 58.3147 26.0928 58.1371C26.0148 57.9596 25.9735 57.7681 25.9714 57.5742C25.9693 57.3803 26.0064 57.188 26.0804 57.0088C26.1544 56.8296 26.2639 56.6672 26.4023 56.5314C26.5407 56.3955 26.705 56.2891 26.8856 56.2183C27.0661 56.1476 27.2591 56.1141 27.4529 56.1198C27.6467 56.1255 27.8374 56.1703 28.0135 56.2515C28.1895 56.3327 28.3474 56.4487 28.4775 56.5924C30.1358 58.2846 31.0586 60.5632 31.0452 62.9324C31.0391 65.3466 30.0763 67.66 28.3679 69.3657C26.6594 71.0715 24.3445 72.0305 21.9303 72.0328ZM47.7262 87.1753C45.3611 87.1761 43.089 86.2538 41.3935 84.6048C41.2517 84.475 41.1374 84.3182 41.0572 84.1436C40.977 83.9689 40.9326 83.78 40.9267 83.5879C40.9207 83.3958 40.9532 83.2045 41.0224 83.0252C41.0915 82.8459 41.1959 82.6823 41.3293 82.5439C41.4627 82.4056 41.6225 82.2954 41.7992 82.2198C41.9759 82.1443 42.1659 82.1048 42.3581 82.1039C42.5503 82.1029 42.7407 82.1405 42.9181 82.2143C43.0955 82.2881 43.2564 82.3967 43.3912 82.5337C44.2683 83.3786 45.3741 83.9475 46.5715 84.17C47.7689 84.3924 49.0052 84.2587 50.1274 83.7853C51.2495 83.312 52.208 82.5197 52.8843 81.5069C53.5605 80.494 53.9247 79.3049 53.9317 78.0871C53.9387 76.8692 53.5882 75.6761 52.9237 74.6555C52.2591 73.6349 51.3097 72.8317 50.1931 72.3455C49.0765 71.8592 47.8418 71.7113 46.6419 71.92C45.4421 72.1287 44.3298 72.6849 43.443 73.5196C43.2461 73.7299 42.9907 73.8762 42.7098 73.9398C42.4288 74.0033 42.1353 73.9811 41.8671 73.876C41.599 73.7709 41.3685 73.5877 41.2055 73.3502C41.0426 73.1127 40.9546 72.8318 40.9531 72.5438L40.9531 72.5308C40.9532 72.3376 40.9923 72.1464 41.068 71.9686C41.1437 71.7908 41.2544 71.6301 41.3935 71.496C42.4675 70.4613 43.7791 69.706 45.2131 69.2963C46.647 68.8866 48.1596 68.835 49.6182 69.1461C51.0767 69.4571 52.4367 70.1213 53.5788 71.0804C54.7208 72.0395 55.6101 73.2641 56.1686 74.647C56.7271 76.0298 56.9378 77.5285 56.7822 79.0117C56.6265 80.4949 56.1093 81.9173 55.2759 83.1541C54.4425 84.3908 53.3184 85.4042 52.0021 86.1053C50.6858 86.8064 49.2176 87.1738 47.7262 87.1753Z" fill="rgb(255,255,255)" fill-rule="nonzero" />
	</g>
</svg>
