<svg viewBox="0 0 60.3447 60" xmlns="http://www.w3.org/2000/svg" xmlns:xlink="http://www.w3.org/1999/xlink" width="60.344727" height="60.000000" fill="none" customFrame="#000000">
	<rect id="icon/температура" width="60.000000" height="60.000000" x="0.171875" y="0.000000" />
	<g id="Group 9">
		<g id="Group">
			<path id="Vector" d="M11.2861 40.4536L11.2766 40.4536C10.7884 40.4536 10.3975 40.8494 10.3975 41.3376C10.3975 41.8257 10.798 42.2215 11.2861 42.2215C11.5206 42.2215 11.7454 42.1284 11.9112 41.9626C12.0769 41.7968 12.1701 41.572 12.1701 41.3376C12.1701 41.1031 12.0769 40.8783 11.9112 40.7125C11.7454 40.5467 11.5206 40.4536 11.2861 40.4536ZM18.8444 40.4536L18.835 40.4536C18.3468 40.4536 17.9557 40.8494 17.9557 41.3376C17.9557 41.8257 18.3562 42.2215 18.8444 42.2215C19.0788 42.2215 19.3037 42.1284 19.4694 41.9626C19.6352 41.7968 19.7283 41.572 19.7283 41.3376C19.7283 41.1031 19.6352 40.8783 19.4694 40.7125C19.3037 40.5467 19.0788 40.4536 18.8444 40.4536ZM50.0222 40.4536L50.0128 40.4536C49.5246 40.4536 49.1335 40.8494 49.1335 41.3376C49.1335 41.8257 49.534 42.2215 50.0222 42.2215C50.2566 42.2215 50.4815 42.1284 50.6473 41.9626C50.813 41.7968 50.9062 41.572 50.9062 41.3376C50.9062 41.1031 50.813 40.8783 50.6473 40.7125C50.4815 40.5467 50.2566 40.4536 50.0222 40.4536Z" fill="rgb(0,0,0)" fill-rule="nonzero" />
			<path id="Vector" d="M59.532 29.7663L58.3435 28.5778L55.9492 21.3947C56.1502 21.3307 56.3217 21.197 56.4327 21.0177C56.5438 20.8384 56.5871 20.6253 56.5547 20.4168C56.5224 20.2084 56.4166 20.0184 56.2565 19.8811C56.0963 19.7439 55.8924 19.6684 55.6814 19.6684L47.1176 19.6684L47.1176 15.8287C47.1176 14.8203 46.2973 14 45.2889 14L1.82872 14C0.820307 14 0 14.8204 0 15.8287L0 36.6138C0 37.6223 0.820307 38.4426 1.82872 38.4426L2.8343 38.4426L2.8343 40.3924C2.8343 41.4009 3.65461 42.2212 4.66302 42.2212L6.69859 42.2212C7.11299 44.3709 9.00759 46.0002 11.2765 46.0002C12.8302 46.0002 14.2078 45.2358 15.0556 44.064C15.9035 45.2358 17.2811 46.0002 18.8348 46.0002C21.1037 46.0002 22.9984 44.3709 23.4127 42.2212L45.4347 42.2212C45.8491 44.3709 47.7437 46.0002 50.0126 46.0002C52.5838 46.0002 54.6756 43.9083 54.6756 41.3372C54.6756 41.3169 54.6743 41.297 54.6741 41.2769L58.5156 41.2769C59.524 41.2769 60.3443 40.4566 60.3443 39.4482L60.3443 31.7274C60.3454 31.363 60.2741 31.0021 60.1347 30.6654C59.9952 30.3288 59.7904 30.0232 59.532 29.7663ZM6.69859 40.4534L4.66302 40.4534C4.65504 40.4534 4.64713 40.4518 4.63975 40.4488C4.63237 40.4457 4.62567 40.4412 4.62002 40.4356C4.61437 40.4299 4.60989 40.4232 4.60684 40.4158C4.60378 40.4085 4.60221 40.4006 4.60221 40.3926L4.60221 38.4427L7.62473 38.4427C7.15848 39.0285 6.84074 39.7183 6.69859 40.4534ZM11.2765 44.2326C9.6801 44.2326 8.3814 42.9338 8.3814 41.3375C8.3814 39.7472 9.67044 38.4526 11.2585 38.4427L11.2948 38.4427C12.8828 38.4525 14.1719 39.747 14.1719 41.3375C14.1718 42.9338 12.8729 44.2326 11.2765 44.2326ZM18.8349 44.2326C17.2385 44.2326 15.9397 42.9338 15.9397 41.3375C15.9397 39.7472 17.2287 38.4526 18.8167 38.4427L18.853 38.4427C20.4411 38.4525 21.7301 39.747 21.7301 41.3375C21.73 42.9338 20.4313 44.2326 18.8349 44.2326ZM45.4348 40.4534L23.4128 40.4534C23.2707 39.7182 22.9529 39.0284 22.4866 38.4426L39.62 38.4426C39.8545 38.4426 40.0793 38.3494 40.2451 38.1837C40.4108 38.0179 40.504 37.7931 40.504 37.5586C40.504 37.3242 40.4108 37.0993 40.2451 36.9336C40.0793 36.7678 39.8545 36.6747 39.62 36.6747L1.82872 36.6747C1.81259 36.6747 1.79712 36.6683 1.78572 36.6569C1.77431 36.6454 1.7679 36.63 1.7679 36.6138L1.7679 15.8287C1.7679 15.7951 1.79513 15.7679 1.82872 15.7679L45.2888 15.7679C45.3223 15.7679 45.3496 15.7951 45.3496 15.8287L45.3496 36.6748L43.3996 36.6748C43.1651 36.6748 42.9403 36.7679 42.7745 36.9337C42.6087 37.0995 42.5156 37.3243 42.5156 37.5587C42.5156 37.7932 42.6087 38.018 42.7745 38.1838C42.9403 38.3496 43.1651 38.4427 43.3996 38.4427L46.3609 38.4427C45.8946 39.0285 45.5769 39.7183 45.4348 40.4534ZM56.6594 29.1161L50.9575 29.1161C50.9413 29.1161 50.9259 29.1096 50.9145 29.0982C50.9031 29.0868 50.8967 29.0714 50.8967 29.0552L50.8967 25.2152L55.3592 25.2152L56.6594 29.1161ZM50.0127 44.2326C48.4163 44.2326 47.1176 42.9338 47.1176 41.3375C47.1176 39.7472 48.4066 38.4526 49.9947 38.4427L50.0128 38.4427L50.019 38.4423C51.6125 38.4456 52.9081 39.743 52.9081 41.3373C52.9078 42.9338 51.6091 44.2326 50.0127 44.2326ZM58.5766 39.4484C58.5766 39.4645 58.5701 39.48 58.5587 39.4914C58.5473 39.5028 58.5319 39.5092 58.5157 39.5092L54.302 39.5092C53.5895 37.8442 51.9354 36.6744 50.0127 36.6744C50.0066 36.6744 50.0007 36.6749 49.9946 36.6749L47.1176 36.6749L47.1176 21.497C47.1176 21.4634 47.1448 21.4362 47.1784 21.4362L54.0995 21.4362L54.7699 23.4473L50.0127 23.4473C49.7783 23.4473 49.5534 23.5405 49.3877 23.7062C49.2219 23.872 49.1288 24.0968 49.1288 24.3313L49.1288 29.0552C49.1288 30.0636 49.9491 30.884 50.9575 30.884L58.1495 30.884L58.282 31.0164C58.3757 31.1096 58.4499 31.2204 58.5005 31.3425C58.551 31.4645 58.5769 31.5954 58.5766 31.7275L58.5766 33.8405L57.571 33.8405C57.3365 33.8405 57.1117 33.9336 56.9459 34.0994C56.7802 34.2652 56.687 34.49 56.687 34.7244C56.687 34.9589 56.7802 35.1837 56.9459 35.3495C57.1117 35.5153 57.3365 35.6084 57.571 35.6084L58.5766 35.6084L58.5766 39.4484Z" fill="rgb(0,0,0)" fill-rule="nonzero" />
			<path id="Vector" d="M42.4546 32.8958L4.66325 32.8958C4.42881 32.8958 4.20397 32.9889 4.0382 33.1547C3.87243 33.3204 3.7793 33.5453 3.7793 33.7797C3.7793 34.0141 3.87243 34.239 4.0382 34.4048C4.20397 34.5705 4.42881 34.6637 4.66325 34.6637L42.4546 34.6637C42.689 34.6637 42.9138 34.5705 43.0796 34.4048C43.2454 34.239 43.3385 34.0141 43.3385 33.7797C43.3385 33.5453 43.2454 33.3204 43.0796 33.1547C42.9138 32.9889 42.689 32.8958 42.4546 32.8958Z" fill="rgb(0,0,0)" fill-rule="nonzero" />
		</g>
		<g id="Group">
			<path id="Vector" d="M28.8719 16.8917L16.041 29.7226C15.9514 29.8108 15.8867 29.9212 15.8534 30.0425C15.8202 30.1638 15.8197 30.2918 15.8519 30.4133C15.8841 30.5349 15.9479 30.6458 16.0368 30.7348C16.1257 30.8237 16.2366 30.8876 16.3582 30.9198C16.4798 30.9521 16.6077 30.9516 16.729 30.9184C16.8504 30.8852 16.9607 30.8204 17.049 30.7308L29.8799 17.8999C29.9461 17.8337 29.9986 17.7551 30.0344 17.6686C30.0702 17.5821 30.0887 17.4894 30.0887 17.3958C30.0887 17.3022 30.0702 17.2095 30.0344 17.123C29.9986 17.0365 29.9461 16.9579 29.8799 16.8918C29.5978 16.6226 29.154 16.6226 28.8719 16.8917ZM29.5439 17.5637L16.713 30.3946C16.6677 30.4377 16.6076 30.4618 16.545 30.4618C16.4825 30.4618 16.4223 30.4377 16.377 30.3946C16.3325 30.35 16.3075 30.2896 16.3075 30.2266C16.3075 30.1636 16.3325 30.1031 16.377 30.0586L29.2079 17.2277C29.2526 17.1837 29.3129 17.1591 29.3756 17.1594C29.4384 17.1596 29.4984 17.1846 29.5428 17.229C29.5871 17.2734 29.6121 17.3335 29.6123 17.3962C29.6125 17.459 29.5879 17.5192 29.5439 17.5639L29.5439 17.5637ZM20.4197 28.8843L22.3966 27.5585C22.4443 27.5263 22.4788 27.4781 22.4938 27.4225L22.8003 26.2773C22.8084 26.2471 22.8104 26.2157 22.8064 26.1847C22.8023 26.1538 22.7922 26.124 22.7766 26.0969C22.761 26.0699 22.7402 26.0462 22.7155 26.0272C22.6907 26.0082 22.6624 25.9943 22.6323 25.9862C22.6022 25.9781 22.5707 25.976 22.5398 25.9801C22.5088 25.9842 22.479 25.9943 22.452 26.0099C22.4249 26.0255 22.4013 26.0463 22.3823 26.071C22.3633 26.0958 22.3493 26.124 22.3412 26.1542L22.0575 27.2135L20.1566 28.4892C19.8274 28.7107 19.7386 29.1563 19.9578 29.4871C20.0105 29.5657 20.0783 29.633 20.1571 29.6854C20.2359 29.7378 20.3242 29.7741 20.4171 29.7923C20.5099 29.8106 20.6054 29.8103 20.6982 29.7916C20.7909 29.7729 20.8791 29.7361 20.9576 29.6834L21.4946 29.3241L21.3045 30.0329C21.2792 30.1241 21.2722 30.2194 21.284 30.3133C21.2958 30.4073 21.3261 30.4979 21.3731 30.58C21.4202 30.6621 21.4831 30.7341 21.5582 30.7917C21.6333 30.8493 21.7191 30.8914 21.8106 30.9156C21.902 30.9402 21.9974 30.9464 22.0913 30.9338C22.1851 30.9212 22.2754 30.89 22.3571 30.8422C22.4386 30.7955 22.51 30.7331 22.5672 30.6585C22.6243 30.5839 22.666 30.4987 22.6898 30.4078L22.8799 29.6976L23.1638 30.275C23.2077 30.3662 23.2708 30.4468 23.3487 30.5113C23.4266 30.5759 23.5175 30.6228 23.6153 30.649C23.7854 30.7012 23.9691 30.6853 24.1278 30.6048C24.2127 30.5633 24.2886 30.5054 24.3511 30.4345C24.4136 30.3636 24.4615 30.281 24.4921 30.1916C24.5227 30.1022 24.5354 30.0076 24.5294 29.9132C24.5235 29.8189 24.499 29.7267 24.4573 29.6418L23.4465 27.5858L23.9274 25.793L25.239 27.1046L25.3923 29.3918C25.4026 29.5426 25.4602 29.6864 25.5568 29.8026C25.6534 29.9189 25.7841 30.0018 25.9305 30.0396C26.0036 30.0584 26.0793 30.0652 26.1546 30.0598C26.2491 30.0538 26.3415 30.0292 26.4264 29.9875C26.5114 29.9457 26.5873 29.8875 26.6497 29.8163C26.7121 29.7451 26.7598 29.6622 26.7901 29.5725C26.8203 29.4828 26.8326 29.3879 26.826 29.2935L26.7828 28.6519L27.3024 29.1716C27.5844 29.4506 28.0384 29.4506 28.3204 29.1716C28.6009 28.8903 28.6009 28.4349 28.3204 28.1536L27.801 27.634L28.4426 27.6773C28.5372 27.6846 28.6323 27.6731 28.7224 27.6435C28.8126 27.6139 28.896 27.5667 28.9678 27.5047C29.0396 27.4427 29.0985 27.367 29.1409 27.2822C29.1834 27.1973 29.2086 27.1049 29.2152 27.0102C29.2217 26.9156 29.2095 26.8205 29.1791 26.7306C29.1488 26.6407 29.1009 26.5577 29.0383 26.4864C28.9757 26.4151 28.8996 26.3569 28.8144 26.3151C28.7292 26.2733 28.6366 26.2489 28.5419 26.2431L26.2546 26.0898L24.943 24.7782L26.7358 24.2973L28.7904 25.3074C28.8328 25.3295 28.8776 25.3464 28.9239 25.358C29.2821 25.4536 29.6542 25.2614 29.7835 24.914C29.9128 24.5665 29.7569 24.1778 29.4234 24.016L28.846 23.7321L29.5548 23.542C29.6461 23.5176 29.7318 23.4756 29.8068 23.4182C29.8819 23.3608 29.9449 23.2891 29.9923 23.2073C30.0397 23.1256 30.0705 23.0353 30.0829 22.9416C30.0954 22.8479 30.0893 22.7527 30.0649 22.6614C30.0406 22.5693 29.9981 22.4831 29.9399 22.4076C29.8818 22.3322 29.8092 22.2692 29.7263 22.2223C29.6451 22.1754 29.5554 22.1452 29.4624 22.1335C29.3694 22.1217 29.2749 22.1285 29.1846 22.1536L28.4737 22.3437L28.8332 21.8062C28.8874 21.7279 28.9255 21.6396 28.9453 21.5464C28.9651 21.4532 28.9661 21.357 28.9484 21.2634C28.9307 21.1698 28.8945 21.0807 28.8421 21.0012C28.7896 20.9217 28.7218 20.8534 28.6427 20.8003C28.5636 20.7472 28.4748 20.7104 28.3813 20.692C28.2879 20.6735 28.1917 20.6738 28.0983 20.6929C28.005 20.712 27.9164 20.7494 27.8377 20.803C27.7589 20.8566 27.6916 20.9254 27.6397 21.0052L26.3628 22.9082L25.3035 23.1917C25.2734 23.1997 25.2451 23.2137 25.2204 23.2327C25.1956 23.2517 25.1748 23.2754 25.1592 23.3024C25.1436 23.3294 25.1335 23.3593 25.1294 23.3902C25.1254 23.4212 25.1274 23.4526 25.1355 23.4827C25.1436 23.5129 25.1575 23.5411 25.1765 23.5659C25.1955 23.5906 25.2192 23.6114 25.2463 23.627C25.2733 23.6426 25.3031 23.6527 25.3341 23.6568C25.365 23.6609 25.3964 23.6588 25.4266 23.6507L26.5719 23.3442C26.6274 23.3292 26.6756 23.2947 26.7078 23.247L28.0339 21.2697C28.0514 21.243 28.0741 21.22 28.1005 21.2022C28.127 21.1843 28.1567 21.1718 28.188 21.1655C28.2193 21.1591 28.2516 21.1591 28.2829 21.1652C28.3142 21.1714 28.344 21.1837 28.3706 21.2015C28.4242 21.2382 28.4613 21.2946 28.4738 21.3584C28.4862 21.4223 28.473 21.4885 28.4371 21.5427L27.7266 22.6048C27.6997 22.645 27.6857 22.6924 27.6865 22.7407C27.6872 22.7891 27.7027 22.836 27.7309 22.8753C27.759 22.9146 27.7985 22.9444 27.844 22.9607C27.8895 22.977 27.9389 22.979 27.9856 22.9664L29.3089 22.6119C29.339 22.6035 29.3705 22.6011 29.4016 22.605C29.4326 22.6089 29.4626 22.6189 29.4897 22.6345C29.5178 22.6505 29.5424 22.6719 29.5622 22.6975C29.5819 22.7231 29.5964 22.7524 29.6048 22.7836C29.6132 22.8148 29.6153 22.8474 29.611 22.8794C29.6067 22.9115 29.5961 22.9423 29.5797 22.9702C29.564 22.9978 29.543 23.0219 29.5178 23.0411C29.4926 23.0604 29.4638 23.0744 29.4331 23.0824L28.112 23.4365C28.0653 23.4489 28.0235 23.4754 27.9922 23.5123C27.9608 23.5492 27.9416 23.5947 27.9368 23.6429C27.9321 23.6911 27.9423 23.7395 27.9658 23.7818C27.9894 23.824 28.0253 23.8581 28.0688 23.8794L29.2134 24.442C29.2688 24.4685 29.3122 24.515 29.3349 24.5722C29.3576 24.6293 29.3579 24.6929 29.3357 24.7502C29.3135 24.8076 29.2705 24.8544 29.2153 24.8814C29.16 24.9084 29.0966 24.9136 29.0378 24.8959C29.0249 24.8922 29.0124 24.8871 29.0007 24.8807L26.8648 23.8307C26.8132 23.8052 26.7541 23.7994 26.6985 23.8143L24.4222 24.4249C24.382 24.4357 24.3452 24.4569 24.3157 24.4864C24.2862 24.5159 24.265 24.5527 24.2543 24.593C24.2435 24.6332 24.2435 24.6757 24.2543 24.716C24.2651 24.7562 24.2863 24.793 24.3158 24.8225L25.9814 26.4881C26.0221 26.5288 26.0761 26.5534 26.1335 26.5572L28.5084 26.7164C28.5732 26.7209 28.6337 26.7509 28.6764 26.7998C28.6974 26.8237 28.7135 26.8515 28.7236 26.8817C28.7336 26.9118 28.7376 26.9437 28.7351 26.9754C28.7333 27.0075 28.725 27.0389 28.7109 27.0678C28.6968 27.0967 28.677 27.1224 28.6527 27.1436C28.6285 27.1647 28.6003 27.1807 28.5697 27.1908C28.5392 27.2008 28.507 27.2047 28.4749 27.2021L27.2013 27.1168C27.1533 27.1138 27.1055 27.1255 27.0643 27.1503C27.0231 27.1751 26.9904 27.2118 26.9704 27.2555C26.9505 27.2993 26.9443 27.3481 26.9527 27.3954C26.9611 27.4428 26.9837 27.4865 27.0174 27.5208L27.9845 28.4878C28.0226 28.5257 28.0471 28.5751 28.0543 28.6284C28.0614 28.6816 28.0507 28.7358 28.024 28.7823C27.9972 28.8289 27.9557 28.8653 27.9061 28.8859C27.8565 28.9065 27.8014 28.9102 27.7495 28.8963C27.7078 28.8852 27.6696 28.8637 27.6385 28.8338L26.6715 27.8667C26.6372 27.8329 26.5935 27.8104 26.5462 27.802C26.4988 27.7936 26.45 27.7997 26.4062 27.8197C26.3624 27.8396 26.3257 27.8723 26.301 27.9136C26.2762 27.9548 26.2645 28.0026 26.2675 28.0506L26.3528 29.3252C26.3552 29.3571 26.3513 29.3892 26.3411 29.4195C26.3309 29.4499 26.3148 29.4779 26.2936 29.5019C26.2718 29.5267 26.2452 29.5468 26.2154 29.5611C26.1856 29.5753 26.1532 29.5834 26.1202 29.5849C26.0956 29.5863 26.071 29.5838 26.0472 29.5775C25.9979 29.5649 25.9539 29.5369 25.9215 29.4976C25.8891 29.4583 25.8701 29.4097 25.8671 29.3589L25.708 26.9828C25.7041 26.9254 25.6795 26.8714 25.6388 26.8308L23.9732 25.1651C23.9437 25.1356 23.9069 25.1144 23.8667 25.1036C23.8264 25.0928 23.784 25.0928 23.7437 25.1036C23.7034 25.1144 23.6667 25.1356 23.6372 25.1651C23.6077 25.1946 23.5864 25.2313 23.5756 25.2716L22.965 27.5478C22.9501 27.6034 22.9559 27.6625 22.9814 27.7142L24.0297 29.8512C24.0439 29.88 24.0522 29.9114 24.0543 29.9434C24.0563 29.9755 24.052 30.0076 24.0416 30.038C24.0314 30.0683 24.0152 30.0964 23.994 30.1204C23.9729 30.1444 23.9471 30.164 23.9183 30.1779C23.8647 30.205 23.8026 30.2098 23.7455 30.1912C23.7121 30.1827 23.6809 30.167 23.6543 30.1451C23.6276 30.1232 23.6061 30.0957 23.5913 30.0646L23.0289 28.9198C23.0076 28.8764 22.9735 28.8405 22.9313 28.8169C22.889 28.7933 22.8406 28.7832 22.7925 28.7879C22.7443 28.7926 22.6987 28.8119 22.6619 28.8432C22.625 28.8745 22.5985 28.9163 22.586 28.963L22.2317 30.2856C22.2236 30.316 22.2095 30.3445 22.1903 30.3694C22.1711 30.3943 22.1472 30.4152 22.1198 30.4308C22.0919 30.447 22.0611 30.4576 22.0291 30.4619C21.9971 30.4662 21.9646 30.4642 21.9334 30.4559C21.9022 30.4477 21.8729 30.4334 21.8473 30.4138C21.8216 30.3942 21.8001 30.3698 21.7838 30.3419C21.768 30.3142 21.758 30.2837 21.7542 30.252C21.7504 30.2204 21.7531 30.1883 21.762 30.1577L22.116 28.8366C22.1285 28.79 22.1265 28.7406 22.1102 28.6951C22.0939 28.6496 22.0642 28.6101 22.0249 28.582C21.9856 28.5538 21.9386 28.5383 21.8903 28.5376C21.842 28.5368 21.7946 28.5508 21.7544 28.5776L20.6925 29.2878C20.6639 29.307 20.6317 29.3201 20.5979 29.3262C20.564 29.3322 20.5292 29.3312 20.4958 29.3232C20.438 29.3081 20.3874 29.2729 20.3532 29.2239C20.335 29.1973 20.3223 29.1674 20.3158 29.1359C20.3093 29.1043 20.3091 29.0718 20.3153 29.0402C20.3215 29.0086 20.3339 28.9785 20.3518 28.9517C20.3697 28.925 20.3928 28.9021 20.4197 28.8843ZM19.8145 23.3359C19.8142 23.7574 19.9145 24.1729 20.1072 24.5477C20.1215 24.5755 20.1412 24.6003 20.165 24.6205C20.1889 24.6407 20.2165 24.656 20.2463 24.6656C20.2761 24.6751 20.3075 24.6786 20.3387 24.676C20.3699 24.6734 20.4002 24.6646 20.428 24.6502C20.4558 24.6358 20.4804 24.6161 20.5005 24.5922C20.5207 24.5682 20.5359 24.5405 20.5453 24.5107C20.5547 24.4809 20.5581 24.4495 20.5554 24.4183C20.5526 24.3871 20.5437 24.3568 20.5292 24.3291C20.3714 24.0219 20.2893 23.6813 20.2897 23.3359C20.291 22.1239 21.2732 21.1417 22.4852 21.1404C22.8306 21.1399 23.1712 21.222 23.4784 21.3799C23.5061 21.3944 23.5365 21.4033 23.5676 21.4061C23.5988 21.4088 23.6302 21.4054 23.66 21.396C23.6898 21.3866 23.7175 21.3714 23.7415 21.3512C23.7654 21.3311 23.7851 21.3064 23.7995 21.2787C23.8139 21.2509 23.8227 21.2205 23.8253 21.1894C23.828 21.1582 23.8244 21.1268 23.8149 21.097C23.8054 21.0672 23.7901 21.0396 23.7698 21.0157C23.7496 20.9918 23.7249 20.9722 23.697 20.9579C23.3222 20.7652 22.9067 20.6649 22.4852 20.6652C21.0109 20.6668 19.8161 21.8616 19.8145 23.3359ZM22.2476 19.8126L22.7252 19.8126C22.9631 19.8109 23.1606 19.6286 23.1814 19.3916L23.3658 17.1795C23.371 17.1162 23.3631 17.0526 23.3425 16.9926C23.3218 16.9326 23.289 16.8775 23.246 16.8309C23.203 16.7842 23.1508 16.7469 23.0927 16.7215C23.0346 16.696 22.9719 16.6828 22.9084 16.6829L22.062 16.6829C21.9986 16.6828 21.9358 16.696 21.8777 16.7215C21.8195 16.747 21.7673 16.7842 21.7243 16.8309C21.6813 16.8776 21.6485 16.9327 21.6279 16.9928C21.6073 17.0528 21.5994 17.1164 21.6047 17.1797L21.789 19.3918C21.81 19.6296 22.0089 19.8121 22.2476 19.8126ZM22.8906 17.1581L22.7091 19.3379L22.2626 19.3526L22.0799 17.1581L22.8906 17.1581ZM16.2912 24.2179C16.3039 24.2179 16.3165 24.2174 16.329 24.2165L18.5411 24.0321C18.7785 24.0111 18.9608 23.8129 18.962 23.5747L18.962 23.0983C18.9614 22.8595 18.7788 22.6606 18.5409 22.6397L16.3288 22.4553C16.2656 22.4501 16.2019 22.4581 16.1419 22.4787C16.0819 22.4993 16.0268 22.5321 15.9802 22.5751C15.9335 22.6181 15.8963 22.6703 15.8708 22.7284C15.8453 22.7865 15.8322 22.8493 15.8322 22.9127L15.8322 23.7591C15.8322 23.8194 15.844 23.8791 15.8671 23.9348C15.8901 23.9905 15.924 24.0411 15.9666 24.0837C16.0092 24.1263 16.0598 24.1601 16.1155 24.1831C16.1713 24.2062 16.231 24.218 16.2912 24.2179ZM16.3074 22.9303L18.4868 23.0966L18.4868 23.5592L16.3074 23.7413L16.3074 22.9303ZM20.1697 17.5644C20.1427 17.507 20.104 17.4558 20.0561 17.4141C20.0083 17.3724 19.9523 17.341 19.8917 17.322C19.8312 17.303 19.7673 17.2968 19.7042 17.3038C19.6411 17.3107 19.5801 17.3307 19.5251 17.3624L18.7923 17.7858C18.7373 17.8176 18.6895 17.8603 18.6519 17.9115C18.6143 17.9627 18.5878 18.0211 18.5739 18.083C18.56 18.145 18.5592 18.2091 18.5714 18.2714C18.5836 18.3337 18.6086 18.3928 18.6448 18.445L19.9105 20.2684C20.0472 20.4634 20.3098 20.5222 20.5167 20.4043L20.9306 20.1652C21.1369 20.0451 21.2174 19.7874 21.1162 19.5712L20.1697 17.5644ZM20.3009 19.9975L19.0451 18.1883L19.7475 17.783L20.6794 19.7618L20.3009 19.9975ZM19.3146 24.8906C19.1945 24.6842 18.9368 24.6037 18.7206 24.705L16.7137 25.6514C16.6563 25.6785 16.6051 25.7171 16.5634 25.765C16.5217 25.8128 16.4903 25.8688 16.4713 25.9294C16.4524 25.99 16.4462 26.0538 16.4531 26.1169C16.4601 26.18 16.48 26.241 16.5117 26.296L16.9351 27.0288C16.9669 27.0838 17.0097 27.1316 17.0608 27.1692C17.112 27.2068 17.1704 27.2334 17.2323 27.2473C17.2943 27.2611 17.3584 27.262 17.4207 27.2498C17.483 27.2376 17.5421 27.2126 17.5943 27.1763L19.4177 25.9106C19.6127 25.7739 19.6716 25.5113 19.5536 25.3044L19.3146 24.8906ZM17.3377 26.776L16.9323 26.0736L18.903 25.1282L19.1342 25.5288L17.3377 26.776ZM24.0399 20.1653L24.4538 20.4043C24.6607 20.5223 24.9233 20.4634 25.06 20.2684L26.326 18.4448C26.3621 18.3926 26.387 18.3335 26.3992 18.2712C26.4113 18.209 26.4104 18.1448 26.3965 18.0829C26.3826 18.021 26.3561 17.9626 26.3185 17.9115C26.2809 17.8604 26.2331 17.8176 26.1782 17.7859L25.4452 17.3625C25.3902 17.3308 25.3292 17.3108 25.2661 17.3038C25.203 17.2969 25.1392 17.3031 25.0786 17.3221C25.0181 17.3411 24.9621 17.3724 24.9143 17.4141C24.8664 17.4558 24.8278 17.507 24.8007 17.5644L23.8544 19.5722C23.7539 19.7881 23.8342 20.0451 24.0399 20.1653ZM25.223 17.783L25.9253 18.1883L24.6779 19.9856L24.2842 19.7751L25.223 17.783ZM17.2322 19.4246C17.1703 19.4385 17.1119 19.4651 17.0608 19.5027C17.0097 19.5403 16.9669 19.588 16.9351 19.643L16.5117 20.376C16.48 20.431 16.4601 20.4919 16.4531 20.555C16.4462 20.6181 16.4524 20.6819 16.4713 20.7425C16.4903 20.8031 16.5217 20.859 16.5634 20.9069C16.6051 20.9547 16.6563 20.9934 16.7137 21.0204L18.7215 21.9668C18.7822 21.9953 18.8484 22.0101 18.9154 22.01C18.9961 22.0102 19.0755 21.9891 19.1455 21.9489C19.2156 21.9088 19.2739 21.851 19.3146 21.7812L19.5522 21.3675C19.6703 21.1607 19.6115 20.8979 19.4165 20.7612L17.594 19.4952C17.5417 19.4592 17.4827 19.4344 17.4204 19.4223C17.3582 19.4102 17.2941 19.4109 17.2322 19.4246ZM18.9106 21.5301L16.9323 20.5982L17.3379 19.8958L19.1418 21.1297L18.9106 21.5301Z" fill="rgb(0,0,0)" fill-rule="nonzero" />
		</g>
	</g>
</svg>
