<svg viewBox="0 0 99.875 100" xmlns="http://www.w3.org/2000/svg" xmlns:xlink="http://www.w3.org/1999/xlink" width="99.875000" height="100.000000" fill="none" customFrame="#000000">
	<g id="Group">
		<path id="Vector" d="M6.63992 45.7813C5.60642 54.3684 7.32419 63.3668 11.0983 70.7289C-8.29175 98.7699 3.26642 109.231 30.811 90.4097C42.3001 96.4653 57.9621 96.655 69.6142 90.8582C78.2385 96.4848 85.9339 100 91.2309 100C100.552 99.4896 99.7045 90.9344 94.4501 80.4009C94.8348 80.4948 97.7775 81.601 98.1268 81.5319C100.079 81.5638 100.578 78.6796 98.6869 78.0768L91.596 75.7138C91.3753 75.6394 91.142 75.6094 90.9095 75.6255C90.6771 75.6416 90.4502 75.7035 90.2418 75.8076C90.0334 75.9117 89.8476 76.056 89.6952 76.2322C89.5427 76.4084 89.4266 76.6129 89.3535 76.8342L86.9905 83.9251C86.292 86.1392 89.568 87.2525 90.3534 85.0472L91.3354 82.0974C100.88 101.654 89.3908 98.6848 73.2182 88.933C92.571 78.0857 100.993 51.1261 90.2683 30.9507C98.5008 18.5079 102.454 7.90524 98.008 3.45924C94.9341 0.385338 88.9653 1.0572 80.2595 5.43761L81.2983 2.31761C82.0003 0.0999296 78.7065 -1.00448 77.9372 1.20079L75.5741 8.2917C75.4259 8.73741 75.4607 9.22373 75.6707 9.64386C75.8808 10.064 76.249 10.3836 76.6945 10.5324C76.6626 10.5306 84.7072 13.2553 84.3456 12.9859C86.2991 13.016 86.799 10.1389 84.9058 9.53083L81.9577 8.54874C101.83 -1.1658 98.4494 10.9295 88.3041 27.446C76.8558 8.08961 49.5434 0.413702 29.4992 11.8744C3.97905 -7.77806 -11.3798 1.59965 10.3981 32.3281C8.4361 36.5841 7.16735 41.1246 6.63992 45.7813ZM9.9691 53.1878C13.1405 57.9812 18.6679 61.9805 23.0997 64.847C24.3583 65.6553 25.663 66.4903 26.2799 67.5575C27.5705 69.7929 25.7836 72.9342 24.9575 74.1786C23.8123 75.8751 22.52 77.4706 21.5361 79.2947C14.86 72.4697 10.5559 63.3224 9.9691 53.1878ZM5.82801 95.641C3.94892 93.7619 4.76792 86.9936 13.0022 74.1272C16.608 79.9331 21.5018 84.8312 27.3046 88.442C16.0442 95.5967 8.12192 97.9349 5.82801 95.641ZM50.6656 91.5779C44.9925 91.5811 39.3819 90.3932 34.1969 88.091C38.6514 84.936 42.9706 81.5944 47.1432 78.0751C46.2489 77.2972 45.3602 76.513 44.477 75.7226C39.5169 79.8708 34.8564 83.3808 30.5965 86.2757C28.3397 84.9934 26.2099 83.4993 24.236 81.8137C25.0656 79.9063 26.6894 77.9758 27.9091 76.1428C32.0537 70.1403 30.5008 64.753 25.0266 61.8723C19.3823 58.3358 12.0432 52.5425 10.2031 45.8558C10.6339 42.3263 11.5149 38.935 12.7913 35.7388C26.3172 54.5403 47.3275 75.4018 66.1468 88.5164C61.2367 90.5411 55.9767 91.5813 50.6656 91.5779ZM79.0256 80.0587C78.1641 78.0325 75.918 75.4408 76.3311 73.4819C77.0721 70.9522 80.9171 69.2026 82.3903 66.7686C85.9428 60.7945 82.7909 57.2544 91.2043 55.1519C90.1672 64.8807 85.6929 73.5918 79.0256 80.0587ZM81.9435 33.4839C83.4965 32.0675 84.2126 30.1707 84.5494 28.1533C85.1114 28.9936 85.6379 29.8587 86.1396 30.7415C79.2915 41.1775 64.7995 57.6072 52.5305 68.6583C53.4275 69.4543 54.3209 70.2449 55.2002 70.9983C67.0952 60.1351 79.3979 46.5276 87.9566 34.3472C90.3119 39.647 91.4958 45.3925 91.4276 51.1917C89.0876 52.39 86.308 52.6949 84.1896 54.4748C82.0233 56.2723 81.417 58.7346 80.8817 60.908C80.5271 62.3439 80.1956 63.6983 79.46 64.769C77.5206 67.4228 73.6365 69.0661 72.8654 72.7214C72.0039 76.5487 75.1416 79.3833 76.2105 82.5512C74.2306 84.1489 72.106 85.5584 69.8642 86.7614C53.3956 76.4069 25.4751 48.7577 14.4949 32.025C16.2074 28.7416 18.3572 25.7056 20.8855 23C22.653 29.357 29.4655 36.0171 36.014 31.3974C36.9837 30.644 37.7016 29.5662 38.5844 28.8908C39.469 28.2703 40.6443 28.2295 41.4474 28.2987C43.7697 28.3731 44.1171 30.2664 44.8865 32.2802C46.2621 36.0703 48.1908 38.7737 50.6301 40.3231C53.8299 42.3688 58.267 42.055 60.6797 39.068C61.871 37.6693 62.3017 35.6537 63.3636 34.3348C64.6896 32.8156 67.1165 33.1152 67.8451 33.2464C72.2928 34.4128 78.1889 37.0949 81.9435 33.4839ZM50.6656 10.0307C62.8548 10.0307 73.8032 15.4145 81.2805 23.92C81.511 35.035 75.6043 31.6119 68.4584 29.7523C65.2817 29.1797 62.4471 30.0005 60.6903 32.0037C59.3891 33.4538 58.9796 35.418 57.9196 36.8379C53.8405 40.4702 49.7721 35.6945 48.2157 31.0659C47.5456 29.24 46.9216 27.1978 45.1524 25.9197C42.3816 24.1363 38.9159 24.4359 36.5369 25.9959C35.4325 26.7653 34.7412 27.8395 33.8034 28.6213C31.8959 30.1388 28.8841 29.0822 27.184 27.2297C25.5407 25.4499 24.5693 22.9397 23.7077 20.2523C30.8997 13.8988 40.3359 10.0325 50.6656 10.0325L50.6656 10.0307ZM4.24674 5.96943C6.1666 4.04956 13.1635 4.93061 26.5547 13.6489C20.6713 17.4786 15.7756 22.644 12.2665 28.7241C4.4701 16.7831 1.86242 8.34842 4.24496 5.96588L4.24674 5.96943Z" fill="rgb(255,255,255)" fill-rule="nonzero" />
	</g>
</svg>
