<svg viewBox="0 0 60 60" xmlns="http://www.w3.org/2000/svg" xmlns:xlink="http://www.w3.org/1999/xlink" width="60.000000" height="60.000000" fill="none" customFrame="#000000">
	<rect id="icon/спецтехника" width="60.000000" height="60.000000" x="0.000000" y="0.000000" />
	<g id="Group">
		<path id="Vector" d="M51.1688 32.1473L55.2129 32.1473L55.2129 27.0531L51.9316 21.2793L44.4785 21.2793L44.4785 27.898L49.4695 27.898L51.1688 32.1473ZM45.6094 22.409L51.2707 22.409L54.0832 27.3531L54.0832 31.0187L51.9352 31.0187L50.2336 26.7695L45.6094 26.7695L45.6094 22.409ZM14.2969 36.7445C13.8333 36.7445 13.3802 36.882 12.9948 37.1395C12.6093 37.3971 12.3089 37.7631 12.1315 38.1914C11.9541 38.6196 11.9077 39.0909 11.9982 39.5455C12.0886 40.0002 12.3118 40.4178 12.6396 40.7456C12.9674 41.0733 13.385 41.2966 13.8396 41.387C14.2943 41.4774 14.7655 41.431 15.1938 41.2536C15.6221 41.0762 15.9881 40.7758 16.2456 40.3904C16.5032 40.005 16.6406 39.5518 16.6406 39.0883C16.6406 38.4667 16.3937 37.8705 15.9542 37.431C15.5146 36.9915 14.9185 36.7445 14.2969 36.7445ZM14.2969 40.2977C14.0572 40.2977 13.8229 40.2266 13.6237 40.0934C13.4244 39.9603 13.2691 39.7711 13.1774 39.5496C13.0857 39.3282 13.0617 39.0846 13.1084 38.8495C13.1552 38.6145 13.2706 38.3986 13.4401 38.2291C13.6095 38.0597 13.8254 37.9443 14.0605 37.8975C14.2955 37.8507 14.5392 37.8747 14.7606 37.9665C14.982 38.0582 15.1712 38.2135 15.3044 38.4127C15.4375 38.612 15.5086 38.8463 15.5086 39.0859C15.5083 39.4072 15.3805 39.7152 15.1533 39.9424C14.9262 40.1696 14.6181 40.2973 14.2969 40.2977ZM46.2891 36.7445C45.8255 36.7445 45.3724 36.882 44.9869 37.1395C44.6015 37.3971 44.3011 37.7631 44.1237 38.1914C43.9463 38.6196 43.8999 39.0909 43.9903 39.5455C44.0808 40.0002 44.304 40.4178 44.6318 40.7456C44.9596 41.0733 45.3772 41.2966 45.8318 41.387C46.2865 41.4774 46.7577 41.431 47.186 41.2536C47.6142 41.0762 47.9803 40.7758 48.2378 40.3904C48.4953 40.005 48.6328 39.5518 48.6328 39.0883C48.6328 38.4667 48.3859 37.8705 47.9463 37.431C47.5068 36.9915 46.9107 36.7445 46.2891 36.7445ZM46.2891 40.2977C46.0494 40.2979 45.815 40.227 45.6155 40.094C45.4161 39.961 45.2606 39.7718 45.1687 39.5505C45.0769 39.3291 45.0527 39.0854 45.0993 38.8503C45.1459 38.6151 45.2612 38.3991 45.4307 38.2295C45.6001 38.06 45.816 37.9444 46.0511 37.8976C46.2861 37.8507 46.5298 37.8747 46.7513 37.9663C46.9728 38.058 47.1621 38.2133 47.2953 38.4126C47.4285 38.6119 47.4996 38.8462 47.4996 39.0859C47.4993 39.407 47.3717 39.7149 47.1448 39.942C46.9179 40.1691 46.6101 40.297 46.2891 40.2977ZM44.6437 29.227L46.5012 29.227L46.5012 30.3566L44.6437 30.3566L44.6437 29.227Z" fill="rgb(0,0,0)" fill-rule="nonzero" />
		<path id="Vector" d="M60 41.1452L60 36.862L58.9336 36.862L58.9336 27.3241L53.3648 18.6299L41.8195 18.6299L41.8195 35.6889C41.5439 36.0504 41.3129 36.4439 41.1316 36.8608L38.1633 36.8608C38.1399 36.5097 38.0348 36.169 37.8563 35.8659L41.223 35.8659L41.223 15.2913L10.9148 15.2913L0 28.9881L0 41.1452L7.93594 41.1452L7.93594 37.8006L8.9707 35.867L9.69961 35.867C9.10955 36.7086 8.76173 37.696 8.69403 38.7216C8.62634 39.7472 8.84135 40.7717 9.31567 41.6836C9.78999 42.5954 10.5054 43.3596 11.384 43.893C12.2627 44.4263 13.2708 44.7083 14.2986 44.7083C15.3265 44.7083 16.3346 44.4263 17.2132 43.893C18.0918 43.3596 18.8073 42.5954 19.2816 41.6836C19.7559 40.7717 19.9709 39.7472 19.9032 38.7216C19.8355 37.696 19.4877 36.7086 18.8977 35.867L22.9488 35.867C22.7436 36.2146 22.6352 36.6107 22.6348 37.0143L22.6348 40.5182C22.6357 41.1216 22.876 41.7 23.3028 42.1264C23.7297 42.5528 24.3083 42.7925 24.9117 42.7928L35.891 42.7928C36.3861 42.7933 36.8678 42.6329 37.2637 42.3357C37.6596 42.0385 37.9482 41.6207 38.0859 41.1452L41.0707 41.1452C41.4837 42.1941 42.2028 43.0945 43.1346 43.7291C44.0664 44.3636 45.1676 44.703 46.2949 44.703C47.4223 44.703 48.5235 44.3636 49.4553 43.7291C50.387 43.0945 51.1062 42.1941 51.5191 41.1452L60 41.1452ZM58.868 40.0167L51.8273 40.0167C51.9411 39.3451 51.9312 38.6584 51.798 37.9905L58.868 37.9905L58.868 40.0167ZM52.7473 19.7538L57.8016 27.6534L57.8016 36.862L51.4453 36.862C51.111 36.0846 50.6053 35.3929 49.966 34.8385C49.3266 34.2842 48.5702 33.8817 47.7532 33.661C46.9363 33.4403 46.0801 33.4072 45.2486 33.5642C44.4171 33.7211 43.6318 34.0641 42.9516 34.5674L42.9516 19.7538L52.7473 19.7538ZM9.375 34.7374L14.3625 16.4209L15.1383 16.4209L10.1473 34.7374L9.375 34.7374ZM11.4551 34.2463L16.309 16.4209L22.0512 16.4209L17.1902 34.2733C16.3245 33.7513 15.3337 33.4732 14.3229 33.4684C13.312 33.4637 12.3186 33.7325 11.448 34.2463L11.4551 34.2463ZM23.223 16.4209L23.9988 16.4209L19.0113 34.7374L18.2355 34.7374L23.223 16.4209ZM25.1695 16.4209L30.9609 16.4209L25.9734 34.7374L20.1832 34.7374L25.1695 16.4209ZM32.1316 16.4209L32.9074 16.4209L27.9211 34.7374L27.1441 34.7374L32.1316 16.4209ZM34.0793 16.4209L39.9176 16.4209L34.9312 34.7374L29.0918 34.7374L34.0793 16.4209ZM36.1031 34.7374L40.0875 20.0889L40.0875 34.7374L36.1031 34.7374ZM1.12969 33.2866L2.97188 33.2866L2.97188 32.1569L1.12969 32.1569L1.12969 31.5428L3.00469 31.5428L3.00469 30.4131L1.12969 30.4131L1.12969 29.3831L11.4598 16.4209L13.1871 16.4209L8.10352 35.0924L7.15664 36.862L1.12969 36.862L1.12969 33.2866ZM6.80625 40.0167L1.12969 40.0167L1.12969 37.9905L6.80625 37.9905L6.80625 40.0167ZM14.2969 43.5733C13.4091 43.5733 12.5413 43.31 11.8032 42.8168C11.0651 42.3236 10.4898 41.6225 10.1501 40.8023C9.81046 39.9821 9.72165 39.0796 9.89492 38.209C10.0682 37.3383 10.4958 36.5386 11.1236 35.9109C11.7514 35.2832 12.5513 34.8559 13.422 34.6828C14.2927 34.5098 15.1952 34.5988 16.0153 34.9387C16.8354 35.2786 17.5363 35.8541 18.0293 36.5923C18.5224 37.3306 18.7854 38.1984 18.7852 39.0862C18.7836 40.276 18.3102 41.4166 17.4688 42.2577C16.6274 43.0989 15.4867 43.5721 14.2969 43.5733ZM37.0371 40.5182C37.0365 40.8221 36.9153 41.1133 36.7003 41.3279C36.4852 41.5426 36.1937 41.6631 35.8898 41.6631L24.9117 41.6631C24.6079 41.6631 24.3164 41.5426 24.1013 41.3279C23.8862 41.1133 23.7651 40.8221 23.7645 40.5182L23.7645 37.0143C23.7651 36.7102 23.8861 36.4188 24.1012 36.2038C24.3162 35.9887 24.6076 35.8677 24.9117 35.867L35.891 35.867C36.1951 35.8677 36.4866 35.9887 36.7016 36.2038C36.9166 36.4188 37.0377 36.7102 37.0383 37.0143L37.0371 40.5182ZM38.1691 40.0167L38.1691 37.9905L40.7812 37.9905C40.7096 38.3513 40.6735 38.7183 40.6734 39.0862C40.6734 39.398 40.6997 39.7093 40.752 40.0167L38.1691 40.0167ZM46.2891 43.5733C45.4012 43.574 44.533 43.3113 43.7944 42.8185C43.0558 42.3257 42.48 41.6249 42.1398 40.8048C41.7996 39.9846 41.7103 39.082 41.8832 38.2111C42.056 37.3402 42.4833 36.5401 43.111 35.9121C43.7387 35.2841 44.5385 34.8564 45.4094 34.6831C46.2802 34.5098 47.1828 34.5986 48.0031 34.9384C48.8234 35.2782 49.5245 35.8536 50.0177 36.5919C50.5109 37.3303 50.7741 38.1983 50.7738 39.0862C50.7732 40.2756 50.3006 41.4162 49.4597 42.2575C48.6189 43.0988 47.4785 43.5721 46.2891 43.5733Z" fill="rgb(0,0,0)" fill-rule="nonzero" />
	</g>
</svg>
