<svg xmlns="http://www.w3.org/2000/svg" xmlns:xlink="http://www.w3.org/1999/xlink" viewBox="0 0 60 42.0815" fill="none" customFrame="#000000" preserveAspectRatio="xMidYMid meet" width="60" height="42.0815">
	<g id="Group">
		<path id="Vector" d="M59.0739 13.9614L59.0898 13.9539C59.3324 13.9469 59.5627 13.8461 59.7325 13.6726C59.9022 13.4992 59.9981 13.2667 59.9999 13.0241C60.0013 12.9015 59.9783 12.7798 59.9324 12.6662C59.8864 12.5525 59.8183 12.4491 59.7321 12.3619C59.6459 12.2747 59.5432 12.2055 59.4301 12.1583C59.3169 12.111 59.1955 12.0867 59.0729 12.0867C58.8086 12.0024 58.115 10.8616 58.115 8.80606C58.115 6.75048 58.8095 5.60974 59.0739 5.52537L59.087 5.51881C59.317 5.50243 59.5328 5.40187 59.6933 5.23634C59.8538 5.07082 59.9477 4.85194 59.957 4.62157C59.9662 4.3912 59.8903 4.16549 59.7436 3.98759C59.597 3.80969 59.3899 3.69208 59.162 3.65726L28.9525 0.104748C27.7765 -0.034916 26.5881 -0.034916 25.4122 0.104748L3.63781 2.71992L3.62375 2.71992C1.86062 2.84178 0.937338 5.36696 0.937338 7.86872C0.87601 9.35624 1.26828 10.8273 2.06214 12.0867C1.26801 13.3461 0.875713 14.8172 0.937338 16.3048C0.886993 17.7366 1.24457 19.1533 1.96841 20.3897C0.673946 21.6926 0 24.3959 0 27.0841C0 30.7791 1.26634 34.5201 3.68749 34.5829L35.5092 38.3266C35.5456 38.3308 35.5822 38.3327 35.6188 38.3322C35.6561 38.3324 35.6934 38.3302 35.7304 38.3256L43.1175 37.4389L43.1175 41.1442C43.1175 41.3492 43.1846 41.5486 43.3087 41.7118C43.4328 41.8751 43.607 41.9931 43.8046 42.0478C43.8862 42.0701 43.9703 42.0814 44.0549 42.0816C44.2166 42.0815 44.3756 42.0396 44.5164 41.96C44.6571 41.8803 44.7749 41.7656 44.8582 41.6269L46.9531 38.1354L48.929 40.7693C49.0471 40.9267 49.2116 41.0429 49.3994 41.1016C49.5872 41.1602 49.7887 41.1583 49.9753 41.0961C50.162 41.0339 50.3243 40.9145 50.4393 40.755C50.5544 40.5954 50.6163 40.4036 50.6163 40.2069L50.6163 36.54L59.1638 35.5136C59.4012 35.4854 59.6189 35.3675 59.7722 35.1841C59.9256 35.0007 60.003 34.7656 59.9888 34.527C59.9746 34.2883 59.8697 34.0642 59.6956 33.9003C59.5215 33.7364 59.2914 33.6453 59.0523 33.6455C58.3962 33.6455 57.1776 31.5103 57.1776 28.0215C57.1776 24.5627 58.3287 22.5606 59.0523 22.3975C59.3021 22.3982 59.542 22.3 59.7196 22.1244C59.8972 21.9487 59.998 21.7099 59.9999 21.4601C60.0019 21.231 59.919 21.0092 59.7672 20.8376C59.6155 20.6659 59.4055 20.5564 59.1779 20.5303C59.1409 20.5259 59.1036 20.5234 59.0664 20.5228C58.7973 20.4197 58.115 19.2817 58.115 17.2421C58.115 15.18 58.8095 14.0458 59.0739 13.9614ZM30.2638 35.8211C29.379 34.0461 28.9637 32.0741 29.0575 30.093C28.9889 28.1911 29.3587 26.2989 30.1382 24.5627L33.2249 24.9255C32.2684 26.7439 31.8013 28.7799 31.8695 30.8335C31.8377 32.6522 32.189 34.4573 32.9006 36.1313L30.2638 35.8211ZM26.4807 35.3758C25.6251 33.6102 25.2221 31.6595 25.3081 29.6993C25.2329 27.7813 25.6139 25.8727 26.4198 24.1306L28.1726 24.3368C27.475 26.1739 27.1389 28.1284 27.1828 30.093C27.1535 31.9545 27.454 33.8066 28.0705 35.5633L26.4807 35.3758ZM11.3296 33.5949C10.6157 31.9066 10.2746 30.0842 10.3295 28.2521C10.2199 26.2179 10.6712 24.1926 11.6342 22.3975L24.3474 23.8906C24.3755 23.8906 24.4008 23.9075 24.4289 23.9075C24.4361 23.908 24.4433 23.908 24.4505 23.9075C23.7395 25.754 23.3941 27.7211 23.4335 29.6993C23.4063 31.5429 23.7 33.3771 24.3014 35.1199L11.3296 33.5949ZM7.58681 33.1553C6.86582 31.4634 6.52228 29.6347 6.58011 27.7965C6.46911 25.7665 6.91648 23.7449 7.87364 21.9513L9.61896 22.1566C8.79637 24.0799 8.39802 26.158 8.45104 28.2493C8.42912 29.9774 8.68224 31.6979 9.20091 33.3465L7.58681 33.1553ZM3.76997 19.5854C3.50564 19.5011 2.81201 18.3603 2.81201 16.3048C2.81201 14.267 3.49252 13.1309 3.74185 13.0297L8.18202 13.5471C8.19796 13.5471 8.21014 13.5593 8.22514 13.5612L27.0788 15.7733C26.6593 16.9996 26.4566 18.2896 26.4798 19.5854C26.4774 20.4935 26.5745 21.399 26.7694 22.2859L24.9763 22.076C24.5363 20.9885 24.33 19.8205 24.3708 18.6481C24.3699 18.0882 24.4328 17.53 24.5583 16.9843C24.586 16.8644 24.5897 16.7401 24.5694 16.6187C24.5491 16.4973 24.5051 16.3811 24.4398 16.2767C24.3746 16.1723 24.2894 16.0817 24.1892 16.0102C24.089 15.9387 23.9757 15.8877 23.8557 15.86C23.7358 15.8323 23.6115 15.8285 23.4901 15.8488C23.3687 15.8691 23.2525 15.9132 23.1481 15.9784C23.0436 16.0436 22.9531 16.1288 22.8816 16.229C22.8101 16.3292 22.7591 16.4426 22.7314 16.5625C22.5746 17.2466 22.4956 17.9463 22.4961 18.6481C22.486 19.7241 22.6232 20.7963 22.9039 21.8351L11.2921 20.4703L11.2724 20.4703L7.5362 20.0297L7.51183 20.0297L3.76997 19.5854ZM9.03594 5.21418L12.6756 5.64067L12.685 5.64067L33.5126 8.09556C33.0257 9.20495 32.7849 10.4067 32.8068 11.6181C32.7992 12.6386 32.9656 13.653 33.2989 14.6176L13.0121 12.2358C12.7627 11.2689 12.6423 10.2732 12.6541 9.27473C12.6527 8.68813 12.6887 8.10205 12.7619 7.52003C12.7776 7.39792 12.7692 7.2739 12.737 7.15506C12.7048 7.03622 12.6496 6.92488 12.5744 6.82739C12.4991 6.72991 12.4055 6.64819 12.2987 6.58691C12.1919 6.52562 12.0741 6.48597 11.952 6.47021C11.8299 6.45445 11.7059 6.46291 11.587 6.49508C11.4682 6.52725 11.3568 6.58251 11.2594 6.65772C11.1619 6.73292 11.0802 6.82659 11.0189 6.93337C10.9576 7.04015 10.9179 7.15796 10.9022 7.28007C10.8189 7.94167 10.7779 8.60791 10.7794 9.27473C10.7766 10.1907 10.8623 11.1048 11.0353 12.0043L8.94314 11.7587C8.57179 10.6575 8.40006 9.49891 8.43604 8.33739C8.43502 7.26759 8.63864 6.20747 9.03594 5.21418ZM35.6188 8.33739C35.6558 8.33751 35.6928 8.33532 35.7295 8.33083L56.7258 5.81407C56.3954 6.77664 56.2313 7.78841 56.2403 8.80606C56.2179 10.02 56.46 11.2242 56.9498 12.3351L35.6292 14.8903C35.3573 14.7825 34.6815 13.6549 34.6815 11.6181C34.6815 9.56249 35.3751 8.42175 35.6188 8.33739ZM28.7763 22.5212C28.485 21.5702 28.3427 20.5799 28.3545 19.5854C28.2883 18.3535 28.5239 17.1241 29.0406 16.0039L33.5155 16.5288C33.0265 17.6386 32.7847 18.8415 32.8068 20.0541C32.7992 21.0746 32.9656 22.089 33.2989 23.0536L28.7763 22.5212ZM35.632 23.3273C35.3583 23.2195 34.6815 22.0919 34.6815 20.0541C34.6815 17.9985 35.3751 16.8578 35.6188 16.7734C35.6561 16.7736 35.6934 16.7714 35.7304 16.7669L56.7268 14.2501C56.3961 15.2126 56.2316 16.2244 56.2403 17.2421C56.2219 18.457 56.4716 19.6609 56.9714 20.7684L35.632 23.3273ZM25.6343 1.96349C26.6634 1.84164 27.7032 1.84164 28.7322 1.96349L51.1159 4.59553L35.6188 6.45615L12.9043 3.77911L12.895 3.77911L11.7055 3.63945L25.6343 1.96349ZM3.73717 4.58804L7.11908 4.98453C6.7505 6.06399 6.56208 7.19674 6.56137 8.33739C6.55258 9.40633 6.66993 10.4726 6.91099 11.514L3.76997 11.1494C3.50564 11.065 2.81201 9.9243 2.81201 7.86872C2.81201 5.84594 3.48315 4.70989 3.73717 4.59272L3.73717 4.58804ZM3.74935 32.7082C3.09322 32.7082 1.87468 30.5729 1.87468 27.0841C1.87468 23.616 3.07259 21.492 3.73529 21.4648L5.8668 21.7151C5.04908 23.6358 4.65305 25.7096 4.70544 27.7965C4.6843 29.5283 4.9403 31.2523 5.46374 32.9031L3.85902 32.7157C3.82266 32.7108 3.78603 32.7083 3.74935 32.7082ZM47.6168 35.8951C47.5255 35.771 47.4046 35.6716 47.2651 35.6061C47.1257 35.5406 46.972 35.5111 46.8182 35.5202C46.6657 35.529 46.5176 35.5749 46.3869 35.654C46.2562 35.7331 46.1469 35.8429 46.0683 35.9739L44.9922 37.7604L44.9922 29.7199L48.7416 29.2681L48.7416 37.3949L47.6168 35.8951ZM50.6163 34.6513L50.6163 29.0422L51.2049 28.971C51.4519 28.9416 51.677 28.8152 51.8309 28.6197C51.9847 28.4242 52.0545 28.1757 52.0251 27.9287C51.9956 27.6817 51.8692 27.4565 51.6738 27.3027C51.4783 27.1489 51.2297 27.0791 50.9827 27.1085L49.5767 27.2791L49.5702 27.2791L43.9462 27.954C43.9358 27.954 43.9274 27.9615 43.9171 27.9624L42.7492 28.104C42.5121 28.1322 42.2947 28.2498 42.1414 28.4328C41.988 28.6158 41.9103 28.8504 41.9241 29.0887C41.9378 29.3271 42.042 29.5512 42.2154 29.7154C42.3887 29.8795 42.6182 29.9714 42.857 29.9721C42.8939 29.9722 42.9309 29.97 42.9676 29.9655L43.1175 29.9468L43.1175 35.5511L35.6188 36.451L35.5364 36.4416C34.8896 36.2851 33.7442 34.2857 33.7442 30.8335C33.7442 27.3447 34.9627 25.2095 35.6188 25.2095C35.6561 25.2096 35.6934 25.2075 35.7304 25.2029L56.334 22.733C55.6234 24.4041 55.2721 26.2059 55.3029 28.0215C55.2351 30.0733 55.6998 32.1078 56.6518 33.9267L50.6163 34.6513Z" fill="#000000" fill-rule="nonzero"/>
	</g>
</svg>