<svg viewBox="0 0 200 200" xmlns="http://www.w3.org/2000/svg" xmlns:xlink="http://www.w3.org/1999/xlink" width="200.000000" height="200.000000" fill="none">
	<defs>
		<linearGradient id="paint_linear_13" x1="25.9599323" x2="178.296661" y1="142.127502" y2="191.730835" gradientUnits="userSpaceOnUse">
			<stop stop-color="rgb(154,193,117)" offset="0" stop-opacity="1" />
			<stop stop-color="rgb(42,98,43)" offset="1" stop-opacity="1" />
		</linearGradient>
		<linearGradient id="paint_linear_14" x1="46.4758759" x2="164.935867" y1="101.334175" y2="121.231339" gradientUnits="userSpaceOnUse">
			<stop stop-color="rgb(154,193,117)" offset="0" stop-opacity="1" />
			<stop stop-color="rgb(42,98,43)" offset="1" stop-opacity="1" />
		</linearGradient>
		<linearGradient id="paint_linear_15" x1="93.6670685" x2="107.683426" y1="93.0167236" y2="95.369873" gradientUnits="userSpaceOnUse">
			<stop stop-color="rgb(154,193,117)" offset="0" stop-opacity="1" />
			<stop stop-color="rgb(42,98,43)" offset="1" stop-opacity="1" />
		</linearGradient>
	</defs>
	<rect id="icon/driver" width="200.000000" height="200.000000" x="0.000000" y="0.000000" fill="rgb(255,255,255)" fill-opacity="0" />
	<g id="Group">
		<path id="Vector" d="M185.366 131.728C187.778 126.265 188.161 120.121 186.447 114.4L181.097 96.6157C180.506 94.6214 179.457 92.7928 178.034 91.2758C176.611 89.7588 174.853 88.5953 172.901 87.8782C172.901 87.8782 169.06 86.4844 168.919 86.4563C168.922 90.6656 168.54 94.8664 167.779 99.0063C170.607 100.222 172.878 102.454 174.142 105.261C175.407 108.068 175.574 111.248 174.61 114.172L169.885 128.313C169.154 130.431 169.585 133.834 166.482 133.863C162.513 133.694 163.607 129.038 164.507 126.494L169.413 111.8C169.664 110.713 169.636 109.581 169.331 108.508C169.025 107.435 168.453 106.457 167.668 105.666C166.882 104.874 165.909 104.294 164.839 103.98C163.768 103.667 162.636 103.629 161.547 103.872C160.476 104.114 159.475 104.599 158.622 105.29C157.768 105.981 157.085 106.859 156.626 107.856C154.635 111.056 146.744 123.841 144.616 127.291C141.59 131.314 139.615 136.028 138.869 141.006C137.754 148.575 141.36 155.503 144.019 163.028C145.583 166.189 146.326 169.692 146.182 173.216L145.526 176.431C145.526 176.431 170.863 175.588 178.563 175.634C179.153 175.322 179.613 174.809 179.858 174.188C180.103 173.567 180.118 172.878 179.901 172.247L177.426 164.991C175.544 159.454 175.808 153.413 178.166 148.063L185.366 131.728ZM59.2505 133.863C58.338 131.559 57.0924 129.402 55.5537 127.459L43.4037 107.856C42.7463 106.268 41.5035 104.993 39.9325 104.295C38.3615 103.598 36.5825 103.53 34.9633 104.108C33.3441 104.685 32.0087 105.862 31.2333 107.396C30.458 108.931 30.3019 110.704 30.7974 112.35C31.7255 115.641 36.3912 127.609 36.3943 130.866C36.4165 131.253 36.3592 131.64 36.226 132.004C36.0928 132.368 35.8864 132.7 35.6197 132.981C35.353 133.262 35.0315 133.486 34.6751 133.638C34.3187 133.79 33.9349 133.868 33.5474 133.866C30.4474 133.834 30.8724 130.431 30.1443 128.313L25.4193 114.172C24.5792 111.659 24.5774 108.941 25.4143 106.426C26.2511 103.912 27.8813 101.737 30.0599 100.228C30.7323 99.7482 31.4579 99.3476 32.2224 99.0344C31.814 96.8406 31.5189 94.6273 31.338 92.4032C31.165 90.4256 31.0795 88.4414 31.0818 86.4563C30.9412 86.4875 27.1005 87.8782 27.1005 87.8782C25.148 88.5953 23.3901 89.7588 21.9669 91.2758C20.5438 92.7928 19.4948 94.6214 18.9037 96.6157L13.5537 114.397C11.8392 120.118 12.2226 126.264 14.6349 131.728L21.8349 148.063C24.1927 153.413 24.4569 159.454 22.5755 164.991L20.1005 172.25C19.9656 172.672 19.9296 173.118 19.9955 173.556C20.0613 173.994 20.2272 174.41 20.4803 174.773C20.7333 175.136 21.0667 175.436 21.4545 175.65C21.8423 175.863 22.274 175.984 22.7162 176.003C26.063 176.066 54.4724 176.688 54.4724 176.688L53.7912 172.731C53.7676 169.576 54.4476 166.456 55.7818 163.597C59.738 153.756 63.8537 143.656 59.2505 133.863Z" fill="url(#paint_linear_13)" fill-opacity="0.200000003" fill-rule="nonzero" />
		<path id="Vector" d="M149.625 108.366C152.313 103.434 155.938 98.122 162.204 98.0657C163.89 88.9396 163.548 79.5542 161.201 70.5752C158.854 61.5962 154.56 53.2435 148.624 46.1098C142.687 38.976 135.254 33.2359 126.851 29.2965C118.448 25.3571 109.281 23.3149 100 23.3149C90.7198 23.3149 81.5528 25.3571 73.1497 29.2965C64.7467 33.2359 57.3134 38.976 51.3771 46.1098C45.4408 53.2435 41.1469 61.5962 38.8001 70.5752C36.4532 79.5542 36.1108 88.9396 37.7973 98.0657C39.7898 98.1604 41.7288 98.7416 43.4448 99.7587C45.1607 100.776 46.6015 102.198 47.641 103.9C49.391 106.681 58.3285 121.166 60.2785 124.275C63.8045 128.99 66.0492 134.538 66.7941 140.378C76.7872 146.518 88.2861 149.768 100.014 149.768C111.743 149.768 123.242 146.518 133.235 140.378C134.057 134.423 136.378 128.774 139.979 123.959L149.625 108.366ZM100 40.9876C110.291 40.9955 120.277 44.4826 128.336 50.8825C136.395 57.2824 142.053 66.219 144.391 76.2407C142.589 76.5223 140.755 76.5223 138.954 76.2407C136.504 75.8459 134.156 74.9754 132.041 73.6782C122.229 69.0757 111.522 66.6994 100.684 66.7194C89.8469 66.7394 79.148 69.1552 69.3535 73.7939C64.5441 76.3689 61.4004 76.9095 57.8598 75.3876C57.3566 75.1064 56.6098 74.6595 56.1191 74.4063C58.7691 64.8019 64.4965 56.3319 72.4229 50.2954C80.3493 44.2589 90.0371 40.9891 100 40.9876ZM56.8629 101.247C56.6867 100.651 56.6624 100.021 56.7924 99.413C56.9223 98.8054 57.2023 98.24 57.6069 97.7683C58.0114 97.2967 58.5276 96.9338 59.1083 96.7128C59.6891 96.4919 60.3159 96.4198 60.9316 96.5032L66.3941 95.9032C68.1019 95.7099 69.8306 95.9624 71.4117 96.636C72.9928 97.3097 74.3724 98.3815 75.416 99.747L84.4066 111.441C86.7379 113.972 87.2598 121.853 88.0504 125.041C88.1609 125.663 88.1023 126.303 87.8809 126.895C87.6594 127.486 87.2832 128.007 86.7915 128.404C86.2998 128.801 85.7106 129.058 85.0855 129.149C84.4604 129.24 83.8223 129.162 83.2379 128.922C77.1049 126.486 71.572 122.75 67.0193 117.973C62.4665 113.196 59.0017 107.49 56.8629 101.247ZM100 104.441C96.5062 104.441 93.155 103.053 90.6843 100.582C88.2135 98.1111 86.8254 94.7599 86.8254 91.2657C86.8254 87.7715 88.2135 84.4204 90.6843 81.9496C93.155 79.4788 96.5062 78.0907 100 78.0907C103.495 78.0907 106.846 79.4788 109.317 81.9496C111.787 84.4204 113.175 87.7715 113.175 91.2657C113.175 94.7599 111.787 98.1111 109.317 100.582C106.846 103.053 103.495 104.441 100 104.441ZM116.76 128.922C116.175 129.161 115.538 129.239 114.913 129.147C114.289 129.056 113.7 128.798 113.209 128.402C112.717 128.005 112.342 127.484 112.12 126.893C111.899 126.302 111.84 125.662 111.95 125.041C112.741 121.809 113.288 114.009 115.566 111.441L124.585 99.7439C125.629 98.3789 127.008 97.3077 128.59 96.6346C130.171 95.9616 131.899 95.7096 133.607 95.9032C134.369 95.9907 139.544 96.5501 140.191 96.6282C140.713 96.6873 141.215 96.8623 141.66 97.1402C142.106 97.4182 142.484 97.7922 142.766 98.2348C143.048 98.6775 143.228 99.1777 143.293 99.6988C143.357 100.22 143.304 100.749 143.138 101.247C140.999 107.49 137.534 113.196 132.982 117.973C128.429 122.75 122.893 126.486 116.76 128.922Z" fill="url(#paint_linear_14)" fill-opacity="0.200000003" fill-rule="nonzero" />
		<path id="Vector" d="M100 83.7812C98.015 83.7812 96.1113 84.5698 94.7077 85.9734C93.3042 87.377 92.5156 89.2806 92.5156 91.2656C92.5156 93.2506 93.3042 95.1543 94.7077 96.5579C96.1113 97.9615 98.015 98.75 100 98.75C101.985 98.75 103.889 97.9615 105.292 96.5579C106.696 95.1543 107.484 93.2506 107.484 91.2656C107.484 89.2806 106.696 87.377 105.292 85.9734C103.889 84.5698 101.985 83.7812 100 83.7812Z" fill="url(#paint_linear_15)" fill-opacity="0.200000003" fill-rule="nonzero" />
	</g>
</svg>
