<svg viewBox="0 0 165 165" xmlns="http://www.w3.org/2000/svg" xmlns:xlink="http://www.w3.org/1999/xlink" width="165.000000" height="165.000000" fill="none">
	<rect id="Frame" width="165.000000" height="165.000000" x="0.000000" y="0.000000" fill="rgb(255,255,255)" fill-opacity="0" />
	<g id="Group">
		<path id="Vector" d="M82.5 0C66.1831 8.58688e-15 50.2325 4.83854 36.6655 13.9038C23.0984 22.969 12.5242 35.8537 6.27998 50.9286C0.0357456 66.0035 -1.59803 82.5915 1.58525 98.5949C4.76853 114.598 12.6259 129.298 24.1637 140.836C35.7016 152.374 50.4017 160.232 66.4051 163.415C82.4085 166.598 98.9965 164.964 114.071 158.72C129.146 152.476 142.031 141.902 151.096 128.335C160.161 114.767 165 98.817 165 82.5C164.975 60.6272 156.276 39.6572 140.809 24.1908C125.343 8.72439 104.373 0.0245655 82.5 0ZM82.5 160.488C67.0754 160.488 51.9972 155.914 39.1721 147.345C26.347 138.775 16.351 126.595 10.4483 112.345C4.54551 98.0943 3.00108 82.4135 6.01028 67.2852C9.01947 52.157 16.4471 38.2608 27.354 27.354C38.2608 16.4471 52.157 9.01944 67.2853 6.01024C82.4135 3.00105 98.0944 4.54547 112.345 10.4482C126.595 16.351 138.775 26.3469 147.345 39.172C155.914 51.9971 160.488 67.0754 160.488 82.5C160.465 103.177 152.241 123 137.62 137.62C123 152.241 103.177 160.465 82.5 160.488Z" fill="rgb(255,255,255)" fill-rule="nonzero" />
		<path id="Vector" d="M82.5 10.3125C68.2227 10.3125 54.266 14.5462 42.3948 22.4783C30.5236 30.4104 21.2712 41.6845 15.8075 54.875C10.3438 68.0656 8.91422 82.5801 11.6996 96.5831C14.485 110.586 21.3602 123.449 31.4558 133.544C41.5514 143.64 54.414 150.515 68.417 153.3C82.42 156.086 96.9344 154.656 110.125 149.193C123.316 143.729 134.59 134.476 142.522 122.605C150.454 110.734 154.688 96.7773 154.688 82.5C154.666 63.3614 147.053 45.0129 133.52 31.4798C119.987 17.9468 101.639 10.3343 82.5 10.3125ZM82.5 150.176C69.115 150.176 56.0306 146.207 44.9014 138.77C33.7722 131.334 25.098 120.765 19.9758 108.398C14.8535 96.0323 13.5133 82.4249 16.1246 69.2971C18.7359 56.1693 25.1814 44.1106 34.646 34.646C44.1107 25.1814 56.1693 18.7359 69.2971 16.1246C82.425 13.5133 96.0323 14.8535 108.398 19.9757C120.765 25.0979 131.334 33.7721 138.77 44.9013C146.207 56.0306 150.176 69.115 150.176 82.5C150.156 100.443 143.019 117.644 130.332 130.332C117.644 143.019 100.443 150.156 82.5 150.176Z" fill="rgb(255,255,255)" fill-rule="nonzero" />
		<path id="Vector" d="M91.8646 31.9688L62.6377 31.9688C62.0394 31.9688 61.4656 32.2064 61.0426 32.6295C60.6195 33.0525 60.3818 33.6263 60.3818 34.2246L60.3818 79.1484L49.7471 79.1484C49.1488 79.1484 48.575 79.3861 48.1519 79.8092C47.7289 80.2322 47.4912 80.806 47.4912 81.4043L47.4912 91.7168C47.491 92.0131 47.5493 92.3065 47.6626 92.5803C47.7759 92.854 47.942 93.1028 48.1516 93.3123C48.3611 93.5218 48.6098 93.688 48.8836 93.8013C49.1574 93.9146 49.4508 93.9728 49.7471 93.9727L60.3818 93.9727L60.3818 101.578L49.5537 101.578C48.9555 101.578 48.3819 101.816 47.959 102.239C47.536 102.662 47.2982 103.236 47.2979 103.834L47.2979 114.146C47.2982 114.745 47.536 115.318 47.959 115.741C48.3819 116.164 48.9555 116.402 49.5537 116.402L60.3818 116.402L60.3818 130.764C60.3817 131.06 60.4399 131.354 60.5532 131.627C60.6665 131.901 60.8327 132.15 61.0422 132.359C61.2517 132.569 61.5004 132.735 61.7742 132.848C62.048 132.962 62.3414 133.02 62.6377 133.02L72.9502 133.02C73.5485 133.02 74.1223 132.782 74.5453 132.359C74.9684 131.936 75.2061 131.362 75.2061 130.764L75.2061 116.402L110.293 116.402C110.891 116.402 111.465 116.165 111.888 115.742C112.311 115.319 112.549 114.745 112.549 114.146L112.549 103.834C112.549 103.236 112.311 102.662 111.888 102.239C111.465 101.816 110.891 101.578 110.293 101.578L75.2061 101.578L75.2061 93.9727L91.8646 93.9727C100.086 93.9727 107.97 90.7068 113.784 84.8935C119.597 79.0803 122.863 71.1958 122.863 62.9746C122.863 54.7534 119.597 46.8689 113.784 41.0556C107.97 35.2423 100.086 31.9765 91.8646 31.9765L91.8646 31.9688ZM91.8646 89.4532L72.9502 89.4532C72.3519 89.4532 71.7781 89.6909 71.3551 90.1139C70.932 90.537 70.6943 91.1108 70.6943 91.7091L70.6943 103.834C70.6943 104.432 70.932 105.006 71.3551 105.429C71.7781 105.852 72.3519 106.09 72.9502 106.09L108.037 106.09L108.037 111.891L72.9502 111.891C72.3519 111.891 71.7781 112.128 71.3551 112.551C70.932 112.974 70.6943 113.548 70.6943 114.146L70.6943 128.52L64.8936 128.52L64.8936 114.152C64.8932 113.553 64.6554 112.98 64.2325 112.557C63.8095 112.134 63.2359 111.896 62.6377 111.896L51.8096 111.896L51.8096 106.09L62.6377 106.09C63.2359 106.09 63.8095 105.852 64.2325 105.429C64.6554 105.006 64.8932 104.432 64.8936 103.834L64.8936 91.7142C64.8932 91.116 64.6554 90.5424 64.2325 90.1195C63.8095 89.6965 63.2359 89.4587 62.6377 89.4584L52.0029 89.4584L52.0029 83.6602L62.6377 83.6602C63.236 83.6602 63.8098 83.4225 64.2328 82.9994C64.6559 82.5764 64.8936 82.0026 64.8936 81.4043L64.8936 36.4805L91.8646 36.4805C98.8892 36.4805 105.626 39.271 110.593 44.2381C115.56 49.2053 118.351 55.9422 118.351 62.9668C118.351 69.9915 115.56 76.7284 110.593 81.6955C105.626 86.6627 98.8892 89.4532 91.8646 89.4532Z" fill="rgb(255,255,255)" fill-rule="nonzero" />
		<path id="Vector" d="M91.8646 42.2812L72.9502 42.2812C72.3519 42.2812 71.7781 42.5189 71.3551 42.942C70.932 43.365 70.6943 43.9388 70.6943 44.5371L70.6943 81.4017C70.6942 81.698 70.7524 81.9914 70.8657 82.2652C70.979 82.539 71.1452 82.7877 71.3547 82.9972C71.5642 83.2067 71.813 83.3729 72.0867 83.4862C72.3605 83.5995 72.6539 83.6577 72.9502 83.6576L91.8646 83.6576C97.3508 83.6576 102.612 81.4782 106.492 77.5989C110.371 73.7196 112.55 68.4582 112.55 62.972C112.55 57.4858 110.371 52.2244 106.492 48.3451C102.612 44.4658 97.3508 42.2864 91.8646 42.2864L91.8646 42.2812ZM91.8646 79.1407L75.2061 79.1407L75.2061 46.793L91.8646 46.793C96.1542 46.793 100.268 48.497 103.301 51.5302C106.334 54.5634 108.038 58.6773 108.038 62.9668C108.038 67.2564 106.334 71.3703 103.301 74.4035C100.268 77.4367 96.1542 79.1407 91.8646 79.1407Z" fill="rgb(255,255,255)" fill-rule="nonzero" />
	</g>
</svg>
